<?xml version="1.0" standalone="no"?>
<!DOCTYPE svg PUBLIC "-//W3C//DTD SVG 1.1//EN" "http://www.w3.org/Graphics/SVG/1.1/DTD/svg11.dtd" >
<svg>
<metadata>
Created by FontForge 20090622 at Mon Sep 12 00:28:12 2016
 By deploy user
Copyright (c) 2009 by Fabrizio Schiavi - http://www.fsd.it/. All rights reserved.
</metadata>
<defs>
<font id="PragmataPro-Bold" horiz-adv-x="1024" >
  <font-face 
    font-family="PragmataPro"
    font-weight="700"
    font-stretch="normal"
    units-per-em="2048"
    panose-1="2 0 5 0 3 0 0 2 0 4"
    ascent="1638"
    descent="-410"
    x-height="1132"
    cap-height="1526"
    bbox="-162 -362 3982 1884"
    underline-thickness="60"
    underline-position="-275"
    unicode-range="U+000D-U+1F8AB"
  />
<missing-glyph 
 />
    <glyph glyph-name="exclam_exclam" unicode="&#x21;&#x21;" horiz-adv-x="2048" 
d="M733 569h-191l-59 550v407h308v-400zM807 149q0 -74 -48 -121t-122 -47q-73 0 -120.5 47t-47.5 121t47.5 121.5t120.5 47.5t121.5 -47.5t48.5 -121.5zM1506 569h-191l-59 550v407h308v-400zM1580 149q0 -74 -48 -121t-122 -47q-73 0 -120.5 47t-47.5 121t47.5 121.5
t120.5 47.5t121.5 -47.5t48.5 -121.5z" />
    <glyph glyph-name="exclam_equal" unicode="&#x21;&#x3d;" horiz-adv-x="2048" 
d="M1719 709h-535l-84 -205h619v-230h-713l-106 -252h-222l104 252h-454v230h550l85 205h-635v230h730l105 257h222l-105 -257h439v-230z" />
    <glyph glyph-name="exclam_equal_equal" unicode="&#x21;&#x3d;&#x3d;" horiz-adv-x="3072" 
d="M2724 709h-1540l-84 -205h1624v-230h-1718l-106 -252h-222l104 252h-434v230h530l85 205h-615v230h710l105 257h222l-105 -257h1444v-230z" />
    <glyph glyph-name="numbersign_parenleft" unicode="&#x23;&#x28;" horiz-adv-x="2048" 
d="M866 0h-239l73 424h-153l-74 -424h-238l73 424h-126v218h165l39 233h-145v219h183l73 432h239l-73 -432h153l74 432h238l-73 -432h238q110 388 503 643l121 -169q-419 -307 -419 -805q0 -497 419 -805l-121 -169q-393 259 -501 635h-356zM1249 761q0 50 4 114h-236
l-39 -233h277q-6 69 -6 119zM738 642l41 233h-154l-40 -233h153z" />
    <glyph glyph-name="numbersign_underscore" unicode="&#x23;_" horiz-adv-x="2048" 
d="M860 612l52 302h-193l-51 -302h192zM749 -230q0 203 34 402l40 223l-193 -1l-68 -394h-238l67 394h-150v218h188l52 302h-164v218h202l67 394h239l-68 -394h193l67 394h239l-68 -394h151v-218h-188l-53 -302h166v-217l-203 -1l-68 -394h845v-230h-1089z" />
    <glyph glyph-name="numbersign_braceleft" unicode="&#x23;&#x7b;" horiz-adv-x="2048" 
d="M1880 -132h-121q-176 0 -273.5 97t-97.5 263v22h-430l-42 -250h-239l43 250h-172l-43 -250h-239l42 250h-167v219h205l101 580h-204v218h242l43 259h240l-44 -259h172l44 259h239l-44 -259h253v29q0 167 97.5 264.5t273.5 97.5h121v-221h-81q-67 0 -115 -38t-48 -124
v-169q0 -256 -205 -343q205 -88 205 -341v-172q0 -86 48 -124t115 -38h81v-220zM996 469h392q-10 88 -64 136t-137 48h-27v220h26q83 0 137.5 48.5t64.5 127.5h-291zM757 469l102 580h-172l-102 -580h172z" />
    <glyph glyph-name="percent_equal" unicode="&#x25;&#x3d;" horiz-adv-x="2048" 
d="M1027 1526l-611 -1526h-232l621 1526h222zM1037 206q0 -98 -55.5 -161.5t-141.5 -63.5q-87 0 -142 63.5t-55 161.5q0 96 54.5 160.5t142.5 64.5q86 0 141.5 -65t55.5 -160zM567 1321q0 -98 -55 -162t-142 -64t-141.5 64t-54.5 162q0 96 54 160.5t142 64.5q87 0 142 -65
t55 -160zM1883 864h-870v230h870v-230zM1883 429h-870v230h870v-230z" />
    <glyph glyph-name="ampersand_percent" unicode="&#x26;&#x25;" horiz-adv-x="2048" 
d="M903 408l165 -307l580 1425h222l-610 -1526h-386l-88 158q-80 -177 -270 -177q-150 0 -248.5 122t-98.5 322q0 284 204 482l-37 66q-65 118 -65 214q0 159 95.5 259t230.5 100q252 0 329 -304l-225 -90q-32 169 -106 169q-36 0 -55.5 -39.5t-19.5 -103.5q0 -77 56 -178
l181 -327l61 198h207v-62zM523 217q78 -1 115 120l17 59l-161 292q-77 -93 -77 -263q0 -209 106 -208zM1410 1321q0 -98 -55 -162t-142 -64t-141.5 64t-54.5 162q0 96 54 160.5t142 64.5q87 0 142 -65t55 -160zM1880 206q0 -98 -55 -161.5t-142 -63.5t-141.5 63.5
t-54.5 161.5q0 96 54 160.5t142 64.5q87 0 142 -64.5t55 -160.5z" />
    <glyph glyph-name="ampersand_ampersand" unicode="&#x26;&#x26;" horiz-adv-x="2048" 
d="M1746 408l191 -345v-63h-220l-88 158q-81 -177 -370 -177q-358 0 -455 177q-80 -177 -271 -177q-149 0 -248 122t-99 322q0 284 204 482l-36 67q-65 117 -65 213q0 159 95 260t230 101q253 0 330 -304l-225 -92q-32 167 -107 167q-35 0 -53.5 -38.5t-18.5 -102.5
q0 -77 53 -178l385 -696q35 -64 74 -104q-41 66 -41 225q0 284 204 482l-36 67q-65 117 -65 213q0 159 95 260t230 101q252 0 330 -306l-225 -90q-32 167 -107 167q-35 0 -55 -38.5t-20 -102.5q0 -77 56 -178l182 -327l61 198h206v-62zM1365 217q78 0 115 120l17 59
l-161 292q-76 -93 -76 -263q0 -208 105 -208zM540 217q78 0 115 120l17 59l-161 292q-76 -93 -76 -263q0 -208 105 -208z" />
    <glyph glyph-name="ampersand_asterisk" unicode="&#x26;&#x2a;" horiz-adv-x="2048" 
d="M905 408l191 -345v-63h-220l-88 158q-80 -177 -271 -177q-150 0 -248.5 122t-98.5 323q0 283 204 481l-36 66q-65 118 -65 214q0 159 95 260t230 101q252 0 330 -304l-225 -92q-32 167 -107 167q-35 0 -55 -38.5t-20 -102.5q0 -77 56 -178l182 -327l61 198h206v-62z
M524 217q78 0 115 120l17 59l-161 292q-76 -93 -76 -263q0 -101 30.5 -154.5t74.5 -53.5zM1369 1219l-32 308h266l-33 -308l288 125l82 -253l-304 -64l211 -236l-216 -157l-161 283l-161 -283l-216 157l211 236l-305 64l83 253z" />
    <glyph glyph-name="ampersand_plus" unicode="&#x26;&#x2b;" horiz-adv-x="2048" 
d="M1880 492h-310v-330h-249v330h-312l-26 -84l192 -345v-63h-221l-87 158q-81 -177 -271 -177q-150 0 -248.5 122t-98.5 322q0 284 204 482l-37 66q-64 118 -64 214q0 159 95 260t230 101q252 0 330 -304l-226 -92q-31 167 -106 167q-36 0 -57 -38.5t-18 -102.5
q0 -77 56 -178l182 -327l15 48h468v330h249v-330h310v-229zM603 217q78 0 115 120l17 59l-161 292q-77 -93 -77 -263q0 -208 106 -208z" />
    <glyph glyph-name="ampersand_hyphen" unicode="&#x26;&#x2d;" horiz-adv-x="2048" 
d="M1880 492h-871l-26 -84l192 -345v-63h-221l-87 158q-81 -177 -271 -177q-150 0 -248.5 122t-98.5 322q0 284 204 482l-37 67q-64 117 -64 213q0 159 95 260t230 101q252 0 330 -304l-226 -92q-31 167 -106 167q-36 0 -57 -38.5t-21 -102.5q3 -77 59 -178l182 -327l15 48
h1027v-229zM603 217q78 0 115 120l17 59l-161 292q-77 -93 -77 -263q0 -208 106 -208z" />
    <glyph glyph-name="ampersand_slash" unicode="&#x26;&#x2f;" horiz-adv-x="2048" 
d="M931 408l149 -272l556 1390h253l-611 -1526h-376l-88 158q-80 -177 -270 -177q-150 0 -248.5 122t-98.5 322q0 284 204 482l-37 66q-65 118 -65 214q0 159 95.5 260t230.5 101q252 0 329 -304l-225 -92q-32 167 -106 167q-36 0 -57 -38.5t-18 -102.5q0 -77 56 -178
l181 -327l61 198h207v-62zM551 217q78 0 115 120l17 59l-161 292q-77 -93 -77 -263q0 -208 106 -208z" />
    <glyph glyph-name="ampersand_equal" unicode="&#x26;&#x3d;" horiz-adv-x="2048" 
d="M1864 709h-803l-93 -301l191 -345v-63h-220l-88 158q-83 -177 -269 -177q-151 0 -249.5 122t-98.5 322q0 284 204 482l-37 67q-65 117 -65 213q0 159 95 260t231 101q252 0 329 -306l-225 -90q-32 167 -106 167q-36 0 -57 -38.5t-21 -102.5q2 -77 58 -178l182 -327
l83 266h959v-230zM587 217q79 0 115 120l18 57l-162 294q-76 -93 -76 -263q0 -208 105 -208zM1864 275h-702v229h702v-229z" />
    <glyph glyph-name="ampersand_ampersand_amp" unicode="&#x26;&#x26;&#x26;" horiz-adv-x="3072" 
d="M2884 0h-220l-88 158q-80 -177 -390 -177q-385 0 -483 177q-80 -177 -388 -177q-388 0 -485 177q-78 -177 -273 -177q-147 0 -245.5 122t-98.5 322q0 284 203 482l-36 67q-65 117 -65 213q0 159 95 260t230 101q253 0 369 -306l-265 -90q-31 167 -105 167
q-36 0 -54.5 -38.5t-18.5 -102.5q0 -77 53 -178l385 -696q35 -64 122 -104q-40 66 -40 225q0 284 204 482l-37 67q-65 117 -65 213q0 159 95 260t232 101q251 0 328 -306l-225 -90q-32 167 -106 167q-36 0 -54.5 -38.5t-18.5 -102.5q0 -77 53 -178l385 -694q36 -66 123 -106
q-41 66 -41 225q0 284 204 482l-37 67q-65 117 -65 213q0 159 95.5 260t228.5 101q254 0 331 -306l-225 -90q-32 167 -106 167q-36 0 -55.5 -38.5t-19.5 -102.5q0 -77 56 -178l181 -327l61 198h207v-62l-122 -399l191 -347v-63zM2313 217q78 0 115 120l17 59l-161 292
q-79 -93 -79 -263q0 -119 27 -163.5t81 -44.5zM566 217q78 0 115 120l17 59l-161 292q-76 -93 -76 -263q0 -208 105 -208zM1439 217q79 0 115 120l18 59l-162 292q-76 -93 -76 -263q0 -119 28 -163.5t77 -44.5z" />
    <glyph glyph-name="asterisk_asterisk_asterisk" unicode="&#x2a;&#x2a;&#x2a;" horiz-adv-x="3072" 
d="M1435 1103l-32 308h266l-33 -308l288 125l82 -253l-304 -64l211 -236l-216 -157l-161 283l-161 -283l-216 157l211 236l-305 64l83 253zM2375 842l-32 308h266l-33 -308l288 125l82 -253l-304 -64l211 -236l-216 -157l-161 283l-161 -283l-216 157l211 236l-305 64
l83 253zM495 842l-32 308h266l-33 -308l288 125l82 -253l-304 -64l211 -236l-216 -157l-161 283l-161 -283l-216 157l211 236l-305 64l83 253z" />
    <glyph glyph-name="asterisk_equal" unicode="&#x2a;&#x3d;" horiz-adv-x="2048" 
d="M459 831l-32 308h266l-33 -308l288 125l82 -253l-304 -64l211 -236l-216 -157l-161 283l-161 -283l-216 157l211 236l-305 64l83 253zM1842.32 709h-783.021v230h783.021v-230zM1842.32 274h-783.021v230h783.021v-230z" />
    <glyph glyph-name="asterisk_slash" unicode="&#x2a;&#x2f;" horiz-adv-x="2048" 
d="M538 1035l-32 308h266l-33 -308l288 125l82 -253l-304 -64l211 -236l-216 -157l-161 283l-161 -283l-216 157l211 236l-305 64l83 253zM1858 1526l-659 -1526h-253l659 1526h253z" />
    <glyph glyph-name="asterisk_greater" unicode="&#x2a;&#x3e;" horiz-adv-x="2048" 
d="M1055 885v279l848 -471v-173l-848 -471v279l538 279zM144 768l156 215l237 -210l64 304l253 -82l-126 -288l309 33v-267l-309 32l126 -287l-253 -83l-64 305l-237 -210l-156 215l283 162z" />
    <glyph glyph-name="plus_plus" unicode="&#x2b;&#x2b;" horiz-adv-x="2048" 
d="M1874 492h-310v-330h-249v330h-582v-330h-249v330h-310v229h310v330h249v-330h582v330h249v-330h310v-229z" />
    <glyph glyph-name="plus_plus_plus" unicode="&#x2b;&#x2b;&#x2b;" horiz-adv-x="3072" 
d="M2869 492h-329v-330h-250v330h-629v-330h-250v330h-630v-330h-249v330h-329v229h329v330h249v-330h630v330h250v-330h629v330h250v-330h329v-229z" />
    <glyph glyph-name="plus_equal" unicode="&#x2b;&#x3d;" horiz-adv-x="2048" 
d="M937 492h-310v-330h-249v330h-310v229h310v330h249v-330h310v-229zM1893 707h-870v230h870v-230zM1893 272h-870v230h870v-230z" />
    <glyph glyph-name="plus_greater" unicode="&#x2b;&#x3e;" horiz-adv-x="2048" 
d="M135 721h310v330h250v-330h310v-229h-310v-330h-250v330h-310v229zM1045 884v279l848 -471v-173l-848 -471v279l538 279z" />
    <glyph glyph-name="hyphen_hyphen" unicode="&#x2d;&#x2d;" horiz-adv-x="2048" 
d="M1145 492q0 49 -36 84.5t-85 35.5t-85 -35.5t-36 -84.5h-710v229h1662v-229h-710z" />
    <glyph glyph-name="hyphen_less" unicode="&#x2d;&#x3c;" horiz-adv-x="2048" 
d="M1307 606l519 -269v-289l-802 444h-831v229h831l802 442v-289z" />
    <glyph glyph-name="hyphen_less_less" unicode="&#x2d;&#x3c;&#x3c;" horiz-adv-x="3072" 
d="M1423 606l519 -279v-279l-783 444h-966v229h966l783 442v-279zM2254 606l538 -279v-279l-928 514v87l928 514v-279z" />
    <glyph glyph-name="hyphen_equal" unicode="&#x2d;&#x3d;" horiz-adv-x="2048" 
d="M939 492h-852v229h852v-229zM1864 707h-849v230h849v-230zM1864 272h-849v230h849v-230z" />
    <glyph glyph-name="hyphen_greater" unicode="&#x2d;&#x3e;" horiz-adv-x="2048" 
d="M1079 721v442l849 -471v-173l-849 -471v444h-949v229h949zM1651 606l-442 231v-463z" />
    <glyph glyph-name="hyphen_greater_greater" unicode="&#x2d;&#x3e;&#x3e;" horiz-adv-x="3072" 
d="M2073 903v261l849 -471v-173l-849 -471v261l592 297zM1294 722v442l1006 -557l-1006 -558v444h-1134v229h1134zM1866 607l-442 231v-463z" />
    <glyph glyph-name="period_period" unicode="&#x2e;&#x2e;" horiz-adv-x="2048" 
d="M863 206q0 -107 -64.5 -166t-161.5 -59t-161 59t-64 166q0 106 63.5 165.5t161.5 59.5q97 0 161.5 -60t64.5 -165zM1636 206q0 -107 -64.5 -166t-161.5 -59t-161 59t-64 166q0 106 63.5 165.5t161.5 59.5q97 0 161.5 -60t64.5 -165z" />
    <glyph glyph-name="period_period_period" unicode="&#x2e;&#x2e;&#x2e;" horiz-adv-x="3072" 
d="M885 206q0 -107 -64.5 -166t-161.5 -59t-161 59t-64 166q0 106 63.5 165.5t161.5 59.5q97 0 161.5 -60t64.5 -165zM1761 206q0 -107 -64.5 -166t-161.5 -59t-161 59t-64 166q0 106 63.5 165.5t161.5 59.5q97 0 161.5 -60t64.5 -165zM2636 206q0 -107 -64.5 -166
t-161.5 -59t-161 59t-64 166q0 106 63.5 165.5t161.5 59.5q97 0 161.5 -60t64.5 -165z" />
    <glyph glyph-name="period_period_less" unicode="&#x2e;&#x2e;&#x3c;" horiz-adv-x="3072" 
d="M885 206q0 -107 -64.5 -166t-161.5 -59t-161 59t-64 166q0 106 63.5 165.5t161.5 59.5q97 0 161.5 -60t64.5 -165zM1722 206q0 -107 -64.5 -166t-161.5 -59t-161 59t-64 166q0 106 63.5 165.5t161.5 59.5q97 0 161.5 -60t64.5 -165zM2152 607l568 -279v-279l-848 451v213
l848 451v-279z" />
    <glyph glyph-name="slash_asterisk" unicode="&#x2f;&#x2a;" horiz-adv-x="2048" 
d="M1351 1035l-32 308h266l-33 -308l288 125l82 -253l-304 -64l211 -236l-216 -157l-161 283l-161 -283l-216 157l211 236l-305 64l83 253zM1045 1526l-659 -1526h-253l659 1526h253z" />
    <glyph glyph-name="slash_slash" unicode="&#x2f;&#x2f;" horiz-adv-x="2048" 
d="M1856 1526l-659 -1526h-253l659 1526h253zM1105 1526l-659 -1526h-253l659 1526h253z" />
    <glyph glyph-name="slash_greater" unicode="&#x2f;&#x3e;" horiz-adv-x="2048" 
d="M1038 1526l-659 -1526h-253l659 1526h253zM976 885v279l848 -451v-213l-848 -451v279l568 279z" />
    <glyph glyph-name="slash_equal" unicode="&#x2f;&#x3d;" horiz-adv-x="2048" 
d="M842 1526h253l-254 -587h880v-230h-979l-88 -205h1067v-230h-1166l-118 -274h-253z" />
    <glyph glyph-name="slash_equal_equal" unicode="&#x2f;&#x3d;&#x3d;" horiz-adv-x="3072" 
d="M437 0h-253l659 1526h253l-254 -587h1857v-230h-955q0 49 -36 84.5t-85 35.5t-85 -35.5t-36 -84.5h-759l-88 -205h847q0 -49 36 -84.5t85 -35.5t85 35.5t36 84.5h955v-230h-2143z" />
    <glyph glyph-name="colon_colon" unicode="&#x3a;&#x3a;" horiz-adv-x="2048" 
d="M1660 964q0 -107 -64.5 -166.5t-161.5 -59.5t-161 59.5t-64 166.5q0 106 63.5 165.5t161.5 59.5q97 0 161.5 -60t64.5 -165zM1660 206q0 -107 -64.5 -166t-161.5 -59t-161 59t-64 166q0 106 63.5 165.5t161.5 59.5q97 0 161.5 -60t64.5 -165zM836 964
q0 -107 -64.5 -166.5t-161.5 -59.5t-161 59.5t-64 166.5q0 106 63.5 165.5t161.5 59.5q97 0 161.5 -60t64.5 -165zM836 206q0 -107 -64.5 -166t-161.5 -59t-161 59t-64 166q0 106 63.5 165.5t161.5 59.5q97 0 161.5 -60t64.5 -165z" />
    <glyph glyph-name="colon_equal" unicode="&#x3a;&#x3d;" horiz-adv-x="2048" 
d="M1783 709h-870v230h870v-230zM1783 274h-870v230h870v-230zM692 289q0 -107 -65 -166t-161 -59q-97 0 -161 59t-64 166q0 106 64 165.5t161 59.5q96 0 161 -60t65 -165zM692 927q0 -107 -65 -166.5t-161 -59.5q-97 0 -161 59.5t-64 166.5t64 166t161 59q96 0 161 -59.5
t65 -165.5z" />
    <glyph glyph-name="less_dollar_greater" unicode="&#x3c;&#x24;&#x3e;" horiz-adv-x="3072" 
d="M2122 885v279l829 -471v-173l-829 -471v279l519 279zM431 607l519 -279v-279l-829 471v173l829 471v-279zM1948 325q0 -174 -97 -275.5t-200 -115.5v-287h-229v281q-196 31 -314 234l222 126q80 -135 196 -130q74 -1 114.5 38t40.5 109q0 75 -98 135l-212 130
q-215 130 -215 340q0 151 82.5 248.5t183.5 122.5v282h229v-278q153 -29 269 -188l-227 -129q-55 90 -136 90q-63 0 -98 -35t-35 -101q0 -81 89 -135l244 -149q191 -116 191 -313z" />
    <glyph glyph-name="less_asterisk" unicode="&#x3c;&#x2a;" horiz-adv-x="2048" 
d="M454 607l538 -279v-279l-848 471v173l848 471v-279zM1620 607l283 -162l-156 -215l-237 210l-64 -305l-253 83l126 287l-309 -32v267l309 -33l-126 288l253 82l64 -304l237 210l156 -215z" />
    <glyph glyph-name="less_asterisk_greater" unicode="&#x3c;&#x2a;&#x3e;" horiz-adv-x="3072" 
d="M1536 463l-161 -283l-216 156l211 237l-305 63l83 254l287 -126l-32 308h266l-33 -308l288 126l82 -254l-304 -63l211 -237l-216 -156zM484 607l538 -279v-279l-848 471v173l848 471v-279zM2050 885v279l848 -471v-173l-848 -471v279l538 279z" />
    <glyph glyph-name="less_plus_greater" unicode="&#x3c;&#x2b;&#x3e;" horiz-adv-x="3072" 
d="M1971 493h-310v-330h-250v330h-310v229h310v330h250v-330h310v-229zM484 607l538 -279v-279l-848 471v173l848 471v-279zM2050 885v279l848 -471v-173l-848 -471v279l538 279z" />
    <glyph glyph-name="less_hyphen" unicode="&#x3c;&#x2d;" horiz-adv-x="2048" 
d="M1918 721v-229h-949v-444l-849 471v173l849 471v-442h949zM839 374v463l-442 -231z" />
    <glyph glyph-name="less_less" unicode="&#x3c;&#x3c;" horiz-adv-x="2048" 
d="M454 607l568 -279v-279l-848 451v213l848 451v-279zM1248 607l568 -279v-279l-848 451v213l848 451v-279z" />
    <glyph glyph-name="less_less_less" unicode="&#x3c;&#x3c;&#x3c;" horiz-adv-x="3072" 
d="M512 607l568 -279v-279l-848 451v213l848 451v-279zM1372 607l568 -279v-279l-848 451v213l848 451v-279zM2234 607l568 -279v-279l-848 451v213l848 451v-279z" />
    <glyph glyph-name="less_less_equal" unicode="&#x3c;&#x3c;&#x3d;" horiz-adv-x="3072" 
d="M1724 708v170l-522 -271l522 -272v170h1078v-230h-1024v-226l-1006 558l1006 557v-226h1024v-230h-1078zM407 607l592 -297v-261l-849 471v173l849 471v-261z" />
    <glyph glyph-name="less_equal" unicode="&#x3c;&#x3d;" horiz-adv-x="2048" 
d="M1690 900l-917 -172l917 -158v-247l-1391 313v179l1391 333v-248zM1690 -100l-1391 317v224l1391 -317v-224z" />
    <glyph glyph-name="less_equal_greater" unicode="&#x3c;&#x3d;&#x3e;" horiz-adv-x="3072" 
d="M1022 275v-226l-849 471v173l849 471v-226h1031v226l849 -471v-173l-849 -471v226h-1031zM972 708v170l-522 -271l522 -272v170h1131v-170l522 272l-522 271v-170h-1131z" />
    <glyph glyph-name="less_greater" unicode="&#x3c;&#x3e;" horiz-adv-x="2048" 
d="M1872 693v-173l-848 -521l-848 521v173l848 521zM486 607l538 -319l538 319l-538 318z" />
    <glyph glyph-name="less_bar_greater" unicode="&#x3c;&#x7c;&#x3e;" horiz-adv-x="3072" 
d="M600 607l538 -279v-279l-848 471v173l848 471v-279zM1934 885v279l848 -471v-173l-848 -471v279l538 279zM1651 -362h-229v1997h229v-1997z" />
    <glyph glyph-name="less_less_hyphen" unicode="&#x3c;&#x3c;&#x2d;" horiz-adv-x="3072" 
d="M407 607l592 -297v-261l-849 471v173l849 471v-261zM2912 722v-229h-1134v-444l-1006 558l1006 557v-442h1134zM1648 355v503l-462 -251z" />
    <glyph glyph-name="less_bar" unicode="&#x3c;&#x7c;" horiz-adv-x="2048" 
d="M484 607l774 -539v-289l-1036 741v173l1036 741v-288zM1671 -350h-229v1913h229v-1913z" />
    <glyph glyph-name="less_equal_less" unicode="&#x3c;&#x3d;&#x3c;" horiz-adv-x="3072" 
d="M450 607l522 -272v170h1351q143 0 245 -66l214 -138v-252l-374 226h-1386v-226l-849 471v173l849 471v-226h1386l374 226v-252l-214 -138q-102 -66 -245 -66h-1351v170z" />
    <glyph glyph-name="less_asciitilde" unicode="&#x3c;&#x7e;" horiz-adv-x="2048" 
d="M969 49l-849 471v173l849 471v-543q15 6 28 22l61 82q78 100 210 100q133 0 210 -100l61 -82q20 -26 54 -26q33 0 53 26l61 82q78 100 211 100v-230q-36 0 -54 -25l-61 -83q-75 -100 -210 -100q-136 0 -210 100l-61 83q-19 25 -54 25q-34 0 -53 -25l-61 -83
q-67 -90 -185 -100v-338zM839 375v463l-442 -231z" />
    <glyph glyph-name="less_asciitilde_asciitilde" unicode="&#x3c;&#x7e;&#x7e;" horiz-adv-x="3072" 
d="M1009 826q116 -6 193 -110l49 -69q23 -29 60 -29q35 0 59 29l48 69q81 110 206 110t206 -110l49 -69q23 -29 60 -29t60 29l49 69q81 110 206 110q123 0 204 -110l49 -69q23 -29 60 -29t58 27l51 71q81 110 206 110v-230q-37 0 -60 -29l-49 -69q-81 -110 -206 -110
t-206 110l-49 69q-23 29 -58 29q-37 0 -60 -29l-49 -69q-81 -110 -206 -110t-206 110l-49 69q-23 29 -60 29t-60 -29l-49 -69q-81 -110 -204 -110q-125 0 -206 110l-49 69q-19 24 -47 28v-546l-849 471v173l849 471v-338zM437 606l442 -231v463z" />
    <glyph glyph-name="less_less_asciitilde" unicode="&#x3c;&#x3c;&#x7e;" horiz-adv-x="3072" 
d="M2892 595q-32 0 -49 -25l-55 -83q-67 -100 -189 -100t-189 100l-55 83q-17 25 -48 25t-48 -25l-55 -83q-67 -100 -190 -100q-122 0 -189 100l-17 25v-463l-1006 558l1006 557v-355q60 -24 103 -84l55 -82q18 -26 48 -26q31 0 49 26l55 82q70 100 189 100t189 -100l55 -82
q18 -26 48 -26t48 26l55 82q70 100 190 100v-230zM417 607l592 -297v-261l-849 471v173l849 471v-261zM1678 375v463l-445 -231z" />
    <glyph glyph-name="less_dollar" unicode="&#x3c;&#x24;" horiz-adv-x="2048" 
d="M383 607l518 -279v-279l-829 471v173l829 471v-279zM1900 325q0 -174 -97 -275.5t-200 -115.5v-287h-229v281q-196 31 -314 234l222 126q80 -135 196 -130q73 -1 114 38t41 109q0 75 -98 135l-213 130q-214 130 -214 340q0 151 81.5 251t184.5 120v282h229v-278
q153 -29 269 -188l-227 -129q-55 90 -136 90q-63 0 -98 -35t-35 -101q0 -81 88 -135l245 -149q191 -116 191 -313z" />
    <glyph glyph-name="less_plus" unicode="&#x3c;&#x2b;" horiz-adv-x="2048" 
d="M1913 493h-310v-330h-250v330h-310v229h310v330h250v-330h310v-229zM426 607l538 -279v-279l-848 471v173l848 471v-279z" />
    <glyph glyph-name="equal_less_less" unicode="&#x3d;&#x3c;&#x3c;" horiz-adv-x="3072" 
d="M2225 607l538 -279v-279l-924 514v87l924 514v-279zM290 938h1314l374 226v-252l-214 -138q-102 -66 -245 -66h-1229v230zM290 505h1229q143 0 245 -66l214 -138v-252l-374 226h-1314v230z" />
    <glyph glyph-name="equal_equal" unicode="&#x3d;&#x3d;" horiz-adv-x="2048" 
d="M1145 767q0 49 -36 84.5t-85 35.5t-85 -35.5t-36 -84.5h-620v231h1482v-231h-620zM1765 563v-230h-1482v230h620q0 -49 36 -84.5t85 -35.5t85 35.5t36 84.5h620z" />
    <glyph glyph-name="equal_equal_greater" unicode="&#x3d;&#x3d;&#x3e;" horiz-adv-x="3072" 
d="M2626 607l-522 271v-170h-769q0 49 -36 84.5t-85 35.5t-85 -35.5t-36 -84.5h-810v230h1771v226l848 -471v-173l-848 -471v226h-1771v230h810q0 -49 36 -84.5t85 -35.5t85 35.5t36 84.5h769v-170z" />
    <glyph glyph-name="equal_greater" unicode="&#x3d;&#x3e;" horiz-adv-x="2048" 
d="M1080 878v-170h-830v230h780v226l848 -471v-173l-848 -471v226h-780v230h830v-170l522 272z" />
    <glyph glyph-name="equal_asciitilde" unicode="&#x3d;&#x7e;" horiz-adv-x="2048" 
d="M184 505h784q45 453 285 453q171 0 233 -184l91 -275q10 -32 31 -32q75 0 82 472h223q-4 -684 -300 -684q-171 0 -233 184l-90 275q-11 32 -32 32q-75 0 -82 -472h-992v231zM184 939h659v-229h-659v229z" />
    <glyph glyph-name="equal_greater_greater" unicode="&#x3d;&#x3e;&#x3e;" horiz-adv-x="3072" 
d="M1344 708v170l526 -271l-526 -272v170h-1074v-230h1024v-226l1006 558l-1006 557v-226h-1024v-230h1074zM2665 607l-592 -297v-261l849 471v173l-849 471v-261z" />
    <glyph glyph-name="greater_hyphen" unicode="&#x3e;&#x2d;" horiz-adv-x="2048" 
d="M222 874v289l802 -442h831v-229h-831l-802 -444v289l519 269z" />
    <glyph glyph-name="greater_equal" unicode="&#x3e;&#x3d;" horiz-adv-x="2048" 
d="M357 1148l1391 -333v-179l-1391 -313v247l918 158l-918 172v248zM357 124l1391 317v-224l-1391 -317v224z" />
    <glyph glyph-name="greater_greater" unicode="&#x3e;&#x3e;" horiz-adv-x="2048" 
d="M232 885v279l848 -451v-213l-848 -451v279l568 279zM1026 885v279l848 -451v-213l-848 -451v279l568 279z" />
    <glyph glyph-name="greater_greater_hyphen" unicode="&#x3e;&#x3e;&#x2d;" horiz-adv-x="3072" 
d="M1130 884v279l783 -442h966v-229h-966l-783 -444v279l519 279zM280 884v279l927 -514v-87l-927 -514v279l538 279z" />
    <glyph glyph-name="greater_greater_equal" unicode="&#x3e;&#x3e;&#x3d;" horiz-adv-x="3072" 
d="M309 885v279l924 -514v-87l-924 -514v279l538 279zM2782 708h-1229q-143 0 -245 66l-214 138v252l374 -226h1314v-230zM2782 275h-1314l-374 -226v252l214 138q102 66 245 66h1229v-230z" />
    <glyph glyph-name="greater_greater_greater" unicode="&#x3e;&#x3e;&#x3e;" horiz-adv-x="3072" 
d="M270 885v279l848 -451v-213l-848 -451v279l568 279zM1130 885v279l848 -451v-213l-848 -451v279l568 279zM1992 885v279l848 -451v-213l-848 -451v279l568 279z" />
    <glyph glyph-name="greater_equal_greater" unicode="&#x3e;&#x3d;&#x3e;" horiz-adv-x="3072" 
d="M2100 878v-170h-1351q-143 0 -245 66l-214 138v252l374 -226h1386v226l849 -471v-173l-849 -471v226h-1386l-374 -226v252l214 138q102 66 245 66h1351v-170l522 272z" />
    <glyph glyph-name="question_question" unicode="&#x3f;&#x3f;" horiz-adv-x="2048" 
d="M977 1171q0 -115 -64 -211l-155 -227q-31 -45 -31 -109v-55h-268v56q0 113 68 214l140 204q42 65 42 138q0 66 -35 102t-89 36q-123 0 -200 -162l-202 138q141 253 403 253q173 0 282 -111t109 -266zM765 149q0 -74 -47.5 -121t-122.5 -47q-73 0 -120.5 47t-47.5 121
t47.5 121.5t120.5 47.5q75 0 122.5 -47.5t47.5 -121.5zM1865 1171q0 -115 -64 -211l-155 -227q-31 -45 -31 -109v-55h-268v56q0 113 68 214l140 204q42 65 42 138q0 66 -35 102t-89 36q-123 0 -200 -162l-202 138q141 253 403 253q173 0 282 -111t109 -266zM1653 149
q0 -74 -47.5 -121t-122.5 -47q-73 0 -120.5 47t-47.5 121t47.5 121.5t120.5 47.5q75 0 122.5 -47.5t47.5 -121.5z" />
    <glyph glyph-name="question_asciitilde" unicode="&#x3f;&#x7e;" horiz-adv-x="2048" 
d="M977 1171q0 -115 -64 -211l-155 -227q-31 -45 -31 -109v-55h-268v56q0 113 68 214l140 204q42 65 42 138q0 66 -35 102t-89 36q-123 0 -200 -162l-202 138q141 253 403 253q173 0 282 -111t109 -266zM765 149q0 -74 -47.5 -121t-122.5 -47q-73 0 -120.5 47t-47.5 121
t47.5 121.5t120.5 47.5q75 0 122.5 -47.5t47.5 -121.5zM1912 826q-14 -434 -290 -434q-122 0 -212 97l-86 93q-20 23 -46 23q-71 0 -71 -215h-222q14 434 290 434q121 0 212 -97l86 -93q20 -23 46 -23q71 0 71 215h222z" />
    <glyph glyph-name="question_equal" unicode="&#x3f;&#x3d;" horiz-adv-x="2048" 
d="M973 1171q0 -115 -64 -211l-155 -227q-31 -45 -31 -109v-55h-268v56q0 113 68 214l140 204q42 65 42 138q0 66 -35 102t-89 36q-123 0 -200 -162l-202 138q141 253 403 253q173 0 282 -111t109 -266zM761 149q0 -74 -47.5 -121t-122.5 -47q-73 0 -120.5 47t-47.5 121
t47.5 121.5t120.5 47.5q75 0 122.5 -47.5t47.5 -121.5zM1890 709h-870v230h870v-230zM1890 274h-870v230h870v-230z" />
    <glyph glyph-name="asciicircum_equal" unicode="^&#x3d;" horiz-adv-x="2048" 
d="M1056 563h779v-230h-966l-232 754l-233 -754h-271l366 1087h275zM1100 998h735v-230h-735v230z" />
    <glyph glyph-name="asciicircum_period" unicode="^&#x2e;" horiz-adv-x="2048" 
d="M1173 601h-259l-190 660l-197 -660h-251l321 925h253zM1761 206q0 -107 -64.5 -166t-161.5 -59t-161 59t-64 166q0 106 63.5 165.5t161.5 59.5q97 0 161.5 -60t64.5 -165z" />
    <glyph glyph-name="asciicircum_question" unicode="^&#x3f;" horiz-adv-x="2048" 
d="M1019 601h-259l-190 660l-197 -660h-251l321 925h253zM1885 1171q0 -115 -64 -211l-155 -227q-31 -45 -31 -109v-55h-268v56q0 113 68 214l140 204q42 65 42 138q0 66 -35 102t-89 36q-123 0 -200 -162l-202 138q141 253 403 253q173 0 282 -111t109 -266zM1673 149
q0 -74 -47.5 -121t-122.5 -47q-73 0 -120.5 47t-47.5 121t47.5 121.5t120.5 47.5q75 0 122.5 -47.5t47.5 -121.5z" />
    <glyph glyph-name="asciicircum_period_period" unicode="^&#x2e;&#x2e;" horiz-adv-x="3072" 
d="M1212 601h-259l-190 660l-197 -660h-251l321 925h253zM1809 206q0 -107 -64.5 -166t-161.5 -59t-161 59t-64 166q0 106 63.5 165.5t161.5 59.5q97 0 161.5 -60t64.5 -165zM2652 206q0 -107 -64.5 -166t-161.5 -59t-161 59t-64 166q0 106 63.5 165.5t161.5 59.5
q97 0 161.5 -60t64.5 -165z" />
    <glyph glyph-name="backslash_backslash" unicode="\\" horiz-adv-x="2048" 
d="M1865 0h-252l-660 1526h252zM1096 0h-252l-660 1526h252z" />
    <glyph glyph-name="bar_equal" unicode="&#x7c;&#x3d;" horiz-adv-x="2048" 
d="M625 -362h-229v2057h229v-2057zM1739 768h-871v230h871v-230zM1739 333h-871v230h871v-230z" />
    <glyph glyph-name="bar_bar" unicode="&#x7c;&#x7c;" horiz-adv-x="2048" 
d="M711 -362h-229v2057h229v-2057zM1566 -362h-229v2057h229v-2057z" />
    <glyph glyph-name="bar_greater" unicode="&#x7c;&#x3e;" horiz-adv-x="2048" 
d="M790 1146v288l1036 -741v-173l-1036 -741v289l774 539zM377 1563h229v-1913h-229v1913z" />
    <glyph glyph-name="bar_bar_bar" unicode="&#x7c;&#x7c;&#x7c;" horiz-adv-x="3072" 
d="M1650 -362h-229v2057h229v-2057zM751 -362h-229v2057h229v-2057zM2550 -362h-229v2057h229v-2057z" />
    <glyph glyph-name="asciitilde_equal" unicode="&#x7e;&#x3d;" horiz-adv-x="2048" 
d="M1864 709h-784q-45 -455 -285 -455q-171 0 -233 184l-91 275q-10 32 -31 32q-75 0 -83 -472h-222q4 684 300 684q171 0 233 -184l90 -275q11 -32 32 -32q75 0 82 472h992v-229zM1864 273h-659v229h659v-229z" />
    <glyph glyph-name="asciitilde_greater" unicode="&#x7e;&#x3e;" horiz-adv-x="2048" 
d="M1079 1165l849 -471v-173l-849 -471v543q-15 -6 -28 -22l-61 -82q-78 -100 -210 -100q-133 0 -210 100l-61 82q-20 26 -54 26q-33 0 -53 -26l-61 -82q-78 -100 -211 -100v230q36 0 54 25l61 83q75 100 210 100q136 0 210 -100l61 -83q19 -25 54 -25q34 0 53 25l61 83
q67 90 185 100v338zM1209 839v-463l442 231z" />
    <glyph glyph-name="asciitilde_asciitilde_greater" unicode="&#x7e;&#x7e;&#x3e;" horiz-adv-x="3072" 
d="M2063 49l849 471v173l-849 471v-546q-28 4 -47 28l-49 69q-81 110 -206 110q-123 0 -204 -110l-49 -69q-23 -29 -60 -29t-60 29l-49 69q-81 110 -206 110t-206 -110l-49 -69q-23 -29 -60 -29q-35 0 -58 29l-49 69q-81 110 -206 110t-206 -110l-49 -69q-23 -29 -60 -29
v-230q125 0 206 110l51 71q21 27 58 27t60 -29l49 -69q81 -110 204 -110q125 0 206 110l49 69q23 29 60 29t60 -29l49 -69q81 -110 206 -110t206 110l48 69q24 29 59 29q37 0 60 -29l49 -69q77 -104 193 -110v-338zM2193 375v463l442 -232z" />
    <glyph glyph-name="asciitilde_greater_greater" unicode="&#x7e;&#x3e;&#x3e;" horiz-adv-x="3072" 
d="M180 619q32 0 49 25l55 83q67 100 189 100t189 -100l55 -83q17 -25 48 -25t48 25l55 83q67 100 190 100q122 0 189 -100l17 -25v463l1006 -558l-1006 -557v355q-60 24 -103 84l-55 82q-18 26 -48 26q-31 0 -49 -26l-55 -82q-70 -100 -189 -100t-189 100l-55 82
q-18 26 -48 26t-48 -26l-55 -82q-70 -100 -190 -100v230zM2655 607l-592 297v261l849 -471v-173l-849 -471v261zM1394 839v-463l442 231z" />
    <glyph glyph-name="period_asciitilde" unicode="&#x2e;&#x7e;" horiz-adv-x="2048" 
d="M1791 826q-14 -434 -290 -434q-122 0 -212 97l-86 93q-20 23 -46 23q-71 0 -71 -215h-222q14 434 290 434q121 0 212 -97l86 -93q20 -23 46 -23q71 0 71 215h222zM695 206q0 -107 -64.5 -166t-161.5 -59t-161 59t-64 166q0 106 63.5 165.5t161.5 59.5q97 0 161.5 -60
t64.5 -165z" />
    <glyph glyph-name="period_equal" unicode="&#x2e;&#x3d;" horiz-adv-x="2048" 
d="M1773 709h-870v230h870v-230zM1773 274h-870v230h870v-230zM666 206q0 -107 -64.5 -166t-161.5 -59t-161 59t-64 166q0 106 63.5 165.5t161.5 59.5q97 0 161.5 -60t64.5 -165z" />
    <glyph glyph-name="dollar_greater" unicode="&#x24;&#x3e;" horiz-adv-x="2048" 
d="M1147 885v279l828 -471v-173l-828 -471v279l518 279zM973 325q0 -174 -97 -275.5t-201 -115.5v-287h-229v281q-196 31 -314 234l223 126q80 -135 196 -130q73 -1 113.5 38t40.5 109q0 75 -97 135l-213 130q-214 130 -214 340q0 151 82 248.5t183 122.5v282h229v-278
q154 -29 270 -188l-227 -129q-55 90 -136 90q-63 0 -98.5 -35t-35.5 -101q0 -81 89 -135l244 -149q192 -116 192 -313z" />
    <glyph glyph-name="slash_slash_slash" unicode="&#x2f;&#x2f;&#x2f;" horiz-adv-x="3072" 
d="M1993 1526l-659 -1526h-253l659 1526h253zM1163 1526l-659 -1526h-253l659 1526h253zM2822 1526l-659 -1526h-253l659 1526h253z" />
    <glyph glyph-name="hyphen_hyphen_hyphen" unicode="&#x2d;&#x2d;&#x2d;" horiz-adv-x="3072" 
d="M2103 492q0 49 -36 84.5t-85 35.5t-85 -35.5t-36 -84.5h-650q0 49 -36 84.5t-85 35.5t-85 -35.5t-36 -84.5h-685v229h2504v-229h-685z" />
    <glyph glyph-name="equal_equal_equal" unicode="&#x3d;&#x3d;&#x3d;" horiz-adv-x="3072" 
d="M2102 767q0 49 -36 84.5t-85 35.5t-85 -35.5t-36 -84.5h-650q0 49 -36 84.5t-85 35.5t-85 -35.5t-36 -84.5h-685v230h2504v-230h-685zM2787 563v-230h-2504v230h685q0 -49 36 -84.5t85 -35.5t85 35.5t36 84.5h650q0 -49 36 -84.5t85 -35.5t85 35.5t36 84.5h685z" />
    <glyph glyph-name="exclam_exclam_exclam" unicode="&#x21;&#x21;&#x21;" horiz-adv-x="3072" 
d="M733 569h-191l-59 550v407h308v-400zM807 149q0 -74 -48 -121t-122 -47q-73 0 -120.5 47t-47.5 121t47.5 121.5t120.5 47.5t121.5 -47.5t48.5 -121.5zM1632 569h-191l-59 550v407h308v-400zM1706 149q0 -74 -48 -121t-122 -47q-73 0 -120.5 47t-47.5 121t47.5 121.5
t120.5 47.5t121.5 -47.5t48.5 -121.5zM2530 569h-191l-59 550v407h308v-400zM2604 149q0 -74 -48 -121t-122 -47q-73 0 -120.5 47t-47.5 121t47.5 121.5t120.5 47.5t121.5 -47.5t48.5 -121.5z" />
    <glyph glyph-name="exclam_equivalence" unicode="&#x21;&#x2261;" horiz-adv-x="2048" 
d="M263 859v224h889l95 198h205l-95 -198h428v-224h-537l-67 -141h604v-224h-712l-68 -140h780v-224h-887l-96 -199h-205l96 199h-430v224h537l68 140h-605v224h713l68 141h-781z" />
    <glyph glyph-name="exclam_equivalence_equivalence" unicode="&#x21;&#x2261;&#x2261;" horiz-adv-x="3072" 
d="M366 859v224h804l95 198h205l-95 -198h1330v-224h-1439l-67 -141h1506v-224h-1614l-68 -140h1682v-224h-1789l-98 -199h-203l96 199h-345v224h452l68 140h-520v224h628l68 141h-696z" />
    <glyph glyph-name="exclam_greater" unicode="&#x21;&#x3e;" horiz-adv-x="2048" 
d="M949 885v279l848 -451v-213l-848 -451v279l568 279zM593 569h-191l-59 550v407h308v-400zM667 149q0 -74 -48 -121t-122 -47q-73 0 -120.5 47t-47.5 121t47.5 121.5t120.5 47.5t121.5 -47.5t48.5 -121.5z" />
    <glyph glyph-name="numbersign_question" unicode="&#x23;&#x3f;" horiz-adv-x="2048" 
d="M1945 1171q0 -115 -64 -211l-155 -227q-32 -45 -32 -108v-56h-267v56q0 113 68 214l140 204q42 65 42 138q0 66 -35 102t-89 36q-141 0 -178 -245l-24 -160h-371l-52 -302h136v-217h-174l-67 -395h-242l71 395h-154l-68 -395h-238l67 395h-120v217h158l52 302h-135v218
h173l68 394h238l-67 -394h153l68 394h238l-67 -394h146q39 216 141 316t249 100q172 0 281.5 -111t109.5 -266zM689 612l52 302h-153l-52 -302h153zM1733 149q0 -74 -47.5 -121t-122.5 -47q-73 0 -120.5 47t-47.5 121t47.5 121.5t120.5 47.5q75 0 122.5 -47.5t47.5 -121.5z
" />
    <glyph glyph-name="numbersign_greater" unicode="&#x23;&#x3e;" horiz-adv-x="2048" 
d="M1129 885v279l848 -451v-213l-848 -451v279l568 279zM981 394h-174l-67 -394h-239l68 394h-154l-68 -394h-238l67 394h-120v218h158l52 302h-135v218h173l68 394h238l-67 -394h153l68 394h238l-67 -394h121v-218h-159l-52 -302h136v-218zM606 612l52 302h-153l-52 -302
h153z" />
    <glyph glyph-name="ampersand_greater" unicode="&#x26;&#x3e;" horiz-adv-x="2048" 
d="M1114 885v279l848 -451v-213l-848 -451v279l568 279zM859 408l191 -345v-63h-220l-88 158q-80 -177 -271 -177q-150 0 -248.5 122t-98.5 323q0 283 204 481l-36 66q-65 118 -65 214q0 159 95 260t230 101q252 0 330 -304l-225 -92q-32 167 -107 167q-35 0 -55 -38.5
t-20 -102.5q0 -77 56 -178l182 -327l61 198h206v-62zM478 217q78 0 115 120l17 59l-161 292q-76 -93 -76 -263q0 -101 30.5 -154.5t74.5 -53.5z" />
    <glyph glyph-name="percent_greater" unicode="&#x25;&#x3e;" horiz-adv-x="2048" 
d="M1124 885v279l848 -451v-213l-848 -451v279l568 279zM971 1526l-611 -1526h-232l621 1526h222zM981 206q0 -98 -55.5 -161.5t-141.5 -63.5q-87 0 -142 63.5t-55 161.5q0 96 54.5 160.5t142.5 64.5q86 0 141.5 -65t55.5 -160zM511 1321q0 -98 -55 -162t-142 -64t-141.5 64
t-54.5 162q0 96 54 160.5t142 64.5q87 0 142 -65t55 -160z" />
    <glyph glyph-name="period_greater" unicode="&#x2e;&#x3e;" horiz-adv-x="2048" 
d="M939 885v279l848 -451v-213l-848 -451v279l568 279zM677 206q0 -107 -64.5 -166t-161.5 -59t-161 59t-64 166q0 106 63.5 165.5t161.5 59.5q97 0 161.5 -60t64.5 -165z" />
    <glyph glyph-name="less_exclam_greater" unicode="&#x3c;&#x21;&#x3e;" horiz-adv-x="3072" 
d="M550 607l568 -279v-279l-848 451v213l848 451v-279zM1954 885v279l848 -451v-213l-848 -451v279l568 279zM1632 419h-191l-59 550v391h308v-384zM1706 -1q0 -74 -48 -121t-122 -47q-73 0 -120.5 47t-47.5 121t47.5 121.5t120.5 47.5t121.5 -47.5t48.5 -121.5z" />
    <glyph glyph-name="less_at_greater" unicode="&#x3c;&#x40;&#x3e;" horiz-adv-x="3072" 
d="M424 607l535 -263v-275l-815 430v215l815 428v-274zM2113 868v274l815 -429v-213l-815 -431v275l535 263zM1540 1211q-138 0 -196.5 -102t-58.5 -323v-377q0 -203 82.5 -305t255.5 -102q195 0 343 152v-238q-142 -120 -346 -120q-235 0 -390 145.5t-155 467.5v377
q0 341 131 486.5t334 145.5q182 0 304 -124t122 -380v-403q0 -205 -83.5 -288.5t-201.5 -83.5q-117 0 -200 83.5t-83 288.5v129q0 362 244 362q65 0 114 -38v30q0 79 -54 148t-162 69zM1756 660q0 143 -75 143q-73 0 -73 -143v-199q0 -123 73 -123q75 0 75 123v199z" />
    <glyph glyph-name="less_numbersign_greater" unicode="&#x3c;&#x23;&#x3e;" horiz-adv-x="3072" 
d="M424 607l535 -263v-285l-815 440v215l815 438v-284zM2113 868v284l815 -439v-213l-815 -441v285l535 263zM1983 239h-201l-65 -383h-239l66 383h-154l-67 -383h-238l66 383h-93v218h131l52 302h-166v218h204l66 383h238l-65 -383h153l66 383h238l-65 -383h94v-218h-132
l-52 -302h163v-218zM1581 457l52 302h-153l-52 -302h153z" />
    <glyph glyph-name="less_percent_greater" unicode="&#x3c;&#x25;&#x3e;" horiz-adv-x="3072" 
d="M424 607l535 -263v-285l-815 440v215l815 438v-284zM2113 868v284l815 -439v-213l-815 -441v285l535 263zM1977 1360l-653 -1504h-252l663 1504h242zM1477 1155q0 -98 -55 -162t-142 -64t-141.5 64t-54.5 162q0 95 53.5 160t140.5 65t143 -65t56 -160zM1965 62
q0 -98 -55.5 -161.5t-141.5 -63.5q-87 0 -142 63.5t-55 161.5q0 96 54.5 160.5t142.5 64.5q86 0 141.5 -65t55.5 -160z" />
    <glyph glyph-name="less_asciicircum_greater" unicode="&#x3c;^&#x3e;" horiz-adv-x="3072" 
d="M1985 601h-259l-190 660l-197 -660h-251l321 925h253zM424 607l535 -263v-285l-815 440v215l815 438v-284zM2113 868v284l815 -438v-215l-815 -440v285l535 263z" />
    <glyph glyph-name="less_ampersand_greater" unicode="&#x3c;&#x26;&#x3e;" horiz-adv-x="3072" 
d="M424 607l535 -263v-285l-815 440v214l815 439v-284zM2113 868v284l815 -439v-213l-815 -441v285l535 263zM1844 264l191 -345v-63h-220l-88 158q-80 -177 -271 -177q-150 0 -248.5 122t-98.5 322q0 284 204 482l-36 67q-65 117 -65 213q0 149 95 245t230 96
q252 0 330 -304l-225 -92q-32 167 -107 167q-35 0 -55 -33.5t-20 -87.5q0 -77 56 -178l182 -327l61 198h206v-62zM1463 73q78 0 115 120l17 59l-161 292q-76 -93 -76 -263q0 -208 105 -208z" />
    <glyph glyph-name="less_question_greater" unicode="&#x3c;&#x3f;&#x3e;" horiz-adv-x="3072" 
d="M424 607l535 -263v-285l-815 440v215l815 438v-284zM2113 868v284l815 -439v-213l-815 -441v285l535 263zM1906 1007q0 -115 -64 -211l-154 -227q-32 -45 -32 -109v-55h-268v56q0 113 68 214l140 204q42 65 42 138q0 66 -35 102t-89 36q-123 0 -200 -162l-202 138
q141 253 407 253q169 0 278 -111t109 -266zM1694 4q0 -74 -47.5 -121t-122.5 -47q-73 0 -120.5 47t-47.5 121t47.5 121.5t120.5 47.5q75 0 122.5 -47.5t47.5 -121.5z" />
    <glyph glyph-name="less_period_greater" unicode="&#x3c;&#x2e;&#x3e;" horiz-adv-x="3072" 
d="M453 607l536 -263v-285l-815 441v213l815 439v-284zM2083 868v284l815 -439v-213l-815 -441v285l536 263zM1762 206q0 -107 -64.5 -166t-161.5 -59t-161 59t-64 166q0 106 64 165.5t161 59.5t161.5 -60t64.5 -165z" />
    <glyph glyph-name="less_slash_greater" unicode="&#x3c;&#x2f;&#x3e;" horiz-adv-x="3072" 
d="M424 607l535 -263v-285l-815 440v215l815 438v-284zM2113 868v284l815 -439v-213l-815 -441v285l535 263zM1997 1360l-680 -1504h-265l681 1504h264z" />
    <glyph glyph-name="less_backslash_greater" unicode="&#x3c;\&#x3e;" horiz-adv-x="3072" 
d="M2113 868v284l815 -439v-213l-815 -441v285l535 263zM424 607l535 -263v-285l-815 441v213l815 439v-284zM1339 1360l681 -1504h-265l-680 1504h264z" />
    <glyph glyph-name="less_quotedbl_greater" unicode="&#x3c;&#x22;&#x3e;" horiz-adv-x="3072" 
d="M424 607l535 -263v-285l-815 441v213l815 439v-284zM2113 868v284l815 -439v-213l-815 -441v285l535 263zM1895 954h-268v572h268v-572zM1442 954h-268v572h268v-572z" />
    <glyph glyph-name="less_colon_greater" unicode="&#x3c;&#x3a;&#x3e;" horiz-adv-x="3072" 
d="M453 607l536 -263v-285l-815 441v213l815 439v-284zM2083 868v284l815 -439v-213l-815 -441v285l536 263zM1762 206q0 -107 -64.5 -166t-161.5 -59t-161 59t-64 166q0 106 64 165.5t161 59.5t161.5 -60t64.5 -165zM1762 1008q0 -106 -64.5 -165.5t-161.5 -59.5t-161 59.5
t-64 165.5q0 108 64 166.5t161 58.5t161.5 -59t64.5 -166z" />
    <glyph glyph-name="less_asciitilde_greater" unicode="&#x3c;&#x7e;&#x3e;" horiz-adv-x="3072" 
d="M2053 1164l849 -471v-173l-849 -471v546q-46 1 -73 -32l-62 -75q-82 -101 -212 -101q-135 0 -213 100l-67 83q-20 25 -55 25q-34 0 -55 -25l-68 -83q-74 -90 -226 -100v-338l-849 471v173l849 471v-547q46 0 73 33l62 75q82 100 214 100q133 0 213 -100l66 -82
q19 -26 56 -26q32 0 53 26l68 83q74 90 226 99v339zM2645 607l-462 251v-503zM892 355v503l-462 -251z" />
    <glyph glyph-name="less_asterisk_asterisk_greater" unicode="&#x3c;&#x2a;&#x2a;&#x3e;" horiz-adv-x="4096" 
d="M2604 463l-160 -283l-216 156l211 237l-305 63l83 254l287 -126l-32 308h266l-33 -308l288 126l82 -254l-304 -63l211 -237l-216 -156zM484 607l538 -279v-279l-848 471v173l848 471v-279zM3134 885v279l848 -471v-173l-848 -471v279l538 279zM1551 463l-161 -283
l-216 156l211 237l-305 63l83 254l287 -126l-32 308h266l-33 -308l288 126l82 -254l-304 -63l211 -237l-216 -156z" />
    <glyph glyph-name="less_less_asciicircum" unicode="&#x3c;&#x3c;^" horiz-adv-x="3072" 
d="M2942 607h-282l-233 625l-232 -625h-283l388 919h255zM421 607l538 -279v-281l-818 452v215l818 452v-281zM1261 607l538 -279v-281l-818 453v213l818 453v-281z" />
    <glyph glyph-name="less_exclam" unicode="&#x3c;&#x21;" horiz-adv-x="2048" 
d="M531 607l568 -279v-279l-848 451v213l848 451v-279zM1646 569h-191l-59 550v407h308v-400zM1720 149q0 -74 -48 -121t-122 -47q-73 0 -120.5 47t-47.5 121t47.5 121.5t120.5 47.5t121.5 -47.5t48.5 -121.5z" />
    <glyph glyph-name="less_at" unicode="&#x3c;&#x40;" horiz-adv-x="2048" 
d="M351 607l568 -279v-279l-848 451v213l848 451v-279zM1479 1341q-138 0 -196.5 -102t-58.5 -323v-322q0 -203 82.5 -305t255.5 -102q195 0 343 152v-238q-142 -120 -346 -120q-235 0 -390 145.5t-155 467.5v322q0 341 131 486.5t334 145.5q182 0 304 -124t122 -380v-348
q0 -205 -83.5 -288.5t-201.5 -83.5q-117 0 -200 83.5t-83 288.5v16q0 362 244 362q65 0 114 -38v30q0 137 -54 206t-162 69zM1695 732q0 143 -75 143q-73 0 -73 -143v-86q0 -123 73 -123q75 0 75 123v86z" />
    <glyph glyph-name="less_numbersign" unicode="&#x3c;&#x23;" horiz-adv-x="2048" 
d="M351 607l568 -279v-279l-848 451v213l848 451v-279zM1883 394h-174l-67 -394h-239l68 394h-154l-68 -394h-238l67 394h-120v218h158l52 302h-135v218h173l68 394h238l-67 -394h153l68 394h238l-67 -394h121v-218h-159l-52 -302h136v-218zM1508 612l52 302h-153l-52 -302
h153z" />
    <glyph glyph-name="less_percent" unicode="&#x3c;&#x25;" horiz-adv-x="2048" 
d="M351 607l568 -279v-279l-848 451v213l848 451v-279zM1888 1526l-611 -1526h-232l621 1526h222zM1898 206q0 -98 -55.5 -161.5t-141.5 -63.5q-87 0 -142 63.5t-55 161.5q0 96 54.5 160.5t142.5 64.5q86 0 141.5 -65t55.5 -160zM1428 1321q0 -98 -55 -162t-142 -64
t-141.5 64t-54.5 162q0 96 54 160.5t142 64.5q87 0 142 -65t55 -160z" />
    <glyph glyph-name="less_asciicircum" unicode="&#x3c;^" horiz-adv-x="2048" 
d="M351 607l568 -279v-279l-848 451v213l848 451v-279zM1898 601h-259l-190 660l-197 -660h-251l321 925h253z" />
    <glyph glyph-name="less_ampersand" unicode="&#x3c;&#x26;" horiz-adv-x="2048" 
d="M351 607l568 -279v-279l-848 451v213l848 451v-279zM1771 408l191 -345v-63h-220l-88 158q-80 -177 -271 -177q-150 0 -248.5 122t-98.5 323q0 283 204 481l-36 66q-65 118 -65 214q0 159 95 260t230 101q252 0 330 -304l-225 -92q-32 167 -107 167q-35 0 -55 -38.5
t-20 -102.5q0 -77 56 -178l182 -327l61 198h206v-62zM1390 217q78 0 115 120l17 59l-161 292q-76 -93 -76 -263q0 -101 30.5 -154.5t74.5 -53.5z" />
    <glyph glyph-name="less_question" unicode="&#x3c;&#x3f;" horiz-adv-x="2048" 
d="M411 607l568 -279v-279l-848 451v213l848 451v-279zM1932 1171q0 -115 -64 -211l-155 -227q-31 -45 -31 -109v-55h-268v56q0 113 68 214l140 204q42 65 42 138q0 66 -35 102t-89 36q-123 0 -200 -162l-202 138q141 253 403 253q173 0 282 -111t109 -266zM1720 149
q0 -74 -47.5 -121t-122.5 -47q-73 0 -120.5 47t-47.5 121t47.5 121.5t120.5 47.5q75 0 122.5 -47.5t47.5 -121.5z" />
    <glyph glyph-name="less_period" unicode="&#x3c;&#x2e;" horiz-adv-x="2048" 
d="M531 607l568 -279v-279l-848 451v213l848 451v-279zM1836 206q0 -107 -64.5 -166t-161.5 -59t-161 59t-64 166q0 106 63.5 165.5t161.5 59.5q97 0 161.5 -60t64.5 -165z" />
    <glyph glyph-name="less_slash" unicode="&#x3c;&#x2f;" horiz-adv-x="2048" 
d="M371 607l568 -279v-279l-848 451v213l848 451v-279zM1946 1526l-659 -1526h-253l659 1526h253z" />
    <glyph glyph-name="less_backslash" unicode="&#x3c;\" horiz-adv-x="2048" 
d="M431 607l568 -279v-279l-848 451v213l848 451v-279zM1936 0h-252l-660 1526h252z" />
    <glyph glyph-name="less_quotedbl" unicode="&#x3c;&#x22;" horiz-adv-x="2048" 
d="M421 607l568 -279v-279l-848 451v213l848 451v-279zM1885 954h-268v572h268v-572zM1442 954h-268v572h268v-572z" />
    <glyph glyph-name="less_colon" unicode="&#x3c;&#x3a;" horiz-adv-x="2048" 
d="M521 607l568 -279v-279l-848 451v213l848 451v-279zM1826 994q0 -107 -64.5 -166.5t-161.5 -59.5t-161 59.5t-64 166.5q0 106 63.5 165.5t161.5 59.5q97 0 161.5 -60t64.5 -165zM1826 236q0 -107 -64.5 -166t-161.5 -59t-161 59t-64 166q0 106 63.5 165.5t161.5 59.5
q97 0 161.5 -60t64.5 -165z" />
    <glyph glyph-name="slash_asterisk_asterisk" unicode="&#x2f;&#x2a;&#x2a;" horiz-adv-x="3072" 
d="M1331 1035l-32 308h266l-33 -308l288 125l82 -253l-304 -64l211 -236l-216 -157l-161 283l-161 -283l-216 157l211 236l-305 64l83 253zM1035 1526l-659 -1526h-253l659 1526h253zM2341 1035l-32 308h266l-33 -308l288 125l82 -253l-304 -64l211 -236l-216 -157l-161 283
l-161 -283l-216 157l211 236l-305 64l83 253z" />
    <glyph glyph-name="colon_equivalence" unicode="&#x3a;&#x2261;" horiz-adv-x="2048" 
d="M692 289q0 -107 -65 -166t-161 -59q-97 0 -161 59t-64 166q0 106 64 165.5t161 59.5q96 0 161 -60t65 -165zM692 927q0 -107 -65 -166.5t-161 -59.5q-97 0 -161 59.5t-64 166.5t64 166t161 59q96 0 161 -59.5t65 -165.5zM1803 859h-871v224h871v-224zM1803 494h-871v224
h871v-224zM1803 130h-871v224h871v-224z" />
    <glyph glyph-name="colon_greater" unicode="&#x3a;&#x3e;" horiz-adv-x="2048" 
d="M959 885v279l848 -451v-213l-848 -451v279l568 279zM663 994q0 -107 -64.5 -166.5t-161.5 -59.5t-161 59.5t-64 166.5q0 106 63.5 165.5t161.5 59.5q97 0 161.5 -60t64.5 -165zM663 236q0 -107 -64.5 -166t-161.5 -59t-161 59t-64 166q0 106 63.5 165.5t161.5 59.5
q97 0 161.5 -60t64.5 -165z" />
    <glyph glyph-name="backslash_greater" unicode="\&#x3e;" horiz-adv-x="2048" 
d="M1034 885v279l848 -451v-213l-848 -451v279l568 279zM1019 0h-252l-660 1526h252z" />
    <glyph glyph-name="equivalence_equivalence" unicode="&#x2261;&#x2261;" horiz-adv-x="2048" 
d="M1145 859q0 49 -36 84.5t-85 35.5t-85 -35.5t-36 -84.5h-620v224h1482v-224h-620zM1765 354v-224h-1482v224h620q0 -49 36 -84.5t85 -35.5t85 35.5t36 84.5h620zM1765 718v-224h-1482v224h1482z" />
    <glyph glyph-name="equivalence_equivalence_equivalence" unicode="&#x2261;&#x2261;&#x2261;" horiz-adv-x="3072" 
d="M2083 859q0 49 -36 84.5t-85 35.5t-85 -35.5t-36 -84.5h-610q0 49 -36 84.5t-85 35.5t-85 -35.5t-36 -84.5h-695v224h2484v-224h-695zM2778 354v-224h-2484v224h695q0 -49 36 -84.5t85 -35.5t85 35.5t36 84.5h610q0 -49 36 -84.5t85 -35.5t85 35.5t36 84.5h695zM2778 718
v-224h-2484v224h2484z" />
    <glyph glyph-name="equivalence_colon_equivalence" unicode="&#x2261;&#x3a;&#x2261;" horiz-adv-x="3072" 
d="M1761 289q0 -107 -65 -166t-160 -59q-96 0 -161 59t-65 166t65 166t161 59q95 0 160 -59.5t65 -165.5zM1761 927q0 -107 -65 -166.5t-160 -59.5q-96 0 -161 59.5t-65 166.5q0 108 65 166.5t161 58.5q95 0 160 -59t65 -166zM2778 859h-806v224h806v-224zM2778 494h-806
v224h806v-224zM2778 130h-806v224h806v-224zM1100 859h-806v224h806v-224zM1100 494h-806v224h806v-224zM1100 130h-806v224h806v-224z" />
    <glyph glyph-name="greater_greater_asciicircum" unicode="&#x3e;&#x3e;^" horiz-adv-x="3072" 
d="M2952 607h-283l-232 625l-233 -625h-282l387 919h256zM180 885v281l818 -452v-215l-818 -452v281l538 279zM1020 885v281l818 -452v-215l-818 -452v281l538 279z" />
    <glyph glyph-name="question_greater" unicode="&#x3f;&#x3e;" horiz-adv-x="2048" 
d="M1049 885v279l848 -451v-213l-848 -451v279l568 279zM935 1171q0 -115 -64 -211l-155 -227q-31 -45 -31 -109v-55h-268v56q0 113 68 214l140 204q42 65 42 138q0 66 -35 102t-89 36q-123 0 -200 -162l-202 138q141 253 403 253q173 0 282 -111t109 -266zM723 149
q0 -74 -47.5 -121t-122.5 -47q-73 0 -120.5 47t-47.5 121t47.5 121.5t120.5 47.5q75 0 122.5 -47.5t47.5 -121.5z" />
    <glyph glyph-name="bar_plus_bar" unicode="&#x7c;&#x2b;&#x7c;" horiz-adv-x="3072" 
d="M769 -362h-229v2057h229v-2057zM2532 -362h-229v2057h229v-2057zM1971 492h-310v-330h-250v330h-310v229h310v330h250v-330h310v-229z" />
    <glyph glyph-name="at_greater" unicode="&#x40;&#x3e;" horiz-adv-x="2048" 
d="M1129 885v279l848 -451v-213l-848 -451v279l568 279zM608 1341q-138 0 -196.5 -102t-58.5 -323v-322q0 -203 82.5 -305t255.5 -102q195 0 343 152v-238q-142 -120 -346 -120q-235 0 -390 145.5t-155 467.5v322q0 341 131 486.5t334 145.5q182 0 304 -124t122 -380v-348
q0 -205 -83.5 -288.5t-201.5 -83.5q-117 0 -200 83.5t-83 288.5v16q0 362 244 362q65 0 114 -38v30q0 137 -54 206t-162 69zM824 732q0 143 -75 143q-73 0 -73 -143v-86q0 -123 73 -123q75 0 75 123v86z" />
    <glyph glyph-name="notexistentialexclam" unicode="&#x2204;&#x21;" 
d="M465 1622l-14 -96h67v-1526h-296l-17 -115h-146l17 115h-56v231h91l68 453h-106v230h140l57 382h-250v230h285l14 96h146zM325 231v453l-68 -453h68zM934 1132l-35 -640h-191l-35 640v394h261v-394zM973 149q0 -74 -48 -121t-122 -47q-73 0 -120.5 47t-47.5 121
t47.5 121.5t120.5 47.5t121.5 -47.5t48.5 -121.5z" />
    <glyph glyph-name="existentialexclam" unicode="&#x2203;&#x21;" 
d="M313 231v453h-240v230h240v382h-293v230h488v-1526h-488v231h293zM934 1132l-35 -640h-191l-35 640v394h261v-394zM973 149q0 -74 -48 -121t-122 -47q-73 0 -120.5 47t-47.5 121t47.5 121.5t120.5 47.5t121.5 -47.5t48.5 -121.5z" />
    <glyph glyph-name="asciicircum_less_less" unicode="^&#x3c;&#x3c;" horiz-adv-x="3072" 
d="M507 1526h256l387 -919h-282l-233 625l-232 -625h-283zM2354 607l538 -279v-281l-818 452v215l818 452v-281zM1514 607l538 -279v-281l-818 452v215l818 452v-281z" />
    <glyph glyph-name="asciicircum_greater_greater" unicode="^&#x3e;&#x3e;" horiz-adv-x="3072" 
d="M517 1526h255l388 -919h-283l-232 625l-233 -625h-282zM2113 885v281l818 -453v-213l-818 -453v281l538 279zM1273 885v281l818 -453v-213l-818 -453v281l538 279z" />
    <glyph glyph-name="asciicircum_greater" unicode="^&#x3e;" horiz-adv-x="2048" 
d="M1074 885v279l848 -451v-213l-848 -451v279l568 279zM1001 601h-259l-190 660l-197 -660h-251l321 925h253z" />
    <glyph glyph-name="quotedbl_greater" unicode="&#x22;&#x3e;" horiz-adv-x="2048" 
d="M1034 885v279l848 -451v-213l-848 -451v279l568 279zM868 954h-268v572h268v-572zM425 954h-268v572h268v-572z" />
    <glyph glyph-name="hyphen_hyphen_greater" unicode="&#x2d;&#x2d;&#x3e;" horiz-adv-x="3072" 
d="M242 492v229h1742v-229h-750q0 49 -36 84.5t-85 35.5t-85 -35.5t-36 -84.5h-750zM2023 907v257l849 -471v-173l-849 -471v258l572 300z" />
    <glyph glyph-name="colon_equal_greater" unicode="&#x3a;&#x3d;&#x3e;" horiz-adv-x="3072" 
d="M692 289q0 -107 -65 -166t-161 -59q-97 0 -161 59t-64 166q0 105 64 165t161 60q96 0 161 -60t65 -165zM692 915q0 -95 -65 -154.5t-161 -59.5q-97 0 -161 59.5t-64 166.5t64 166t161 59q96 0 161 -59.5t65 -177.5zM2113 878v-169h-1200v229h1150v226l848 -471v-173
l-848 -471v226h-1150v230h1200v-170l522 272z" />
    <glyph glyph-name="less_hyphen_greater" unicode="&#x3c;&#x2d;&#x3e;" horiz-adv-x="3072" 
d="M2103 721v442l849 -471v-173l-849 -471v444h-1134v-444l-849 471v173l849 471v-442h1134zM2675 606l-442 231v-463zM839 374v463l-442 -231z" />
    <glyph glyph-name="less_exclam_hyphen_hyphen" unicode="&#x3c;&#x21;&#x2d;&#x2d;" horiz-adv-x="4096" 
d="M547 607l572 -300v-258l-849 471v173l849 471v-257zM1710 976l-58 -557h-191l-59 550v391h308v-384zM1726 -1q0 -74 -48.5 -121t-121.5 -47t-120.5 47t-47.5 121t47.5 121.5t120.5 47.5t121.5 -47.5t48.5 -121.5zM3006 492q0 49 -36 84.5t-85 35.5t-85 -35.5t-36 -84.5
h-770v229h1782v-229h-770z" />
    <glyph glyph-name="less_hyphen_hyphen" unicode="&#x3c;&#x2d;&#x2d;" horiz-adv-x="3072" 
d="M2080 492q0 49 -36 84.5t-85 35.5t-85 -35.5t-36 -84.5h-750v229h1742v-229h-750zM477 607l572 -300v-258l-849 471v173l849 471v-257z" />
    <glyph glyph-name=".notdef" 
 />
    <glyph glyph-name="one" unicode="1" 
d="M495 0v1205l-278 -209l-114 203l421 327h239v-1526h-268z" />
    <glyph glyph-name="two" unicode="2" 
d="M909 0h-784v146q0 242 187 482l256 329q73 95 73 215q0 74 -35 110t-94 36q-125 0 -195 -161l-202 138q141 253 403 253q173 0 282 -101t109 -267q0 -176 -140 -356l-272 -350q-111 -139 -111 -244h523v-230z" />
    <glyph glyph-name="three" unicode="3" 
d="M941 450q0 -230 -119 -349.5t-324 -119.5q-262 0 -413 251l202 138q86 -159 210 -159q76 0 125.5 50t49.5 189q0 147 -54 196t-159 49h-75v229h75q94 0 138 54.5t44 154.5q0 86 -40 135.5t-113 49.5q-114 0 -181 -161l-202 138q141 253 403 253q185 0 293.5 -111
t108.5 -304q0 -229 -184 -324q215 -85 215 -359z" />
    <glyph glyph-name="four" unicode="4" 
d="M939 368h-79v-368h-269v368h-496v230l440 928h325v-928h79v-230zM591 598v591l-280 -591h280z" />
    <glyph glyph-name="five" unicode="5" 
d="M928 490q0 -260 -114 -384.5t-306 -124.5q-272 0 -393 251l202 138q67 -159 180 -159q73 0 118 59.5t45 219.5q0 126 -45 190.5t-177 64.5h-245v781h684v-230h-415v-321h45q205 0 313 -110.5t108 -374.5z" />
    <glyph glyph-name="six" unicode="6" 
d="M941 493q0 -273 -109 -392.5t-292 -119.5q-173 0 -287.5 115t-114.5 394v519q0 288 119 413.5t301 125.5q234 0 365 -209l-201 -138q-70 116 -162 116q-83 0 -118 -64.5t-35 -219.5v-161q83 102 204 102q139 0 234.5 -107t95.5 -374zM673 493q0 155 -35.5 203.5
t-96.5 48.5q-81 0 -134 -119v-210q0 -107 40 -156.5t94 -49.5t93 49.5t39 233.5z" />
    <glyph glyph-name="seven" unicode="7" 
d="M693 772q-144 -294 -153 -619l-5 -153h-266l4 165q11 356 184 702l121 242q49 98 49 187h-491v230h758v-128q0 -214 -114 -453z" />
    <glyph glyph-name="eight" unicode="8" 
d="M512 -19q-174 0 -302.5 110t-128.5 326q0 247 236 411q-195 136 -195 362q0 146 103.5 252t286.5 106t286.5 -106t103.5 -252q0 -226 -195 -362q236 -164 236 -411q0 -216 -128.5 -326t-302.5 -110zM512 1319q-65 0 -94 -40.5t-29 -98.5q0 -157 123 -228q123 71 123 228
q0 58 -29 98.5t-94 40.5zM512 701q-163 -78 -163 -284q0 -108 45 -158t118 -50t118 50t45 158q0 206 -163 284z" />
    <glyph glyph-name="nine" unicode="9" 
d="M83 1036q0 272 109 392t292 120q173 0 287.5 -115t114.5 -395v-518q0 -289 -119 -414t-301 -125q-234 0 -366 208l202 138q70 -115 162 -115q83 0 118 64t35 220v160q-83 -102 -204 -102q-139 0 -234.5 107t-95.5 375zM351 1036q0 -156 35.5 -204.5t96.5 -48.5
q81 0 134 119v210q0 107 -40 157t-94 50t-93 -50t-39 -233z" />
    <glyph glyph-name="colon" unicode=":" 
d="M737 964q0 -107 -64.5 -166.5t-161.5 -59.5t-161 59.5t-64 166.5q0 106 63.5 165.5t161.5 59.5q97 0 161.5 -60t64.5 -165zM737 206q0 -107 -64.5 -166t-161.5 -59t-161 59t-64 166q0 106 63.5 165.5t161.5 59.5q97 0 161.5 -60t64.5 -165z" />
    <glyph glyph-name="semicolon" unicode=";" 
d="M737 964q0 -107 -64.5 -166.5t-161.5 -59.5t-161 59.5t-64 166.5q0 106 63.5 165.5t161.5 59.5q97 0 161.5 -60t64.5 -165zM737 169q0 -204 -185 -522h-235q120 175 171 353q-80 3 -141 57.5t-61 150.5q0 106 61.5 165.5t153.5 59.5q111 0 173.5 -69.5t62.5 -194.5z" />
    <glyph glyph-name="less" unicode="&#x3c;" 
d="M349 607l568 -279v-279l-848 451v213l848 451v-279z" />
    <glyph glyph-name="equal" unicode="=" 
d="M947 709h-870v230h870v-230zM947 274h-870v230h870v-230z" />
    <glyph glyph-name="greater" unicode="&#x3e;" 
d="M107 885v279l848 -451v-213l-848 -451v279l568 279z" />
    <glyph glyph-name="question" unicode="?" 
d="M909 1171q0 -115 -64 -211l-155 -227q-31 -45 -31 -109v-55h-268v56q0 113 68 214l140 204q42 65 42 138q0 66 -35 102t-89 36q-123 0 -200 -162l-202 138q141 253 403 253q173 0 282 -111t109 -266zM697 149q0 -74 -47.5 -121t-122.5 -47q-73 0 -120.5 47t-47.5 121
t47.5 121.5t120.5 47.5q75 0 122.5 -47.5t47.5 -121.5z" />
    <glyph glyph-name="at" unicode="@" 
d="M541 1341q-138 0 -196.5 -102t-58.5 -323v-322q0 -203 82.5 -305t255.5 -102q195 0 343 152v-238q-142 -120 -346 -120q-235 0 -390 145.5t-155 467.5v322q0 341 131 486.5t334 145.5q182 0 304 -124t122 -380v-348q0 -205 -83.5 -288.5t-201.5 -83.5q-117 0 -200 83.5
t-83 288.5v16q0 362 244 362q65 0 114 -38v30q0 137 -54 206t-162 69zM757 732q0 143 -75 143q-73 0 -73 -143v-86q0 -123 73 -123q75 0 75 123v86z" />
    <glyph glyph-name="A" unicode="A" 
d="M347 85v-85h-267v85q0 220 76 554l202 887h308l201 -887q77 -334 77 -554v-85h-267v85q0 118 -16 251h-298q-16 -133 -16 -251zM512 1126l-110 -561h220z" />
    <glyph glyph-name="B" unicode="B" 
d="M943 464q0 -253 -109.5 -358.5t-283.5 -105.5h-393v1526h352q195 0 293.5 -105t98.5 -282q0 -127 -56 -207t-132 -102q124 -44 177 -124.5t53 -241.5zM633 1139q0 88 -35 123.5t-110 35.5h-62v-365h71q65 0 100.5 45.5t35.5 160.5zM674 464q0 150 -39.5 195.5
t-113.5 45.5h-95v-476h103q65 0 105 40t40 195z" />
    <glyph glyph-name="C" unicode="C" 
d="M967 212q-142 -231 -384 -231q-180 0 -296 116t-116 405v524q0 290 116 406t296 116q242 0 384 -231l-202 -138q-71 130 -182 130q-66 0 -104.5 -48.5t-38.5 -199.5v-594q0 -151 38.5 -200t104.5 -49q111 0 182 132z" />
    <glyph glyph-name="D" unicode="D" 
d="M897 510q0 -289 -108.5 -399.5t-313.5 -110.5h-348v1526h348q205 0 313.5 -110.5t108.5 -398.5v-507zM629 486v555q0 147 -44 196.5t-130 49.5h-61v-1047h61q86 0 130 49.5t44 196.5z" />
    <glyph glyph-name="E" unicode="E" 
d="M931 0h-771v1526h762v-230h-493v-382h353v-230h-353v-454h502v-230z" />
    <glyph glyph-name="F" unicode="F" 
d="M931 1296h-502v-382h394v-230h-394v-684h-269v1526h771v-230z" />
    <glyph glyph-name="G" unicode="G" 
d="M903 490q0 -289 -109 -399t-282 -110t-282 110t-109 399v547q0 289 109 400t282 111q240 0 372 -209l-202 -138q-62 108 -162 108q-65 0 -98.5 -55t-33.5 -189v-610q0 -127 26 -182t99 -55t97.5 54.5t24.5 182.5v181h-92v229h360v-375z" />
    <glyph glyph-name="H" unicode="H" 
d="M902 0h-268v705h-245v-705h-268v1526h268v-591h245v591h268v-1526z" />
    <glyph glyph-name="I" unicode="I" 
d="M846 0h-668v220h200v1086h-159v220h586v-220h-159v-1086h200v-220z" />
    <glyph glyph-name="J" unicode="J" 
d="M853 469q0 -268 -109 -378t-282 -110t-282 110t-109 378v213h268v-218q0 -137 29 -196t93 -59t93.5 59.5t29.5 195.5v1062h269v-1057z" />
    <glyph glyph-name="K" unicode="K" 
d="M404 1526v-636l136 200q100 147 125 367l7 69h267l-18 -154q-22 -193 -154 -390l-71 -103l94 -159q138 -235 168 -491l27 -229h-276l-20 170q-33 281 -132 447l-47 79l-106 -157v-539h-269v1526h269z" />
    <glyph glyph-name="L" unicode="L" 
d="M953 0h-761v1526h269v-1296h492v-230z" />
    <glyph glyph-name="M" unicode="M" 
d="M512 1017l154 509h246v-1526h-246v239q0 400 77 1061l-178 -585h-106l-178 585q77 -661 77 -1061v-239h-246v1526h246z" />
    <glyph glyph-name="O" unicode="O" 
d="M906 490q0 -287 -106.5 -398t-287.5 -111t-287.5 111t-106.5 398v548q0 288 106.5 399t287.5 111t287.5 -111t106.5 -399v-548zM638 457v613q0 152 -31.5 195t-95.5 43q-62 0 -93.5 -43t-31.5 -195v-613q0 -151 31.5 -194t95.5 -43q62 0 93.5 43t31.5 194z" />
    <glyph glyph-name="P" unicode="P" 
d="M964 1070q0 -166 -109 -276.5t-283 -110.5h-122v-683h-268v1526h390q194 0 293 -110.5t99 -275.5v-70zM696 1079v52q0 67 -30.5 117t-114.5 50h-101v-386h101q74 0 109.5 45.5t35.5 121.5z" />
    <glyph glyph-name="Q" unicode="Q" 
d="M906 490q0 -367 -185 -458l116 -292h-278l-96 244q-140 4 -242.5 112.5t-102.5 395.5v546q0 289 106.5 399.5t287.5 110.5t287.5 -110.5t106.5 -399.5v-548zM638 457v613q0 152 -31.5 195t-95.5 43q-62 0 -93.5 -43t-31.5 -195v-613q0 -151 31.5 -194t95.5 -43
q62 0 93.5 43t31.5 194z" />
    <glyph glyph-name="R" unicode="R" 
d="M957 0h-272l-9 132q-22 341 -160 531h-96v-663h-268v1526h391q183 0 282 -105t99 -331q0 -271 -174 -373q177 -242 198 -550zM655 1090q0 108 -29.5 158t-113.5 50h-92v-407h92q84 0 113.5 50t29.5 149z" />
    <glyph glyph-name="S" unicode="S" 
d="M947 385q0 -174 -108.5 -289t-322.5 -115q-258 0 -410 241l202 138q91 -142 217 -142q73 0 113.5 38.5t40.5 108.5q0 75 -70 146l-313 313q-141 139 -141 318q0 184 105.5 295t284.5 111q232 0 374 -199l-202 -139q-80 99 -162 99q-62 0 -97.5 -35t-35.5 -110
q0 -71 73 -142l290 -290q162 -150 162 -347z" />
    <glyph glyph-name="T" unicode="T" 
d="M931 1296h-285v-1296h-268v1296h-285v230h838v-230z" />
    <glyph glyph-name="U" unicode="U" 
d="M903 448q0 -245 -107.5 -356t-283.5 -111t-283.5 111t-107.5 356v1078h268v-1100q0 -120 30 -163t92 -43q61 0 92.5 43t31.5 163v1100h268v-1078z" />
    <glyph glyph-name="V" unicode="V" 
d="M634 938q53 246 53 503v85h266v-85q0 -266 -75 -553l-232 -888h-268l-232 888q-75 287 -75 553v85h266v-85q0 -257 53 -503l122 -559z" />
    <glyph glyph-name="W" unicode="W" 
d="M566 883l127 -614v1257h249v-368q0 -366 -48 -706l-64 -452h-210l-108 514l-108 -514h-210l-64 452q-48 340 -48 706v368h249v-1257l127 614h108z" />
    <glyph glyph-name="X" unicode="X" 
d="M425 332q-72 -144 -80 -279l-3 -53h-267l4 68q9 128 102 314l197 391l-164 327q-107 209 -115 359l-4 67h266l3 -53q10 -158 80 -299l68 -135l68 135q70 141 80 299l3 53h266l-4 -67q-8 -150 -115 -359l-165 -326l198 -392q93 -186 102 -314l4 -68h-267l-3 53
q-8 135 -80 279l-87 174z" />
    <glyph glyph-name="Y" unicode="Y" 
d="M512 901l71 141q74 144 87 414l2 70h267l-2 -70q-14 -277 -142 -529l-149 -290v-637h-268v637l-149 290q-129 252 -142 529l-2 70h267l2 -70q13 -270 86 -414z" />
    <glyph glyph-name="Z" unicode="Z" 
d="M885 1526v-145q0 -235 -108 -428l-278 -485q-65 -119 -65 -238h461v-230h-727v145q0 236 108 428l278 486q65 119 65 237h-441v230h707z" />
    <glyph glyph-name="bracketleft" unicode="[" 
d="M844 -132h-636v1790h636v-221h-387v-1349h387v-220z" />
    <glyph glyph-name="backslash" unicode="\" 
d="M968 0h-252l-660 1526h252z" />
    <glyph glyph-name="bracketright" unicode="]" 
d="M180 88h387v1349h-387v221h636v-1790h-636v220z" />
    <glyph glyph-name="asciicircum" unicode="^" 
d="M960 601h-259l-190 660l-197 -660h-251l321 925h253z" />
    <glyph glyph-name="underscore" unicode="_" 
d="M1025 -230h-1026v230h1026v-230z" />
    <glyph glyph-name="grave" unicode="`" 
d="M771 954h-219l-280 572h287z" />
    <glyph glyph-name="a" unicode="a" 
d="M893 0h-269v130q-77 -149 -223 -149q-119 0 -204.5 95t-85.5 239q0 170 107 270t313 100h93v122q0 116 -124 116q-120 0 -179 -127l-193 157q142 200 373 200q183 0 287.5 -93t104.5 -275v-785zM624 348v166h-93q-78 0 -115.5 -42.5t-37.5 -117.5q0 -135 114 -135
q119 0 132 129z" />
    <glyph glyph-name="b" unicode="b" 
d="M923 458q0 -260 -78 -368.5t-204 -108.5q-144 0 -231 146v-127h-269v1526h269v-524q87 147 231 147q126 0 204 -109t78 -370v-212zM655 496v137q0 158 -31.5 221t-90.5 63q-90 0 -123 -128v-450q34 -128 123 -128q59 0 90.5 64t31.5 221z" />
    <glyph glyph-name="c" unicode="c" 
d="M929 188q-130 -207 -372 -207q-183 0 -292.5 119.5t-109.5 359.5v213q0 240 109.5 360t292.5 120q242 0 372 -209l-202 -138q-68 117 -170 117q-74 0 -103.5 -55t-29.5 -190v-233q0 -117 29.5 -176t103.5 -59q92 0 151 126z" />
    <glyph glyph-name="d" unicode="d" 
d="M884 0h-269v127q-88 -146 -212 -146q-145 0 -223.5 108.5t-78.5 368.5v212q0 261 78.5 370t223.5 109q124 0 212 -147v524h269v-1526zM615 339v450q-33 128 -123 128q-59 0 -90.5 -63t-31.5 -221v-137q0 -159 31.5 -222t90.5 -63q89 0 123 128z" />
    <glyph glyph-name="e" unicode="e" 
d="M902 532h-514v-125q0 -98 30.5 -147t104.5 -49q107 0 171 106l201 -138q-130 -198 -383 -198q-174 0 -283 110t-109 369v213q0 259 109 369.5t283 110.5q173 0 281.5 -110t108.5 -370v-141zM636 704v42q0 96 -30 146.5t-94 50.5t-94.5 -50.5t-30.5 -146.5v-42h249z" />
    <glyph glyph-name="f" unicode="f" 
d="M758 1271q-33 55 -90 55q-42 0 -67.5 -31.5t-25.5 -106.5v-119h340v-220h-340v-849h-270v849h-171v220h171v123q0 174 95 264.5t244 90.5q200 0 316 -138z" />
    <glyph glyph-name="g" unicode="g" 
d="M936 939h-59l-45 10q29 -55 29 -132q0 -131 -95.5 -218t-269.5 -87q-37 0 -76 1q-54 -54 -54 -103q0 -36 32 -53t92 -17h74q192 0 287 -95t95 -242q0 -164 -125.5 -264.5t-341.5 -100.5q-207 0 -304 98t-97 225q0 155 163 248q-117 64 -117 175q0 102 136 183
q-139 82 -139 258q0 149 99 236t277 87q42 0 99 -9q75 -7 340 -7v-193zM603 836q0 71 -29.5 104t-80.5 33q-52 0 -82.5 -33t-30.5 -107q0 -82 30.5 -114t81.5 -32q53 0 82 32t29 117zM677 -7q0 65 -35 100.5t-101 35.5h-45q-70 0 -110 -39t-40 -106q0 -59 35 -98t116 -39
q180 0 180 146z" />
    <glyph glyph-name="h" unicode="h" 
d="M903 0h-268v713q0 127 -31.5 165.5t-90.5 38.5q-100 0 -124 -137v-780h-268v1526h268v-524q88 147 232 147q126 0 204 -94t78 -332v-723z" />
    <glyph glyph-name="i" unicode="i" 
d="M660 1496q0 -73 -49 -122t-131 -49t-130.5 49t-48.5 122q0 74 48.5 123t130.5 49t131 -49t49 -123zM849 0h-675v220h204v692h-175v220h443v-912h203v-220z" />
    <glyph glyph-name="j" unicode="j" 
d="M762 1496q0 -73 -48.5 -122t-131.5 -49q-82 0 -130 49t-48 122q0 74 48 123t130 49q83 0 131.5 -49t48.5 -123zM479 25v887h-256v220h524v-1101q0 -203 -90 -298t-269 -95q-219 0 -338 178l203 116q38 -64 124 -64q47 0 74.5 34t27.5 123z" />
    <glyph glyph-name="k" unicode="k" 
d="M966 0h-267q-7 125 -185 408l-26 37l-79 -96v-349h-267v1526h267v-841l99 125q154 189 161 322h267l-2 -37q-9 -151 -224 -414l-52 -64l52 -78q246 -353 253 -499z" />
    <glyph glyph-name="l" unicode="l" 
d="M860 0h-676v220h204v1086h-166v220h435v-1306h203v-220z" />
    <glyph glyph-name="m" unicode="m" 
d="M926 0h-187v768q-3 155 -57 155q-50 0 -76 -103v-820h-188v768q-2 155 -56 155q-55 0 -77 -103v-820h-187v1132h187v-111q56 132 167 132q96 0 135 -125q64 125 156 125q183 0 183 -310v-843z" />
    <glyph glyph-name="n" unicode="n" 
d="M903 0h-268v724q0 116 -31.5 154.5t-90.5 38.5q-100 0 -124 -137v-780h-268v1132h268v-130q88 147 232 147q126 0 204 -94t78 -331v-724z" />
    <glyph glyph-name="o" unicode="o" 
d="M902 459q0 -259 -108.5 -368.5t-281.5 -109.5t-282 109.5t-109 368.5v214q0 260 109 370t282 110t281.5 -110t108.5 -370v-214zM634 456v214q0 154 -29 203.5t-93 49.5t-93.5 -49.5t-29.5 -203.5v-214q0 -146 29.5 -195.5t93.5 -49.5t93 49.5t29 195.5z" />
    <glyph glyph-name="p" unicode="p" 
d="M140 1132h269v-126q88 145 231 145q126 0 204.5 -108.5t78.5 -368.5v-212q0 -261 -78.5 -369.5t-204.5 -108.5q-143 0 -231 146v-483h-269v1485zM409 343q33 -128 123 -128q59 0 90.5 63t31.5 221v138q0 158 -31.5 221.5t-90.5 63.5q-89 0 -123 -129v-450z" />
    <glyph glyph-name="q" unicode="q" 
d="M884 -353h-269v483q-88 -146 -231 -146q-126 0 -204.5 108.5t-78.5 369.5v212q0 260 78.5 368.5t204.5 108.5q143 0 231 -145v126h269v-1485zM615 793q-34 129 -123 129q-59 0 -90.5 -63.5t-31.5 -221.5v-138q0 -158 31.5 -221t90.5 -63q90 0 123 128v450z" />
    <glyph glyph-name="r" unicode="r" 
d="M985 941l-255 -116q-37 92 -104 92q-143 0 -143 -238v-679h-269v1132h269v-130q91 151 241 151q160 0 261 -212z" />
    <glyph glyph-name="s" unicode="s" 
d="M925 315q0 -145 -99.5 -239.5t-301.5 -94.5q-255 0 -406 231l184 126q78 -138 214 -138q141 0 141 117q0 64 -79 102l-171 83q-222 111 -222 310q0 159 99.5 250t271.5 91q223 0 364 -209l-187 -128q-62 117 -167 117q-51 0 -82.5 -27.5t-31.5 -75.5q0 -74 87 -116
l144 -71q242 -118 242 -328z" />
    <glyph glyph-name="t" unicode="t" 
d="M952 149q-129 -168 -318 -168q-191 0 -280.5 94.5t-89.5 288.5v548h-151v220h151v394h268v-394h343v-220h-343v-567q0 -73 25 -103.5t77 -30.5q61 0 116 76z" />
    <glyph glyph-name="u" unicode="u" 
d="M903 0h-268v130q-88 -146 -232 -146q-126 0 -204 93.5t-78 330.5v724h268v-724q0 -116 31.5 -154.5t90.5 -38.5q100 0 124 138v779h268v-1132z" />
    <glyph glyph-name="w" unicode="w" 
d="M700 192v940h261v-150q0 -213 -64 -521l-95 -461h-187l-103 575l-103 -575h-187l-95 461q-64 308 -64 521v150h261v-940l93 520h190z" />
    <glyph glyph-name="z" unicode="z" 
d="M904 0h-746v182q0 169 139 335l194 230q85 102 85 155h-408v230h707v-154q0 -144 -117 -295l-204 -263q-95 -122 -95 -190h445v-230z" />
    <glyph glyph-name="braceleft" unicode="{" 
d="M871 -132h-120q-176 0 -273.5 97t-97.5 263v191q0 134 -59 184t-142 50h-27v220h26q83 0 142.5 50.5t59.5 182.5v190q0 167 97.5 264.5t273.5 97.5h120v-221h-81q-66 0 -114 -38t-48 -124v-169q0 -255 -206 -343q206 -88 206 -341v-172q0 -86 48 -124t114 -38h81v-220z
" />
    <glyph glyph-name="bar" unicode="|" 
d="M626 -362h-229v2246h229v-2246z" />
    <glyph glyph-name="braceright" unicode="}" 
d="M871 653h-27q-83 0 -142 -50t-59 -184v-191q0 -166 -97.5 -263t-273.5 -97h-120v220h81q66 0 114 38t48 124v172q0 253 206 341q-206 88 -206 343v169q0 86 -48 124t-114 38h-81v221h120q176 0 273.5 -97.5t97.5 -264.5v-190q0 -132 59.5 -182.5t142.5 -50.5h26v-220z
" />
    <glyph glyph-name="asciitilde" unicode="~" 
d="M975 826q-14 -434 -290 -434q-122 0 -212 97l-86 93q-20 23 -46 23q-71 0 -71 -215h-222q14 434 290 434q121 0 212 -97l86 -93q20 -23 46 -23q71 0 71 215h222z" />
    <glyph glyph-name="Adieresis" unicode="&#xc4;" 
d="M329 1642q-54 0 -89.5 35.5t-35.5 85.5t35.5 85t89.5 35q55 0 90.5 -35t35.5 -85t-35.5 -85.5t-90.5 -35.5zM694 1642q-55 0 -90.5 35.5t-35.5 85.5t35.5 85t90.5 35q54 0 89.5 -35t35.5 -85t-35.5 -85.5t-89.5 -35.5zM347 85v-85h-267v85q0 220 76 554l182 800h347
l182 -800q77 -334 77 -554v-85h-267v85q0 118 -14 251h-303q-13 -133 -13 -251zM512 1215l-118 -650h236z" />
    <glyph glyph-name="Aring" unicode="&#xc5;" 
d="M767 1648q0 -98 -69 -167.5t-187 -69.5t-186.5 69.5t-68.5 167.5q0 99 68.5 167.5t186.5 68.5t187 -68.5t69 -167.5zM609 1648q0 45 -26.5 71t-71.5 26q-44 0 -70.5 -26t-26.5 -71q0 -44 26.5 -70.5t70.5 -26.5t71 27t27 70zM347 85v-85h-267v85q0 220 76 554l174 762
h364l173 -762q77 -334 77 -554v-85h-267v85q0 118 -14 251h-303q-13 -133 -13 -251zM512 1215l-118 -650h236z" />
    <glyph glyph-name="Ccedilla" unicode="&#xc7;" 
d="M905 212q-142 -231 -384 -231q-180 0 -296 116t-116 405v524q0 290 116 406t296 116q242 0 384 -231l-202 -138q-71 130 -182 130q-66 0 -104.5 -48.5t-38.5 -199.5v-594q0 -151 38.5 -200t104.5 -49q111 0 182 132zM327 -233q142 -9 142 45q0 51 -79 44l48 96
q237 -8 237 -139q0 -80 -64.5 -127.5t-283.5 -47.5v129z" />
    <glyph glyph-name="Eacute" unicode="&#xc9;" 
d="M542 1883h270l-228 -236h-216zM912 0h-761v1439h761v-230h-493v-339h354v-230h-354v-410h493v-230z" />
    <glyph glyph-name="Ntilde" unicode="&#xd1;" 
d="M875 1795q-111 -207 -235 -207q-48 0 -129.5 56.5t-118.5 56.5q-62 0 -122 -113l-122 89q111 207 235 207q48 0 129.5 -56.5t118.5 -56.5q62 0 122 113zM883 0h-255l-301 947q31 -319 31 -679v-268h-218v1439h257l299 -946q-31 318 -31 679v267h218v-1439z" />
    <glyph glyph-name="Odieresis" unicode="&#xd6;" 
d="M329 1642q-54 0 -89.5 35.5t-35.5 85.5t35.5 85t89.5 35q55 0 90.5 -35t35.5 -85t-35.5 -85.5t-90.5 -35.5zM694 1642q-55 0 -90.5 35.5t-35.5 85.5t35.5 85t90.5 35q54 0 89.5 -35t35.5 -85t-35.5 -85.5t-89.5 -35.5zM906 490q0 -289 -109 -399t-285 -110t-285 110
t-109 399v459q0 288 109 399t285 111t285 -111t109 -399v-459zM638 457v524q0 128 -25.5 183t-101.5 55t-100.5 -54.5t-24.5 -183.5v-524q0 -127 25.5 -182t101.5 -55t100.5 54.5t24.5 182.5z" />
    <glyph glyph-name="Udieresis" unicode="&#xdc;" 
d="M330 1642q-54 0 -89.5 35.5t-35.5 85.5t35.5 85t89.5 35q55 0 90.5 -35t35.5 -85t-35.5 -85.5t-90.5 -35.5zM695 1642q-55 0 -90.5 35.5t-35.5 85.5t35.5 85t90.5 35q54 0 89.5 -35t35.5 -85t-35.5 -85.5t-89.5 -35.5zM903 448q0 -247 -109 -357t-282 -110t-282 110
t-109 357v991h268v-1023q0 -105 28.5 -155t93.5 -50q64 0 94 50t30 155v1023h268v-991z" />
    <glyph glyph-name="aacute" unicode="&#xe1;" 
d="M882 0h-269v130q-77 -149 -223 -149q-119 0 -204.5 95t-85.5 239q0 170 107 270t313 100h93v122q0 116 -124 116q-120 0 -179 -127l-193 157q142 200 373 200q183 0 287.5 -93t104.5 -275v-785zM613 348v166h-93q-78 0 -115.5 -42.5t-37.5 -117.5q0 -135 114 -135
q119 0 132 129zM571 1526h270l-228 -236h-216z" />
    <glyph glyph-name="agrave" unicode="&#xe0;" 
d="M882 0h-269v130q-77 -149 -223 -149q-119 0 -204.5 95t-85.5 239q0 170 107 270t313 100h93v122q0 116 -124 116q-120 0 -179 -127l-193 157q142 200 373 200q183 0 287.5 -93t104.5 -275v-785zM613 348v166h-93q-78 0 -115.5 -42.5t-37.5 -117.5q0 -135 114 -135
q119 0 132 129zM647 1290h-216l-228 236h270z" />
    <glyph glyph-name="acircumflex" unicode="&#xe2;" 
d="M880 0h-269v130q-77 -149 -223 -149q-119 0 -204.5 95t-85.5 239q0 170 107 270t313 100h93v122q0 116 -124 116q-120 0 -179 -127l-193 157q142 200 373 200q183 0 287.5 -93t104.5 -275v-785zM611 348v166h-93q-78 0 -115.5 -42.5t-37.5 -117.5q0 -135 114 -135
q119 0 132 129zM844 1290h-218l-132 146l-133 -146h-218l138 236h425z" />
    <glyph glyph-name="adieresis" unicode="&#xe4;" 
d="M882 0h-269v130q-77 -149 -223 -149q-119 0 -204.5 95t-85.5 239q0 170 107 270t313 100h93v122q0 116 -124 116q-120 0 -179 -127l-193 157q142 200 373 200q183 0 287.5 -93t104.5 -275v-785zM613 348v166h-93q-78 0 -115.5 -42.5t-37.5 -117.5q0 -135 114 -135
q119 0 132 129zM345 1285q-54 0 -89.5 35.5t-35.5 85.5t35.5 85t89.5 35q55 0 90.5 -35t35.5 -85t-35.5 -85.5t-90.5 -35.5zM710 1285q-55 0 -90.5 35.5t-35.5 85.5t35.5 85t90.5 35q54 0 89.5 -35t35.5 -85t-35.5 -85.5t-89.5 -35.5z" />
    <glyph glyph-name="atilde" unicode="&#xe3;" 
d="M882 0h-269v130q-77 -149 -223 -149q-119 0 -204.5 95t-85.5 239q0 170 107 270t313 100h93v122q0 116 -124 116q-120 0 -179 -127l-193 157q142 200 373 200q183 0 287.5 -93t104.5 -275v-785zM613 348v166h-93q-78 0 -115.5 -42.5t-37.5 -117.5q0 -135 114 -135
q119 0 132 129zM891 1457q-111 -207 -235 -207q-48 0 -129.5 56.5t-118.5 56.5q-62 0 -122 -113l-122 89q111 207 235 207q48 0 129.5 -56.5t118.5 -56.5q62 0 122 113z" />
    <glyph glyph-name="aring" unicode="&#xe5;" 
d="M882 0h-269v130q-77 -149 -223 -149q-119 0 -204.5 95t-85.5 239q0 170 107 270t313 100h93v122q0 116 -124 116q-120 0 -179 -127l-193 157q142 200 373 200q183 0 287.5 -93t104.5 -275v-785zM613 348v166h-93q-78 0 -115.5 -42.5t-37.5 -117.5q0 -135 114 -135
q119 0 132 129zM783 1447q0 -98 -69 -167.5t-187 -69.5t-186.5 69.5t-68.5 167.5q0 99 68.5 167.5t186.5 68.5t187 -68.5t69 -167.5zM625 1447q0 45 -26.5 71t-71.5 26q-44 0 -70.5 -26t-26.5 -71q0 -44 26.5 -70.5t70.5 -26.5t71 27t27 70z" />
    <glyph glyph-name="ccedilla" unicode="&#xe7;" 
d="M910 188q-130 -207 -372 -207q-183 0 -292.5 119.5t-109.5 359.5v213q0 240 109.5 360t292.5 120q242 0 372 -209l-202 -138q-68 117 -170 117q-74 0 -103.5 -55t-29.5 -190v-233q0 -117 29.5 -176t103.5 -59q92 0 151 126zM327 -233q142 -9 142 45q0 51 -79 44l48 96
q237 -8 237 -139q0 -80 -64.5 -127.5t-283.5 -47.5v129z" />
    <glyph glyph-name="eacute" unicode="&#xe9;" 
d="M902 532h-514v-125q0 -98 30.5 -147t104.5 -49q107 0 171 106l201 -138q-130 -198 -383 -198q-174 0 -283 110t-109 369v213q0 259 109 369.5t283 110.5q173 0 281.5 -110t108.5 -370v-141zM636 704v42q0 96 -30 146.5t-94 50.5t-94.5 -50.5t-30.5 -146.5v-42h249z
M555 1526h270l-228 -236h-216z" />
    <glyph glyph-name="egrave" unicode="&#xe8;" 
d="M902 532h-514v-125q0 -98 30.5 -147t104.5 -49q107 0 171 106l201 -138q-130 -198 -383 -198q-174 0 -283 110t-109 369v213q0 259 109 369.5t283 110.5q173 0 281.5 -110t108.5 -370v-141zM636 704v42q0 96 -30 146.5t-94 50.5t-94.5 -50.5t-30.5 -146.5v-42h249z
M631 1290h-216l-228 236h270z" />
    <glyph glyph-name="ecircumflex" unicode="&#xea;" 
d="M902 532h-514v-125q0 -98 30.5 -147t104.5 -49q107 0 171 106l201 -138q-130 -198 -383 -198q-174 0 -283 110t-109 369v213q0 259 109 369.5t283 110.5q173 0 281.5 -110t108.5 -370v-141zM636 704v42q0 96 -30 146.5t-94 50.5t-94.5 -50.5t-30.5 -146.5v-42h249z
M862 1290h-218l-132 146l-133 -146h-218l138 236h425z" />
    <glyph glyph-name="edieresis" unicode="&#xeb;" 
d="M902 532h-514v-125q0 -98 30.5 -147t104.5 -49q107 0 171 106l201 -138q-130 -198 -383 -198q-174 0 -283 110t-109 369v213q0 259 109 369.5t283 110.5q173 0 281.5 -110t108.5 -370v-141zM636 704v42q0 96 -30 146.5t-94 50.5t-94.5 -50.5t-30.5 -146.5v-42h249z
M329 1285q-54 0 -89.5 35.5t-35.5 85.5t35.5 85t89.5 35q55 0 90.5 -35t35.5 -85t-35.5 -85.5t-90.5 -35.5zM694 1285q-55 0 -90.5 35.5t-35.5 85.5t35.5 85t90.5 35q54 0 89.5 -35t35.5 -85t-35.5 -85.5t-89.5 -35.5z" />
    <glyph glyph-name="iacute" unicode="&#xed;" 
d="M845 0h-675v220h204v692h-175v220h443v-912h203v-220zM633 1526h270l-228 -236h-216z" />
    <glyph glyph-name="igrave" unicode="&#xec;" 
d="M849 0h-675v220h204v692h-175v220h443v-912h203v-220zM610 1290h-216l-228 236h270z" />
    <glyph glyph-name="icircumflex" unicode="&#xee;" 
d="M861 0h-675v220h204v692h-175v220h443v-912h203v-220zM832 1290h-218l-132 146l-133 -146h-218l138 236h425z" />
    <glyph glyph-name="idieresis" unicode="&#xef;" 
d="M853 0h-675v220h204v692h-175v220h443v-912h203v-220zM302 1285q-54 0 -89.5 35.5t-35.5 85.5t35.5 85t89.5 35q55 0 90.5 -35t35.5 -85t-35.5 -85.5t-90.5 -35.5zM667 1285q-55 0 -90.5 35.5t-35.5 85.5t35.5 85t90.5 35q54 0 89.5 -35t35.5 -85t-35.5 -85.5
t-89.5 -35.5z" />
    <glyph glyph-name="ntilde" unicode="&#xf1;" 
d="M903 0h-268v724q0 116 -31.5 154.5t-90.5 38.5q-100 0 -124 -137v-780h-268v1132h268v-130q88 147 232 147q126 0 204 -94t78 -331v-724zM875 1457q-111 -207 -235 -207q-48 0 -129.5 56.5t-118.5 56.5q-62 0 -122 -113l-122 89q111 207 235 207q48 0 129.5 -56.5
t118.5 -56.5q62 0 122 113z" />
    <glyph glyph-name="oacute" unicode="&#xf3;" 
d="M902 459q0 -259 -108.5 -368.5t-281.5 -109.5t-282 109.5t-109 368.5v214q0 260 109 370t282 110t281.5 -110t108.5 -370v-214zM634 456v214q0 154 -29 203.5t-93 49.5t-93.5 -49.5t-29.5 -203.5v-214q0 -146 29.5 -195.5t93.5 -49.5t93 49.5t29 195.5zM555 1526h270
l-228 -236h-216z" />
    <glyph glyph-name="ograve" unicode="&#xf2;" 
d="M902 459q0 -259 -108.5 -368.5t-281.5 -109.5t-282 109.5t-109 368.5v214q0 260 109 370t282 110t281.5 -110t108.5 -370v-214zM634 456v214q0 154 -29 203.5t-93 49.5t-93.5 -49.5t-29.5 -203.5v-214q0 -146 29.5 -195.5t93.5 -49.5t93 49.5t29 195.5zM631 1290h-216
l-228 236h270z" />
    <glyph glyph-name="ocircumflex" unicode="&#xf4;" 
d="M903 459q0 -259 -108.5 -368.5t-281.5 -109.5t-282 109.5t-109 368.5v214q0 260 109 370t282 110t281.5 -110t108.5 -370v-214zM635 456v214q0 154 -29 203.5t-93 49.5t-93.5 -49.5t-29.5 -203.5v-214q0 -146 29.5 -195.5t93.5 -49.5t93 49.5t29 195.5zM863 1290h-218
l-132 146l-133 -146h-218l138 236h425z" />
    <glyph glyph-name="odieresis" unicode="&#xf6;" 
d="M902 459q0 -259 -108.5 -368.5t-281.5 -109.5t-282 109.5t-109 368.5v214q0 260 109 370t282 110t281.5 -110t108.5 -370v-214zM634 456v214q0 154 -29 203.5t-93 49.5t-93.5 -49.5t-29.5 -203.5v-214q0 -146 29.5 -195.5t93.5 -49.5t93 49.5t29 195.5zM329 1285
q-54 0 -89.5 35.5t-35.5 85.5t35.5 85t89.5 35q55 0 90.5 -35t35.5 -85t-35.5 -85.5t-90.5 -35.5zM694 1285q-55 0 -90.5 35.5t-35.5 85.5t35.5 85t90.5 35q54 0 89.5 -35t35.5 -85t-35.5 -85.5t-89.5 -35.5z" />
    <glyph glyph-name="otilde" unicode="&#xf5;" 
d="M902 459q0 -259 -108.5 -368.5t-281.5 -109.5t-282 109.5t-109 368.5v214q0 260 109 370t282 110t281.5 -110t108.5 -370v-214zM634 456v214q0 154 -29 203.5t-93 49.5t-93.5 -49.5t-29.5 -203.5v-214q0 -146 29.5 -195.5t93.5 -49.5t93 49.5t29 195.5zM875 1457
q-111 -207 -235 -207q-48 0 -129.5 56.5t-118.5 56.5q-62 0 -122 -113l-122 89q111 207 235 207q48 0 129.5 -56.5t118.5 -56.5q62 0 122 113z" />
    <glyph glyph-name="uacute" unicode="&#xfa;" 
d="M903 0h-268v130q-88 -146 -232 -146q-126 0 -204 93.5t-78 330.5v724h268v-724q0 -116 31.5 -154.5t90.5 -38.5q100 0 124 138v779h268v-1132zM555 1526h270l-228 -236h-216z" />
    <glyph glyph-name="ugrave" unicode="&#xf9;" 
d="M903 0h-268v130q-88 -146 -232 -146q-126 0 -204 93.5t-78 330.5v724h268v-724q0 -116 31.5 -154.5t90.5 -38.5q100 0 124 138v779h268v-1132zM631 1290h-216l-228 236h270z" />
    <glyph glyph-name="ucircumflex" unicode="&#xfb;" 
d="M903 0h-268v130q-88 -146 -232 -146q-126 0 -204 93.5t-78 330.5v724h268v-724q0 -116 31.5 -154.5t90.5 -38.5q100 0 124 138v779h268v-1132zM862 1290h-218l-132 146l-133 -146h-218l138 236h425z" />
    <glyph glyph-name="udieresis" unicode="&#xfc;" 
d="M903 0h-268v130q-88 -146 -232 -146q-126 0 -204 93.5t-78 330.5v724h268v-724q0 -116 31.5 -154.5t90.5 -38.5q100 0 124 138v779h268v-1132zM330 1285q-54 0 -89.5 35.5t-35.5 85.5t35.5 85t89.5 35q55 0 90.5 -35t35.5 -85t-35.5 -85.5t-90.5 -35.5zM695 1285
q-55 0 -90.5 35.5t-35.5 85.5t35.5 85t90.5 35q54 0 89.5 -35t35.5 -85t-35.5 -85.5t-89.5 -35.5z" />
    <glyph glyph-name="dagger" unicode="&#x2020;" 
d="M976 926h-340v-926h-248v926h-341v227h341v373h248v-373h340v-227z" />
    <glyph glyph-name="degree" unicode="&#xb0;" 
d="M862 1198q0 -143 -94.5 -247t-256.5 -104t-256 104t-94 247t94 246.5t256 103.5t256.5 -103.5t94.5 -246.5zM653 1198q0 63 -36.5 107t-105.5 44q-68 0 -104.5 -44t-36.5 -107q0 -64 36.5 -108t104.5 -44t105 44.5t37 107.5z" />
    <glyph glyph-name="cent" unicode="&#xa2;" 
d="M929 188q-111 -167 -265 -195v-198h-220v199q-111 22 -200 132t-89 334v213q0 214 83 327.5t206 139.5v198h220v-195q158 -34 265 -199l-202 -138q-68 117 -170 117q-74 0 -103.5 -55t-29.5 -180v-243q0 -117 29.5 -176t103.5 -59q92 0 151 126z" />
    <glyph glyph-name="sterling" unicode="&#xa3;" 
d="M946 0h-870v230q198 14 174 317l-11 137h-163v230h137l-11 175q-15 217 95 338t281 121q242 0 374 -209l-202 -138q-70 117 -162 117q-53 0 -88.5 -39t-26.5 -183l12 -182h222v-230h-197l9 -131q14 -236 -129 -323h556v-230z" />
    <glyph glyph-name="section" unicode="&#xa7;" 
d="M891 43q0 -175 -108.5 -290t-322.5 -115q-239 0 -390 241l201 138q91 -142 198 -142q73 0 113.5 38.5t40.5 108.5q0 76 -70 146l-270 269q-141 139 -141 279q0 181 102 256q-51 84 -51 170q0 184 106 295t284 111q213 0 345 -199l-202 -139q-60 99 -132 99q-63 0 -98 -35
t-35 -110q0 -71 72 -142l248 -247q162 -151 162 -308q0 -165 -105 -247q53 -88 53 -177zM656 392q19 41 19 89q0 70 -70 140l-177 184q-18 -41 -18 -96q0 -71 72 -142z" />
    <glyph glyph-name="bullet" unicode="&#x2022;" 
d="M896 822q0 -187 -103.5 -286t-281.5 -99t-281 99t-103 286t103 286t281 99t281.5 -99t103.5 -286z" />
    <glyph glyph-name="paragraph" unicode="&#xb6;" 
d="M939 0h-177v1526h177v-1526zM652 0h-177v644h-37q-154 0 -253.5 111t-99.5 285v90q0 175 99.5 285.5t253.5 110.5h214v-1526z" />
    <glyph glyph-name="germandbls" unicode="&#xdf;" 
d="M942 351q0 -168 -99.5 -262t-301.5 -94h-47v229h36q145 0 145 127q0 78 -103 219.5t-103 256.5q0 100 59 191t59 176q0 52 -23 88t-72 36q-58 0 -81 -55t-23 -149v-1114h-267v1101q0 223 99.5 334t272.5 111q153 0 257.5 -101t104.5 -251q0 -106 -59.5 -201.5
t-59.5 -165.5q0 -74 103 -206.5t103 -269.5z" />
    <glyph glyph-name="registered" unicode="&#xae;" 
d="M661 889q0 -163 -143 -236l143 -307h-213l-119 279h-56v-279h-200v828h266q175 0 248.5 -79t73.5 -206zM461 898q0 57 -28.5 81.5t-83.5 24.5h-76v-220h76q55 0 83.5 24.5t28.5 89.5zM783 497v535q0 182 -101.5 264.5t-226.5 82.5q-214 0 -382 -137v173q162 133 385 133
q235 0 380 -145.5t145 -390.5v-496q0 -245 -145 -390t-380 -145q-223 0 -385 132v173q168 -137 382 -137q125 0 226.5 82.5t101.5 265.5z" />
    <glyph glyph-name="copyright" unicode="&#xa9;" 
d="M661 639q0 -146 -83 -229.5t-210 -83.5t-211 83.5t-84 229.5v241q0 147 84 230.5t211 83.5t210 -83.5t83 -230.5v-34h-200v45q0 56 -19 94.5t-74 38.5q-56 0 -75.5 -38.5t-19.5 -94.5v-262q0 -56 19.5 -94.5t75.5 -38.5q55 0 74 38.5t19 94.5v39h200v-29zM783 497v535
q0 182 -101.5 264.5t-226.5 82.5q-214 0 -382 -137v173q162 133 385 133q235 0 380 -145.5t145 -390.5v-496q0 -245 -145 -390t-380 -145q-223 0 -385 132v173q168 -137 382 -137q125 0 226.5 82.5t101.5 265.5z" />
    <glyph glyph-name="trademark" unicode="&#x2122;" 
d="M979 686h-164v190l39 406l-94 -292h-66l-95 292l39 -406v-190h-164v840h164l88 -284l89 284h164v-840zM422 1382h-97v-696h-183v696h-97v144h377v-144z" />
    <glyph glyph-name="acute" unicode="&#xb4;" 
d="M463 1526h270l-228 -236h-216z" />
    <glyph glyph-name="dieresis" unicode="&#xa8;" 
d="M329 1285q-54 0 -89.5 35.5t-35.5 85.5t35.5 85t89.5 35q55 0 90.5 -35t35.5 -85t-35.5 -85.5t-90.5 -35.5zM694 1285q-55 0 -90.5 35.5t-35.5 85.5t35.5 85t90.5 35q54 0 89.5 -35t35.5 -85t-35.5 -85.5t-89.5 -35.5z" />
    <glyph glyph-name="notequal" unicode="&#x2260;" 
d="M927 331h-430l-105 -252h-223l104 252h-177v230h273l85 205h-358v230h453l105 257h222l-105 -257h156v-230h-252l-84 -205h336v-230z" />
    <glyph glyph-name="AE" unicode="&#xc6;" 
d="M956 0h-489v451h-153v-451h-247v550l249 976h640v-228h-242v-385h203v-229h-203v-455h242v-229zM467 680v586l-115 -586h115z" />
    <glyph glyph-name="Oslash" unicode="&#xd8;" 
d="M202 -152l46 223q-130 101 -130 419v547q0 289 109 400t285 111q59 0 110 -13l34 159l165 -36l-43 -202q128 -110 128 -419v-547q0 -289 -109 -399t-285 -110q-57 0 -107 11l-37 -180zM511 1308q-76 0 -110 -54.5t-34 -183.5v-705l205 930q-24 13 -61 13zM657 457v698
l-204 -923q24 -12 60 -12q76 0 110 54.5t34 182.5z" />
    <glyph glyph-name="plusminus" unicode="&#xb1;" 
d="M947 220h-870v229h870v-229zM947 848h-310v-300h-250v300h-310v230h310v300h250v-300h310v-230z" />
    <glyph glyph-name="lessequal" unicode="&#x2264;" 
d="M917 0h-848v230h848v-230zM398 937l519 -269v-288l-848 470v174l848 470v-288z" />
    <glyph glyph-name="greaterequal" unicode="&#x2265;" 
d="M107 230h848v-230h-848v230zM107 1206v288l848 -470v-174l-848 -470v288l519 269z" />
    <glyph glyph-name="yen" unicode="&#xa5;" 
d="M512 901l71 141q74 144 87 414l2 70h267l-2 -70q-14 -277 -142 -529l-74 -145h182v-207h-257v-125h257v-208h-257v-242h-268v242h-257v208h257v125h-257v207h181l-73 145q-129 252 -142 529l-2 70h267l2 -70q13 -270 86 -414z" />
    <glyph glyph-name="micro" unicode="&#xb5;" 
d="M884 0h-249v111q-50 -130 -146 -130q-57 0 -100 43v-377h-249v1485h249v-724q0 -107 31.5 -150t90.5 -43q100 0 124 138v779h249v-1132z" />
    <glyph glyph-name="partialdiff" unicode="&#x2202;" 
d="M904 395q0 -195 -108.5 -304.5t-283.5 -109.5q-173 0 -282 109.5t-109 367.5v212q0 263 82 372t199 109q153 0 234 -120v42q0 106 -38.5 183t-194.5 168l131 189q174 -88 272 -240t98 -367v-611zM636 453v337q-34 128 -135 128q-59 0 -85.5 -58t-26.5 -227v-137
q0 -168 26.5 -227t96.5 -59q71 0 97.5 59t26.5 184z" />
    <glyph glyph-name="product" unicode="&#x220f;" 
d="M961 1297h-121v-1529h-249v1529h-159v-1529h-249v1529h-121v229h899v-229z" />
    <glyph glyph-name="pi" unicode="&#x3c0;" 
d="M831 290q0 -61 42 -61h88v-229h-147q-232 0 -232 270v633h-150v-903h-249v903h-121v229h899v-229h-130v-613z" />
    <glyph glyph-name="ordfeminine" unicode="&#xaa;" 
d="M829 651h-219v76q-60 -91 -179 -91q-98 0 -167 78.5t-69 204.5q0 125 90 201.5t284 76.5h41v62q0 103 -99 103q-94 0 -138 -73l-158 106q108 153 296 153q141 0 229.5 -71t88.5 -248v-578zM610 895v165h-41q-87 0 -121 -38t-34 -103q0 -98 86 -98q75 0 110 74zM840 188
h-656v201h656v-201z" />
    <glyph glyph-name="ordmasculine" unicode="&#xba;" 
d="M828 952q0 -148 -90.5 -232t-225.5 -84t-226 84t-91 232v280q0 147 91 231.5t226 84.5t225.5 -84.5t90.5 -231.5v-280zM609 960v263q0 77 -25.5 108t-71.5 31t-72 -31.5t-26 -107.5v-263q0 -77 26 -108t72 -31t71.5 30.5t25.5 108.5zM840 188h-656v201h656v-201z" />
    <glyph glyph-name="ae" unicode="&#xe6;" 
d="M985 520h-353v-206q0 -121 72 -121q62 0 90 98l180 -123q-90 -187 -250 -187q-149 0 -208 131q-70 -131 -225 -131q-115 0 -184 82.5t-69 266.5q0 177 83.5 271t237.5 94h33v124q0 121 -67 121q-57 0 -80 -80l-195 105q80 188 250 188q154 0 216 -126q65 126 208 126
q124 0 192.5 -83t68.5 -300v-250zM766 695v130q0 115 -67 115q-68 0 -68 -115v-130h135zM392 308v212h-33q-102 0 -102 -185q0 -142 68 -142q67 0 67 115z" />
    <glyph glyph-name="oslash" unicode="&#xf8;" 
d="M183 -131l58 210q-120 109 -120 380v214q0 260 109 370t282 110q63 0 118 -15l50 177l162 -48l-60 -213q120 -111 120 -381v-214q0 -259 -108.5 -368.5t-281.5 -109.5q-63 0 -118 14l-48 -174zM512 923q-64 0 -93.5 -49.5t-29.5 -203.5v-355l179 595q-23 13 -56 13z
M634 456v359l-178 -592q24 -12 56 -12q64 0 93 49.5t29 195.5z" />
    <glyph glyph-name="questiondown" unicode="&#xbf;" 
d="M665 1035q0 -73 -47.5 -120.5t-120.5 -47.5q-75 0 -122.5 47.5t-47.5 120.5q0 75 47.5 122.5t122.5 47.5q73 0 120.5 -47.5t47.5 -122.5zM909 -110q-141 -252 -403 -252q-173 0 -282 110.5t-109 265.5q0 114 64 209l155 229q31 45 31 109v55h268v-56q0 -113 -68 -214
l-152 -222q-30 -47 -30 -120q0 -66 35 -101.5t89 -35.5q123 0 186 147z" />
    <glyph glyph-name="exclamdown" unicode="&#xa1;" 
d="M682 1036q0 -74 -48.5 -121.5t-121.5 -47.5t-120.5 47.5t-47.5 121.5t47.5 121.5t120.5 47.5t121.5 -47.5t48.5 -121.5zM666 -341h-308v408l59 550h191l58 -557v-401z" />
    <glyph glyph-name="logicalnot" unicode="&#xac;" 
d="M947 162h-267v330h-642v228h909v-558z" />
    <glyph glyph-name="radical" unicode="&#x221a;" 
d="M1096 1831l-532 -1831h-209l-317 1104l223 61l199 -745l396 1411h240z" />
    <glyph glyph-name="florin" unicode="&#x192;" 
d="M989 1390l-202 -138q-49 66 -115 66q-41 0 -66.5 -30.5t-25.5 -113.5v-148h313v-229h-324l-83 -1021h-269l83 1021h-188v229h200v147q0 173 95 273.5t256 100.5q199 0 326 -157z" />
    <glyph glyph-name="approxequal" unicode="&#x2248;" 
d="M955 1168v-218q-132 -141 -250 -141q-98 0 -205.5 70.5t-180.5 70.5q-96 0 -209 -141h-41v218q132 141 250 141q98 0 205.5 -70.5t180.5 -70.5q96 0 209 141h41zM955 731v-218q-132 -141 -250 -141q-98 0 -205.5 70.5t-180.5 70.5q-96 0 -209 -141h-41v218
q132 141 250 141q98 0 205.5 -70.5t180.5 -70.5q96 0 209 141h41z" />
    <glyph glyph-name="Delta" unicode="&#x2206;" 
d="M1009 0h-994l390 1526h214zM733 190l-221 902l-222 -902h443z" />
    <glyph glyph-name="guillemetleft" unicode="&#xab;" 
d="M975 120h-231l-302 462l302 461h231l-293 -461zM582 120h-231l-302 462l302 461h231l-293 -461z" />
    <glyph glyph-name="guillemetright" unicode="&#xbb;" 
d="M975 582l-302 -462h-231l293 462l-293 461h231zM582 582l-302 -462h-231l293 462l-293 461h231z" />
    <glyph glyph-name="ellipsis" unicode="&#x2026;" 
d="M966 133q0 -72 -36 -112t-98 -40q-63 0 -99 40t-36 112q0 62 36 107.5t99 45.5q62 0 98 -45.5t36 -107.5zM646 133q0 -72 -36 -112t-98 -40q-63 0 -98.5 40t-35.5 112q0 62 35.5 107.5t98.5 45.5q62 0 98 -45.5t36 -107.5zM327 133q0 -72 -36.5 -112t-98.5 -40
q-63 0 -98.5 40t-35.5 112q0 62 35.5 107.5t98.5 45.5q62 0 98.5 -45.5t36.5 -107.5z" />
    <glyph glyph-name="nonbreakingspace" unicode="&#xa0;" 
 />
    <glyph glyph-name="Agrave" unicode="&#xc0;" 
d="M641 1647h-216l-228 236h270zM347 85v-85h-267v85q0 220 76 554l182 800h347l182 -800q77 -334 77 -554v-85h-267v85q0 118 -14 251h-303q-13 -133 -13 -251zM512 1215l-118 -650h236z" />
    <glyph glyph-name="Atilde" unicode="&#xc3;" 
d="M875 1795q-111 -207 -235 -207q-48 0 -129.5 56.5t-118.5 56.5q-62 0 -122 -113l-122 89q111 207 235 207q48 0 129.5 -56.5t118.5 -56.5q62 0 122 113zM347 85v-85h-267v85q0 220 76 554l182 800h347l182 -800q77 -334 77 -554v-85h-267v85q0 118 -14 251h-303
q-13 -133 -13 -251zM512 1215l-118 -650h236z" />
    <glyph glyph-name="Otilde" unicode="&#xd5;" 
d="M875 1795q-111 -207 -235 -207q-48 0 -129.5 56.5t-118.5 56.5q-62 0 -122 -113l-122 89q111 207 235 207q48 0 129.5 -56.5t118.5 -56.5q62 0 122 113zM906 490q0 -289 -109 -399t-285 -110t-285 110t-109 399v459q0 288 109 399t285 111t285 -111t109 -399v-459z
M638 457v524q0 128 -25.5 183t-101.5 55t-100.5 -54.5t-24.5 -183.5v-524q0 -127 25.5 -182t101.5 -55t100.5 54.5t24.5 182.5z" />
    <glyph glyph-name="OE" unicode="&#x152;" 
d="M971 0h-477q-222 0 -331 110.5t-109 314.5v676q0 204 109 314.5t331 110.5h477v-228h-243v-385h202v-229h-202v-455h243v-229zM481 229v1069h-37q-73 0 -107.5 -49.5t-34.5 -183.5v-603q0 -133 35.5 -183t108.5 -50h35z" />
    <glyph glyph-name="oe" unicode="&#x153;" 
d="M985 489h-354v-175q0 -121 78 -121q62 0 85 98l180 -123q-80 -187 -250 -187q-140 0 -208 131q-70 -131 -216 -131q-115 0 -188.5 82.5t-73.5 298.5v408q0 217 73.5 300t188.5 83q146 0 216 -126q67 126 208 126q114 0 187.5 -83t73.5 -300v-281zM766 664v161
q0 115 -67 115q-68 0 -68 -115v-161h135zM392 327v474q0 139 -66 139q-69 0 -69 -134v-479q0 -134 69 -134q66 0 66 134z" />
    <glyph glyph-name="endash" unicode="&#x2013;" 
d="M947 492h-870v229h870v-229z" />
    <glyph glyph-name="emdash" unicode="&#x2014;" horiz-adv-x="2048" 
d="M1958 492h-1868v229h1868v-229z" />
    <glyph glyph-name="quotedblleft" unicode="&#x201c;" 
d="M551 1114q0 155 173 412h211q-113 -163 -157 -296q80 -2 130 -46.5t50 -110.5q0 -72 -53 -118t-142 -46q-97 0 -154.5 53.5t-57.5 151.5zM63 1114q0 155 174 412h210q-113 -163 -157 -296q80 -2 130 -46.5t50 -110.5q0 -72 -53 -118t-142 -46q-97 0 -154.5 53.5
t-57.5 151.5z" />
    <glyph glyph-name="quotedblright" unicode="&#x201d;" 
d="M473 1341q0 -156 -174 -413h-210q113 164 157 297q-80 2 -130 46.5t-50 109.5q0 73 53 119t142 46q97 0 154.5 -54t57.5 -151zM961 1341q0 -156 -174 -413h-210q113 164 157 297q-80 2 -130 46.5t-50 109.5q0 73 53 119t142 46q97 0 154.5 -54t57.5 -151z" />
    <glyph glyph-name="quoteleft" unicode="&#x2018;" 
d="M298 1114q0 155 173 412h211q-113 -163 -157 -296q80 -2 130 -46.5t50 -110.5q0 -72 -53 -118t-142 -46q-98 0 -155 53.5t-57 151.5z" />
    <glyph glyph-name="quoteright" unicode="&#x2019;" 
d="M726 1341q0 -156 -173 -413h-211q113 164 157 297q-80 2 -130 46.5t-50 109.5q0 73 53 119t142 46q97 0 154.5 -54t57.5 -151z" />
    <glyph glyph-name="divide" unicode="&#xf7;" 
d="M708 1013q0 -88 -57.5 -142.5t-139.5 -54.5t-139 54.5t-57 142.5q0 87 56.5 141.5t139.5 54.5q82 0 139.5 -55t57.5 -141zM976 511h-929v191h929v-191zM708 197q0 -88 -57.5 -142t-139.5 -54t-139 54t-57 142q0 87 56.5 141.5t139.5 54.5q82 0 139.5 -55t57.5 -141z" />
    <glyph glyph-name="lozenge" unicode="&#x25ca;" 
d="M933 764l-267 -764h-311l-265 764l265 762h311zM675 764l-164 515l-170 -515l170 -516z" />
    <glyph glyph-name="ydieresis" unicode="&#xff;" 
d="M330 1285q-54 0 -89.5 35.5t-35.5 85.5t35.5 85t89.5 35q55 0 90.5 -35t35.5 -85t-35.5 -85.5t-90.5 -35.5zM695 1285q-55 0 -90.5 35.5t-35.5 85.5t35.5 85t90.5 35q54 0 89.5 -35t35.5 -85t-35.5 -85.5t-89.5 -35.5zM208 -353l2 37q8 124 67 275l97 254l-207 519
q-76 190 -83 313l-5 87h266l5 -81q11 -179 49 -279l99 -255l91 255q48 123 57 279l5 81h266l-6 -87q-6 -123 -80 -313l-299 -777q-46 -118 -55 -271l-2 -37h-267z" />
    <glyph glyph-name="Ydieresis" unicode="&#x178;" 
d="M330 1642q-54 0 -89.5 35.5t-35.5 85.5t35.5 85t89.5 35q55 0 90.5 -35t35.5 -85t-35.5 -85.5t-90.5 -35.5zM695 1642q-55 0 -90.5 35.5t-35.5 85.5t35.5 85t90.5 35q54 0 89.5 -35t35.5 -85t-35.5 -85.5t-89.5 -35.5zM512 814l71 141q74 144 87 414l2 70h267l-2 -70
q-14 -277 -142 -529l-149 -290v-550h-268v550l-149 290q-129 252 -142 529l-2 70h267l2 -70q13 -270 86 -414z" />
    <glyph glyph-name="fraction" unicode="&#x2044;" 
d="M1024 1466l-884 -1488l-140 90l877 1479z" />
    <glyph glyph-name="guilsinglleft" unicode="&#x2039;" 
d="M855 120h-289l-398 462l398 461h289l-389 -461z" />
    <glyph glyph-name="guilsinglright" unicode="&#x203a;" 
d="M558 582l-389 461h289l398 -461l-398 -462h-289z" />
    <glyph glyph-name="daggerdbl" unicode="&#x2021;" 
d="M977 354h-341v-354h-248v354h-340v226h340v367h-341v227h341v352h248v-352h340v-227h-340v-367h341v-226z" />
    <glyph glyph-name="periodcentered" unicode="&#xb7;" 
d="M737 725q0 -106 -64.5 -166t-161.5 -60t-161 60t-64 166q0 108 63.5 167t161.5 59q97 0 161.5 -59.5t64.5 -166.5z" />
    <glyph glyph-name="quotesinglbase" unicode="&#x201a;" 
d="M726 60q0 -156 -173 -413h-211q113 164 157 297q-80 2 -130 46.5t-50 109.5q0 73 53 119t142 46q97 0 154.5 -54t57.5 -151z" />
    <glyph glyph-name="quotedblbase" unicode="&#x201e;" 
d="M473 60q0 -156 -174 -413h-210q113 164 157 297q-80 2 -130 46.5t-50 109.5q0 73 53 119t142 46q97 0 154.5 -54t57.5 -151zM961 60q0 -156 -174 -413h-210q113 164 157 297q-80 2 -130 46.5t-50 109.5q0 73 53 119t142 46q97 0 154.5 -54t57.5 -151z" />
    <glyph glyph-name="perthousand" unicode="&#x2030;" 
d="M350 1077h-221v449h221v-449zM855 1526l-603 -1526h-231l610 1526h224zM1002 0h-192v449h192v-449zM702 0h-191v449h191v-449z" />
    <glyph glyph-name="Acircumflex" unicode="&#xc2;" 
d="M862 1647h-218l-132 146l-133 -146h-218l138 236h425zM347 85v-85h-267v85q0 220 76 554l182 800h347l182 -800q77 -334 77 -554v-85h-267v85q0 118 -14 251h-303q-13 -133 -13 -251zM512 1215l-118 -650h236z" />
    <glyph glyph-name="Ecircumflex" unicode="&#xca;" 
d="M862 1647h-218l-132 146l-133 -146h-218l138 236h425zM912 0h-761v1439h761v-230h-493v-339h354v-230h-354v-410h493v-230z" />
    <glyph glyph-name="Aacute" unicode="&#xc1;" 
d="M576 1883h270l-228 -236h-216zM347 85v-85h-267v85q0 220 76 554l182 800h347l182 -800q77 -334 77 -554v-85h-267v85q0 118 -14 251h-303q-13 -133 -13 -251zM512 1215l-118 -650h236z" />
    <glyph glyph-name="Edieresis" unicode="&#xcb;" 
d="M329 1642q-54 0 -89.5 35.5t-35.5 85.5t35.5 85t89.5 35q55 0 90.5 -35t35.5 -85t-35.5 -85.5t-90.5 -35.5zM694 1642q-55 0 -90.5 35.5t-35.5 85.5t35.5 85t90.5 35q54 0 89.5 -35t35.5 -85t-35.5 -85.5t-89.5 -35.5zM912 0h-761v1439h761v-230h-493v-339h354v-230h-354
v-410h493v-230z" />
    <glyph glyph-name="Egrave" unicode="&#xc8;" 
d="M607 1647h-216l-228 236h270zM912 0h-761v1439h761v-230h-493v-339h354v-230h-354v-410h493v-230z" />
    <glyph glyph-name="Iacute" unicode="&#xcd;" 
d="M576 1883h270l-228 -236h-216zM846 0h-668v220h200v999h-159v220h586v-220h-159v-999h200v-220z" />
    <glyph glyph-name="Icircumflex" unicode="&#xce;" 
d="M862 1647h-218l-132 146l-133 -146h-218l138 236h425zM846 0h-668v220h200v999h-159v220h586v-220h-159v-999h200v-220z" />
    <glyph glyph-name="Idieresis" unicode="&#xcf;" 
d="M329 1642q-54 0 -89.5 35.5t-35.5 85.5t35.5 85t89.5 35q55 0 90.5 -35t35.5 -85t-35.5 -85.5t-90.5 -35.5zM694 1642q-55 0 -90.5 35.5t-35.5 85.5t35.5 85t90.5 35q54 0 89.5 -35t35.5 -85t-35.5 -85.5t-89.5 -35.5zM846 0h-668v220h200v999h-159v220h586v-220h-159
v-999h200v-220z" />
    <glyph glyph-name="Igrave" unicode="&#xcc;" 
d="M641 1647h-216l-228 236h270zM846 0h-668v220h200v999h-159v220h586v-220h-159v-999h200v-220z" />
    <glyph glyph-name="Oacute" unicode="&#xd3;" 
d="M576 1883h270l-228 -236h-216zM906 490q0 -289 -109 -399t-285 -110t-285 110t-109 399v459q0 288 109 399t285 111t285 -111t109 -399v-459zM638 457v524q0 128 -25.5 183t-101.5 55t-100.5 -54.5t-24.5 -183.5v-524q0 -127 25.5 -182t101.5 -55t100.5 54.5t24.5 182.5z
" />
    <glyph glyph-name="Ocircumflex" unicode="&#xd4;" 
d="M862 1647h-218l-132 146l-133 -146h-218l138 236h425zM906 490q0 -289 -109 -399t-285 -110t-285 110t-109 399v459q0 288 109 399t285 111t285 -111t109 -399v-459zM638 457v524q0 128 -25.5 183t-101.5 55t-100.5 -54.5t-24.5 -183.5v-524q0 -127 25.5 -182t101.5 -55
t100.5 54.5t24.5 182.5z" />
    <glyph glyph-name="Ograve" unicode="&#xd2;" 
d="M641 1647h-216l-228 236h270zM906 490q0 -289 -109 -399t-285 -110t-285 110t-109 399v459q0 288 109 399t285 111t285 -111t109 -399v-459zM638 457v524q0 128 -25.5 183t-101.5 55t-100.5 -54.5t-24.5 -183.5v-524q0 -127 25.5 -182t101.5 -55t100.5 54.5t24.5 182.5z
" />
    <glyph glyph-name="Uacute" unicode="&#xda;" 
d="M577 1883h270l-228 -236h-216zM903 448q0 -247 -109 -357t-282 -110t-282 110t-109 357v991h268v-1023q0 -105 28.5 -155t93.5 -50q64 0 94 50t30 155v1023h268v-991z" />
    <glyph glyph-name="Ucircumflex" unicode="&#xdb;" 
d="M863 1647h-218l-132 146l-133 -146h-218l138 236h425zM903 448q0 -247 -109 -357t-282 -110t-282 110t-109 357v991h268v-1023q0 -105 28.5 -155t93.5 -50q64 0 94 50t30 155v1023h268v-991z" />
    <glyph glyph-name="Ugrave" unicode="&#xd9;" 
d="M642 1647h-216l-228 236h270zM903 448q0 -247 -109 -357t-282 -110t-282 110t-109 357v991h268v-1023q0 -105 28.5 -155t93.5 -50q64 0 94 50t30 155v1023h268v-991z" />
    <glyph glyph-name="idotless" unicode="&#x131;" 
d="M849 0h-675v220h204v692h-175v220h443v-912h203v-220z" />
    <glyph glyph-name="circumflex" unicode="&#x2c6;" 
d="M862 1290h-218l-132 146l-133 -146h-218l138 236h425z" />
    <glyph glyph-name="tilde" unicode="&#x2dc;" 
d="M875 1457q-111 -207 -235 -207q-48 0 -129.5 56.5t-118.5 56.5q-62 0 -122 -113l-122 89q111 207 235 207q48 0 129.5 -56.5t118.5 -56.5q62 0 122 113z" />
    <glyph glyph-name="macron" unicode="&#xaf;" 
d="M787 1356h-551v170h551v-170z" />
    <glyph glyph-name="breve" unicode="&#x2d8;" 
d="M800 1422q-107 -152 -288 -152q-182 0 -288 152v240h29q95 -209 259 -209q163 0 259 209h29v-240z" />
    <glyph glyph-name="dotaccent" unicode="&#x2d9;" 
d="M671 1386q0 -59 -38.5 -99.5t-121.5 -40.5t-121 40.5t-38 99.5q0 60 38 100t121 40t121.5 -40t38.5 -100z" />
    <glyph glyph-name="ring" unicode="&#x2da;" 
d="M767 1447q0 -98 -69 -167.5t-187 -69.5t-186.5 69.5t-68.5 167.5q0 99 68.5 167.5t186.5 68.5t187 -68.5t69 -167.5zM609 1447q0 45 -26.5 71t-71.5 26q-44 0 -70.5 -26t-26.5 -71q0 -44 26.5 -70.5t70.5 -26.5t71 27t27 70z" />
    <glyph glyph-name="cedilla" unicode="&#xb8;" 
d="M327 -233q142 -9 142 45q0 51 -79 44l48 96q237 -8 237 -139q0 -80 -64.5 -127.5t-283.5 -47.5v129z" />
    <glyph glyph-name="hungarumlaut" unicode="&#x2dd;" 
d="M914 1526l-267 -294h-178l212 294h233zM554 1526l-266 -294h-179l213 294h232z" />
    <glyph glyph-name="ogonek" unicode="&#x2db;" 
d="M696 -356q-219 -6 -291.5 48.5t-72.5 141.5q0 102 124 166h190q-117 -53 -117 -125q0 -50 50 -67.5t117 -10.5v-153z" />
    <glyph glyph-name="caron" unicode="&#x2c7;" 
d="M685 1290h-347l-177 236h218l133 -147l132 147h218z" />
    <glyph glyph-name="Lslash" unicode="&#x141;" 
d="M992 0h-761v467l10 197l-98 -113l-128 132l216 177v666h268v-287l-9 -197l128 137l128 -133l-247 -204v-612h493v-230z" />
    <glyph glyph-name="lslash" unicode="&#x142;" 
d="M895 1046l-238 -198v-618h203v-230h-676v230h204v250l10 174l-125 -123l-145 152l260 215v398h-166v230h435v-260l-10 -173l103 105z" />
    <glyph glyph-name="Scaron" unicode="&#x160;" 
d="M718 1647h-347l-177 236h218l133 -147l132 147h218zM947 385q0 -174 -108.5 -289t-322.5 -115q-258 0 -410 241l202 138q91 -142 217 -142q73 0 113.5 38.5t40.5 108.5q0 79 -87 151l-281 228q-156 127 -156 309q0 184 105.5 295t284.5 111q232 0 374 -199l-202 -138
q-80 98 -162 98q-62 0 -97.5 -34.5t-35.5 -100.5q0 -69 87 -139l264 -215q174 -141 174 -346z" />
    <glyph glyph-name="scaron" unicode="&#x161;" 
d="M914 315q0 -145 -99.5 -239.5t-301.5 -94.5q-255 0 -406 231l184 126q78 -138 214 -138q141 0 141 117q0 64 -79 102l-171 83q-222 111 -222 310q0 159 99.5 250t271.5 91q223 0 364 -209l-187 -128q-62 117 -167 117q-51 0 -82.5 -27.5t-31.5 -75.5q0 -74 87 -116
l144 -71q242 -118 242 -328zM712 1290h-347l-177 236h218l133 -147l132 147h218z" />
    <glyph glyph-name="Zcaron" unicode="&#x17d;" 
d="M685 1647h-347l-177 236h218l133 -147l132 147h218zM885 1439v-145q0 -258 -118 -433l-268 -393q-65 -98 -65 -238h461v-230h-727v145q0 255 118 432l268 395q65 94 65 237h-441v230h707z" />
    <glyph glyph-name="zcaron" unicode="&#x17e;" 
d="M884 0h-746v182q0 169 139 335l194 230q85 102 85 155h-408v230h707v-154q0 -144 -117 -295l-204 -263q-95 -122 -95 -190h445v-230zM685 1290h-347l-177 236h218l133 -147l132 147h218z" />
    <glyph glyph-name="brokenbar" unicode="&#xa6;" 
d="M626 985h-229v899h229v-899zM626 -362h-229v897h229v-897z" />
    <glyph glyph-name="Eth" unicode="&#xd0;" 
d="M52 913h104v613h300q205 0 333 -110.5t128 -398.5v-507q0 -289 -128 -399.5t-333 -110.5h-300v686h-104v227zM648 486v555q0 147 -48.5 196.5t-134.5 49.5h-42v-374h104v-227h-104v-446h42q86 0 134.5 49.5t48.5 196.5z" />
    <glyph glyph-name="eth" unicode="&#xf0;" 
d="M941 1373l-143 -50q66 -119 66 -317v-611q0 -195 -108.5 -304.5t-281.5 -109.5q-153 0 -272 109.5t-119 367.5v131q0 263 82 372t199 109q154 0 234 -120v133q0 96 -31 159l-194 -67l-52 159l147 51q-35 43 -98 81l125 186q132 -76 212 -185l183 64zM598 434v275
q-35 129 -134 129q-58 0 -86 -58t-28 -167v-156q0 -129 30.5 -188t93.5 -59q74 0 99 59t25 165z" />
    <glyph glyph-name="Yacute" unicode="&#xdd;" 
d="M576 1883h270l-228 -236h-216zM512 814l71 141q74 144 87 414l2 70h267l-2 -70q-14 -277 -142 -529l-149 -290v-550h-268v550l-149 290q-129 252 -142 529l-2 70h267l2 -70q13 -270 86 -414z" />
    <glyph glyph-name="Thorn" unicode="&#xde;" 
d="M964 726q0 -166 -109 -276.5t-283 -110.5h-122v-339h-268v1526h268v-344h122q194 0 293 -110.5t99 -275.5v-70zM696 735v52q0 67 -30 117t-113 50h-103v-386h101q74 0 109.5 45.5t35.5 121.5z" />
    <glyph glyph-name="thorn" unicode="&#xfe;" 
d="M923 462q0 -261 -78.5 -369.5t-204.5 -108.5q-143 0 -231 147v-484h-269v1879h269v-520q88 145 231 145q126 0 204.5 -108.5t78.5 -368.5v-212zM654 499v138q0 158 -31.5 221.5t-90.5 63.5q-89 0 -123 -129v-450q33 -128 123 -128q59 0 90.5 63t31.5 221z" />
    <glyph glyph-name="minus" unicode="&#x2212;" 
d="M947 553h-870v229h870v-229z" />
    <glyph glyph-name="onesuperior" unicode="&#xb9;" 
d="M708 641h-214v654l-164 -115l-90 149l273 197h195v-885z" />
    <glyph glyph-name="twosuperior" unicode="&#xb2;" 
d="M822 650h-552v96q0 230 201 378l70 55q68 50 68 114q0 41 -24 62t-62 21q-63 0 -118 -84l-160 100q118 156 278 156q134 0 216.5 -71t82.5 -181q0 -133 -158 -252l-82 -62q-94 -70 -96 -150h336v-182z" />
    <glyph glyph-name="threesuperior" unicode="&#xb3;" 
d="M821 918q0 -122 -77.5 -200.5t-225.5 -78.5q-182 0 -284 151l165 113q45 -93 118 -93q44 0 67.5 29.5t23.5 84.5q0 53 -26.5 81.5t-80.5 28.5h-55v162h55q48 0 68 20t20 74q0 42 -20 64t-53 22q-67 0 -105 -83l-175 109q101 146 282 146q138 0 211.5 -66.5t73.5 -171.5
q0 -135 -120 -191q138 -50 138 -201z" />
    <glyph glyph-name="onehalf" unicode="&#xbd;" 
d="M912 704h-802v125h802v-125zM660 966h-215v614l-163 -115l-84 150l267 196h195v-845zM803 -291h-552v96q0 195 201 344l70 54q67 50 67 105q0 41 -23.5 61.5t-62.5 20.5q-63 0 -118 -84l-159 101q118 155 277 155q135 0 217.5 -71t82.5 -180q0 -124 -159 -242l-82 -62
q-93 -71 -95 -116h336v-182z" />
    <glyph glyph-name="onequarter" unicode="&#xbc;" 
d="M660 966h-215v614l-163 -115l-84 150l267 196h195v-845zM912 704h-802v125h802v-125zM790 -101h-75v-202h-199v202h-282v193l273 450h208v-472h75v-171zM516 70v245l-141 -245h141z" />
    <glyph glyph-name="threequarters" unicode="&#xbe;" 
d="M792 1209q0 -102 -76.5 -180.5t-226.5 -78.5q-162 0 -265 142l162 102q39 -72 102 -72q44 0 67.5 24.5t23.5 69.5q0 103 -107 103h-55v162h55q47 0 67.5 20t20.5 61q0 43 -20 61t-53 18q-57 0 -91 -72l-170 98q101 146 263 146q138 0 211.5 -66t73.5 -162
q0 -125 -120 -181q138 -50 138 -195zM912 704h-802v125h802v-125zM781 -101h-76v-202h-199v202h-282v193l273 450h208v-472h76v-171zM506 70v245l-141 -245h141z" />
    <glyph glyph-name="fl" unicode="&#xfb02;" 
d="M883 0h-248v1305l-20 1q-96 3 -130.5 -31.5t-34.5 -100.5v-105h97v-229h-97v-840h-248v840h-140v229h140v93q0 171 99.5 275.5t313.5 96.5l268 -8v-1526z" />
    <glyph glyph-name="fi" unicode="&#xfb01;" 
d="M895 0h-250v840h-184v-840h-248v840h-142v229h142v99q0 171 104.5 272.5t245.5 101.5q208 0 335 -171l-202 -138q-61 80 -134 80q-49 0 -75 -35t-26 -108v-101h434v-1069z" />
    <glyph glyph-name="ampersand" unicode="&#x26;" 
d="M808 408l191 -345v-63h-220l-88 158q-80 -177 -271 -177q-150 0 -248.5 122t-98.5 323q0 283 204 481l-36 66q-65 118 -65 214q0 159 95 260t230 101q252 0 330 -304l-225 -92q-32 167 -107 167q-35 0 -55 -38.5t-20 -102.5q0 -77 56 -178l182 -327l61 198h206v-62z
M427 217q78 0 115 120l17 59l-161 292q-76 -93 -76 -263q0 -101 30.5 -154.5t74.5 -53.5z" />
    <glyph glyph-name="N" unicode="N" 
d="M883 0h-257l-299 966q31 -338 31 -698v-268h-218v1526h257l299 -966q-31 338 -31 699v267h218v-1526z" />
    <glyph glyph-name="dollar" unicode="$" 
d="M947 434q0 -175 -97 -276.5t-201 -114.5v-247h-229v241q-196 31 -314 233l222 126q81 -134 197 -129q73 -1 113.5 37.5t40.5 108.5q0 76 -70 134l-298 241q-156 127 -156 306q0 170 82 267.5t183 122.5v247h229v-243q154 -29 270 -188l-227 -129q-55 90 -137 90
q-62 0 -97.5 -35t-35.5 -101q0 -81 73 -138l278 -220q174 -137 174 -333z" />
    <glyph glyph-name="euro" unicode="&#x20ac;" 
d="M953 187q-141 -206 -373 -206q-173 0 -282.5 110t-109.5 314v93h-118v208h118v125h-118v207h118v84q0 204 109.5 315t282.5 111q232 0 373 -209l-201 -138q-73 118 -171 118q-64 0 -94.5 -45.5t-30.5 -139.5v-96h358v-207h-358v-125h358v-208h-358v-105q0 -94 30.5 -139
t94.5 -45q98 0 171 117z" />
    <glyph glyph-name="exclam" unicode="!" 
d="M607 569h-191l-59 550v407h308v-400zM681 149q0 -74 -48 -121t-122 -47q-73 0 -120.5 47t-47.5 121t47.5 121.5t120.5 47.5t121.5 -47.5t48.5 -121.5z" />
    <glyph glyph-name="quotedbl" unicode="&#x22;" 
d="M867 954h-268v572h268v-572zM424 954h-268v572h268v-572z" />
    <glyph glyph-name="numbersign" unicode="#" 
d="M935 394h-174l-67 -394h-239l68 394h-154l-68 -394h-238l67 394h-120v218h158l52 302h-135v218h173l68 394h238l-67 -394h153l68 394h238l-67 -394h121v-218h-159l-52 -302h136v-218zM560 612l52 302h-153l-52 -302h153z" />
    <glyph glyph-name="asterisk" unicode="*" 
d="M411 1035l-32 308h266l-33 -308l288 125l82 -253l-304 -64l211 -236l-216 -157l-161 283l-161 -283l-216 157l211 236l-305 64l83 253z" />
    <glyph glyph-name="yacute" unicode="&#xfd;" 
d="M616 1526h270l-228 -236h-216zM222 -353l2 37q8 124 67 275l97 254l-207 519q-76 190 -83 313l-5 87h266l5 -81q11 -179 49 -279l99 -255l91 255q48 123 57 279l5 81h266l-6 -87q-6 -123 -80 -313l-299 -777q-46 -118 -55 -271l-2 -37h-267z" />
    <glyph glyph-name="multiply" unicode="&#xd7;" 
d="M803 158l-290 291l-290 -291l-159 160l291 289l-291 290l159 160l290 -292l290 292l157 -160l-287 -290l287 -289z" />
    <glyph glyph-name="percent" unicode="%" 
d="M940 1526l-611 -1526h-232l621 1526h222zM950 206q0 -98 -55.5 -161.5t-141.5 -63.5q-87 0 -142 63.5t-55 161.5q0 96 54.5 160.5t142.5 64.5q86 0 141.5 -65t55.5 -160zM480 1321q0 -98 -55 -162t-142 -64t-141.5 64t-54.5 162q0 96 54 160.5t142 64.5q87 0 142 -65
t55 -160z" />
    <glyph glyph-name="v" unicode="v" 
d="M646 0h-268l-221 707q-60 196 -69 344l-5 81h267l5 -81q9 -160 39 -282l118 -461l118 461q30 122 39 282l5 81h267l-5 -81q-9 -148 -69 -344z" />
    <glyph glyph-name="integral" unicode="&#x222b;" 
d="M644 1345v-1199q0 -181 -96.5 -278.5t-278.5 -97.5h-170v230h135q81 0 111.5 41.5t30.5 140.5v1198q0 181 91.5 278.5t274.5 97.5h179v-230h-144q-81 0 -107 -41.5t-26 -139.5z" />
    <glyph glyph-name="y" unicode="y" 
d="M222 -353l2 37q8 124 67 275l97 254l-207 519q-76 190 -83 313l-5 87h266l5 -81q11 -179 49 -279l99 -255l91 255q48 123 57 279l5 81h266l-6 -87q-6 -123 -80 -313l-299 -777q-46 -118 -55 -271l-2 -37h-267z" />
    <glyph glyph-name="x" unicode="x" 
d="M89 0l2 39q8 118 116 288l170 263l-153 238q-93 143 -100 266l-2 38h265q11 -155 62 -236l63 -97l63 97q51 81 62 236h265l-2 -38q-7 -123 -100 -266l-154 -238l171 -263q108 -170 116 -288l2 -39h-267q-8 153 -66 242l-90 140l-90 -140q-58 -89 -67 -242h-266z" />
    <glyph glyph-name="quotesingle" unicode="'" 
d="M645 954h-268v572h268v-572z" />
    <glyph glyph-name="parenleft" unicode="(" 
d="M189 763q0 618 547 974l121 -169q-418 -307 -418 -805q0 -497 418 -805l-121 -169q-547 356 -547 974z" />
    <glyph glyph-name="parenright" unicode=")" 
d="M835 763q0 -618 -547 -974l-121 169q418 308 418 805q0 498 -418 805l121 169q547 -356 547 -974z" />
    <glyph glyph-name="hyphen" unicode="-" 
d="M947 492h-870v229h870v-229z" />
    <glyph glyph-name="plus" unicode="+" 
d="M947 492h-310v-330h-250v330h-310v229h310v330h250v-330h310v-229z" />
    <glyph glyph-name="comma" unicode="," 
d="M737 169q0 -204 -185 -522h-235q120 175 171 353q-80 3 -141 57.5t-61 150.5q0 106 61.5 165.5t153.5 59.5q111 0 173.5 -69.5t62.5 -194.5z" />
    <glyph glyph-name="uni000D" unicode="&#xd;" 
 />
    <glyph glyph-name="slash" unicode="/" 
d="M968 1526l-659 -1526h-253l659 1526h253z" />
    <glyph glyph-name="period" unicode="." 
d="M737 206q0 -107 -64.5 -166t-161.5 -59t-161 59t-64 166q0 106 63.5 165.5t161.5 59.5q97 0 161.5 -60t64.5 -165z" />
    <glyph glyph-name=".null" 
 />
    <glyph glyph-name="space" unicode=" " 
 />
    <glyph glyph-name="zero" unicode="0" 
d="M590 647h-85l-71 280h86zM716 764q0 161 -69 412q-36 131 -135 132q-100 -1 -135 -132q-69 -251 -69 -412t69 -411q35 -132 135 -133q99 1 135 133q69 250 69 411zM962 764q0 -160 -95 -516q-75 -267 -355 -267t-355 267q-95 356 -95 516t95 516q75 268 355 268t355 -268
q95 -356 95 -516z" />
    <glyph glyph-name="p.circled" unicode="&#x24df;" 
d="M661 896q0 -129 -88 -202.5t-205 -73.5h-95v-274h-200v828h266q175 0 248.5 -78.5t73.5 -199.5zM461 896q0 59 -28.5 83.5t-83.5 24.5h-76v-214h76q55 0 83.5 24.5t28.5 81.5zM783 497v535q0 182 -101.5 264.5t-226.5 82.5q-214 0 -382 -137v173q162 133 385 133
q235 0 380 -145.5t145 -390.5v-496q0 -245 -145 -390t-380 -145q-223 0 -385 132v173q168 -137 382 -137q125 0 226.5 82.5t101.5 265.5z" />
    <glyph glyph-name="infinity" unicode="&#x221e;" 
d="M521 501q-90 -184 -239 -184q-101 0 -169.5 89t-68.5 271q0 183 68.5 271.5t170.5 88.5q148 0 238 -184q90 184 237 184q103 0 171 -88.5t68 -271.5q0 -182 -68 -271t-170 -89q-148 0 -238 184zM414 677q-46 134 -99 134q-34 0 -47 -40t-13 -94q0 -53 13 -93.5t47 -40.5
q53 0 99 134zM627 677q46 -134 99 -134q34 0 47 40.5t13 93.5q0 54 -13 94t-47 40q-53 0 -99 -134z" />
    <glyph glyph-name="summation" unicode="&#x2211;" 
d="M477 649l-203 312q-109 169 -109 352v213h732v-230h-465q0 -81 61 -178l275 -425v-88l-300 -456q-56 -84 -56 -151h505v-230h-771v222q0 156 109 321z" />
    <glyph glyph-name="Omega" unicode="&#x3a9;" 
d="M512 1308q-63 0 -94.5 -43t-31.5 -195v-390q0 -245 80 -340v-340h-360v227h183q-171 136 -171 472v338q0 289 106.5 400t287.5 111t287.5 -111t106.5 -400v-338q0 -336 -171 -472h183v-227h-360v340q80 95 80 340v390q0 152 -31.5 195t-94.5 43z" />
    <glyph glyph-name="currency" unicode="&#xa4;" 
d="M122 674q0 98 56 175l-165 167l157 161l168 -169q75 56 173 56t173 -56l168 169l157 -161l-165 -167q56 -77 56 -175t-56 -175l165 -167l-157 -160l-168 169q-75 -57 -173 -57t-173 57l-168 -170l-157 161l165 167q-56 77 -56 175zM363 674q0 -70 44 -114t104 -44t104 44
t44 114t-44 114t-104 44t-104 -44t-44 -114z" />
    <glyph glyph-name="Vturned" unicode="&#x245;" 
d="M512 1126l-114 -581q-51 -259 -51 -460v-85h-267v85q0 220 76 554l202 887h308l201 -887q77 -334 77 -554v-85h-267v85q0 201 -51 460z" />
    <glyph glyph-name="FabrizioSchiavi" unicode="&#xf400;" 
d="M771 886q0 -84 -34 -122.5t-155 -38.5q-122 0 -151.5 34t-35.5 79q-5 -45 -35 -79t-151 -34q-122 0 -155.5 38.5t-33.5 122.5q0 83 33.5 120.5t155.5 37.5q121 0 151 -33t35 -97q6 64 35.5 97t151.5 33q121 0 155 -37.5t34 -120.5zM44 99v161q148 -152 372 -152
q183 0 294.5 111.5t111.5 343.5v239h152v-239q0 -273 -150.5 -427.5t-407.5 -156.5q-230 0 -372 120zM708 631q-47 -356 -313 -356q-265 0 -312 356q120 -176 312 -176q193 0 313 176zM44 1415q63 7 110 17q50 10 89.5 22.5t73 28t67.5 35l86 48.5q-30 33 -62 55
q-46 31 -102 31q-35 0 -72.5 -24t-70.5 -54t-55 -56t-64 -70v186q57 56 97 83t81.5 43.5t83.5 16.5q73 0 132 -30.5t109 -81.5q19 -20 36 -41q37 13 71 13q33 0 68 -13q4 15 9 30q17 56 17 110v78h125v-78q0 -69 -20 -140q-10 -34 -23 -67q20 -16 41 -37q63 -57 144 -148
l-92 -84l-118 127l-32 33q-20 -31 -44 -59l52 -102q31 -64 62 -114.5t63 -81t68 -30.5v-126q-58 0 -106 31t-88 81t-75.5 114.5l-69.5 131.5q-24 -19 -51 -35q-66 -44 -144.5 -69.5t-166.5 -25.5q-33 0 -70 9t-72.5 24.5t-86.5 45.5v173zM547 1460q-5 -4 -10 -7
q-43 -27 -112 -61q-67 -33 -158 -61q-39 -11 -83 -21l26 -10q32 -11 63 -11q68 0 129.5 20t113.5 55q32 20 59 45zM271 886q0 52 -62 52t-62 -52q0 -54 62 -54t62 54zM645 886q0 52 -63 52q-61 0 -61 -52q0 -54 61 -54q63 0 63 54z" />
    <glyph glyph-name="fullBlock" unicode="&#x2588;" 
d="M0 1884h1024v-2246h-1024v2246z" />
    <glyph glyph-name="A.alt01" unicode="&#xff21;" 
d="M347 85v-85h-267v85q0 220 76 554l182 800h347l182 -800q77 -334 77 -554v-85h-267v85q0 118 -14 251h-303q-13 -133 -13 -251zM512 1215l-118 -650h236z" />
    <glyph glyph-name="A.alt02" unicode="&#xf420;" 
d="M347 85v-85h-267v85q0 220 76 554l174 762h364l173 -762q77 -334 77 -554v-85h-267v85q0 118 -14 251h-303q-13 -133 -13 -251zM512 1215l-118 -650h236z" />
    <glyph glyph-name="U.alt01" unicode="&#xff35;" 
d="M903 448q0 -247 -109 -357t-282 -110t-282 110t-109 357v991h268v-1023q0 -105 28.5 -155t93.5 -50q64 0 94 50t30 155v1023h268v-991z" />
    <glyph glyph-name="O.alt01" unicode="&#xff2f;" 
d="M906 490q0 -289 -109 -399t-285 -110t-285 110t-109 399v459q0 288 109 399t285 111t285 -111t109 -399v-459zM638 457v524q0 128 -25.5 183t-101.5 55t-100.5 -54.5t-24.5 -183.5v-524q0 -127 25.5 -182t101.5 -55t100.5 54.5t24.5 182.5z" />
    <glyph glyph-name="N.alt01" unicode="&#xff2e;" 
d="M883 0h-255l-301 947q31 -319 31 -679v-268h-218v1439h257l299 -946q-31 318 -31 679v267h218v-1439z" />
    <glyph glyph-name="Y.alt01" unicode="&#xff39;" 
d="M512 814l71 141q74 144 87 414l2 70h267l-2 -70q-14 -277 -142 -529l-149 -290v-550h-268v550l-149 290q-129 252 -142 529l-2 70h267l2 -70q13 -270 86 -414z" />
    <glyph glyph-name="Z.alt01" unicode="&#xff3a;" 
d="M885 1439v-145q0 -258 -118 -433l-268 -393q-65 -98 -65 -238h461v-230h-727v145q0 255 118 432l268 395q65 94 65 237h-441v230h707z" />
    <glyph glyph-name="E.alt01" unicode="&#xff25;" 
d="M912 0h-761v1439h761v-230h-493v-339h354v-230h-354v-410h493v-230z" />
    <glyph glyph-name="I.alt01" unicode="&#xff29;" 
d="M846 0h-668v220h200v999h-159v220h586v-220h-159v-999h200v-220z" />
    <glyph glyph-name="S.alt01" unicode="&#xff33;" 
d="M947 385q0 -174 -108.5 -289t-322.5 -115q-258 0 -410 241l202 138q91 -142 217 -142q73 0 113.5 38.5t40.5 108.5q0 79 -87 151l-281 228q-156 127 -156 309q0 184 105.5 295t284.5 111q232 0 374 -199l-202 -138q-80 98 -162 98q-62 0 -97.5 -34.5t-35.5 -100.5
q0 -69 87 -139l264 -215q174 -141 174 -346z" />
    <glyph glyph-name="softhyphen" unicode="&#xad;" 
d="M807 492h-591v229h591v-229z" />
    <glyph glyph-name="Ohm" unicode="&#x2126;" 
d="M512 1308q-63 0 -94.5 -43t-31.5 -195v-390q0 -245 80 -340v-340h-360v227h183q-171 136 -171 472v338q0 289 106.5 400t287.5 111t287.5 -111t106.5 -400v-338q0 -336 -171 -472h183v-227h-360v340q80 95 80 340v390q0 152 -31.5 195t-94.5 43z" />
    <glyph glyph-name="asterisk.alt01" unicode="&#xff0a;" 
d="M928 850l-132 -230l-216 200l64 -287h-265l64 287l-215 -200l-133 231l281 87l-281 87l133 231l215 -200l-64 287h265l-64 -287l216 199l133 -230l-282 -87z" />
    <glyph glyph-name="Amacron" unicode="&#x100;" 
d="M787 1569h-551v170h551v-170zM347 85v-85h-267v85q0 220 76 554l182 800h347l182 -800q77 -334 77 -554v-85h-267v85q0 118 -14 251h-303q-13 -133 -13 -251zM512 1215l-118 -650h236z" />
    <glyph glyph-name="amacron" unicode="&#x101;" 
d="M922 0h-269v130q-77 -149 -223 -149q-119 0 -204.5 95t-85.5 239q0 170 107 270t313 100h93v122q0 116 -124 116q-120 0 -179 -127l-193 157q142 200 373 200q183 0 287.5 -93t104.5 -275v-785zM653 348v166h-93q-78 0 -115.5 -42.5t-37.5 -117.5q0 -135 114 -135
q119 0 132 129zM787 1269h-551v170h551v-170z" />
    <glyph glyph-name="Abreve" unicode="&#x102;" 
d="M800 1644q-107 -152 -288 -152q-182 0 -288 152v240h29q95 -209 259 -209q163 0 259 209h29v-240zM347 85v-85h-267v85q0 220 76 554l174 762h364l173 -762q77 -334 77 -554v-85h-267v85q0 118 -14 251h-303q-13 -133 -13 -251zM512 1215l-118 -650h236z" />
    <glyph glyph-name="abreve" unicode="&#x103;" 
d="M922 0h-269v130q-77 -149 -223 -149q-119 0 -204.5 95t-85.5 239q0 170 107 270t313 100h93v122q0 116 -124 116q-120 0 -179 -127l-193 157q142 200 373 200q183 0 287.5 -93t104.5 -275v-785zM653 348v166h-93q-78 0 -115.5 -42.5t-37.5 -117.5q0 -135 114 -135
q119 0 132 129zM800 1422q-107 -152 -288 -152q-182 0 -288 152v240h29q95 -209 259 -209q163 0 259 209h29v-240z" />
    <glyph glyph-name="Aogonek" unicode="&#x104;" 
d="M347 85v-85h-267v85q0 220 76 554l202 887h308l201 -887q77 -334 77 -554v-85h-267v85q0 118 -16 251h-298q-16 -133 -16 -251zM512 1126l-110 -561h220zM966 -356q-219 -6 -291.5 48.5t-72.5 141.5q0 102 124 166h190q-117 -53 -117 -125q0 -50 50 -67.5t117 -10.5v-153
z" />
    <glyph glyph-name="aogonek" unicode="&#x105;" 
d="M922 0h-269v130q-77 -149 -223 -149q-119 0 -204.5 95t-85.5 239q0 170 107 270t313 100h93v122q0 116 -124 116q-120 0 -179 -127l-193 157q142 200 373 200q183 0 287.5 -93t104.5 -275v-785zM653 348v166h-93q-78 0 -115.5 -42.5t-37.5 -117.5q0 -135 114 -135
q119 0 132 129zM932 -356q-219 -6 -291.5 48.5t-72.5 141.5q0 102 124 166h190q-117 -53 -117 -125q0 -50 50 -67.5t117 -10.5v-153z" />
    <glyph glyph-name="Cacute" unicode="&#x106;" 
d="M676 1883h270l-228 -236h-216zM967 212q-142 -231 -384 -231q-195 0 -303.5 110t-108.5 419v427q0 288 111 405t301 117q242 0 384 -231l-202 -138q-71 130 -182 130q-74 0 -108.5 -54.5t-34.5 -193.5v-505q0 -139 34.5 -194t108.5 -55q111 0 182 132z" />
    <glyph glyph-name="cacute" unicode="&#x107;" 
d="M900 188q-130 -207 -372 -207q-183 0 -292.5 119.5t-109.5 359.5v213q0 240 109.5 360t292.5 120q242 0 372 -209l-202 -138q-68 117 -170 117q-74 0 -103.5 -55t-29.5 -190v-233q0 -117 29.5 -176t103.5 -59q92 0 151 126zM622 1526h270l-228 -236h-216z" />
    <glyph glyph-name="Ccircumflex" unicode="&#x108;" 
d="M915 1647h-218l-132 146l-133 -146h-218l138 236h425zM967 212q-142 -231 -384 -231q-195 0 -303.5 110t-108.5 419v427q0 288 111 405t301 117q242 0 384 -231l-202 -138q-71 130 -182 130q-74 0 -108.5 -54.5t-34.5 -193.5v-505q0 -139 34.5 -194t108.5 -55
q111 0 182 132z" />
    <glyph glyph-name="ccircumflex" unicode="&#x109;" 
d="M900 188q-130 -207 -372 -207q-183 0 -292.5 119.5t-109.5 359.5v213q0 240 109.5 360t292.5 120q242 0 372 -209l-202 -138q-68 117 -170 117q-74 0 -103.5 -55t-29.5 -190v-233q0 -117 29.5 -176t103.5 -59q92 0 151 126zM886 1290h-218l-132 146l-133 -146h-218
l138 236h425z" />
    <glyph glyph-name="Cdotaccent" unicode="&#x10a;" 
d="M739 1743q0 -59 -38.5 -99.5t-121.5 -40.5t-121 40.5t-38 99.5q0 60 38 100t121 40t121.5 -40t38.5 -100zM967 212q-142 -231 -384 -231q-195 0 -303.5 110t-108.5 419v427q0 288 111 405t301 117q242 0 384 -231l-202 -138q-71 130 -182 130q-74 0 -108.5 -54.5
t-34.5 -193.5v-505q0 -139 34.5 -194t108.5 -55q111 0 182 132z" />
    <glyph glyph-name="cdotaccent" unicode="&#x10b;" 
d="M900 188q-130 -207 -372 -207q-183 0 -292.5 119.5t-109.5 359.5v213q0 240 109.5 360t292.5 120q242 0 372 -209l-202 -138q-68 117 -170 117q-74 0 -103.5 -55t-29.5 -190v-233q0 -117 29.5 -176t103.5 -59q92 0 151 126zM710 1386q0 -59 -38.5 -99.5t-121.5 -40.5
t-121 40.5t-38 99.5q0 60 38 100t121 40t121.5 -40t38.5 -100z" />
    <glyph glyph-name="Ccaron" unicode="&#x10c;" 
d="M759 1647h-347l-177 236h218l133 -147l132 147h218zM967 212q-142 -231 -384 -231q-195 0 -303.5 110t-108.5 419v427q0 288 111 405t301 117q242 0 384 -231l-202 -138q-71 130 -182 130q-74 0 -108.5 -54.5t-34.5 -193.5v-505q0 -139 34.5 -194t108.5 -55
q111 0 182 132z" />
    <glyph glyph-name="ccaron" unicode="&#x10d;" 
d="M900 188q-130 -207 -372 -207q-183 0 -292.5 119.5t-109.5 359.5v213q0 240 109.5 360t292.5 120q242 0 372 -209l-202 -138q-68 117 -170 117q-74 0 -103.5 -55t-29.5 -190v-233q0 -117 29.5 -176t103.5 -59q92 0 151 126zM733 1290h-347l-177 236h218l133 -147l132 147
h218z" />
    <glyph glyph-name="Dcaron" unicode="&#x10e;" 
d="M641 1647h-347l-177 236h218l133 -147l132 147h218zM897 510q0 -289 -108.5 -399.5t-313.5 -110.5h-348v1439h348q205 0 313.5 -110.5t108.5 -398.5v-420zM629 486v468q0 147 -44 196.5t-130 49.5h-61v-960h61q86 0 130 49.5t44 196.5z" />
    <glyph glyph-name="dcaron" unicode="&#x10f;" 
d="M720 0h-228v107q-71 -126 -195 -126q-107 0 -185 108.5t-78 368.5v212q0 261 78 370t185 109q124 0 195 -128v505h228v-1526zM492 337v454q-53 128 -126 128q-51 0 -77.5 -63t-26.5 -175v-234q0 -112 26.5 -175t77.5 -63q72 0 126 128zM1038 1526l-66 -352h-169l42 352
h193z" />
    <glyph glyph-name="Dcroat" unicode="&#x110;" 
d="M52 913h104v613h300q205 0 333 -110.5t128 -398.5v-507q0 -289 -128 -399.5t-333 -110.5h-300v686h-104v227zM648 486v555q0 147 -48.5 196.5t-134.5 49.5h-42v-374h104v-227h-104v-446h42q86 0 134.5 49.5t48.5 196.5z" />
    <glyph glyph-name="dcroat" unicode="&#x111;" 
d="M957 1213h-92v-1213h-269v127q-88 -146 -212 -146q-145 0 -223.5 108.5t-78.5 368.5v125q0 261 78.5 370t223.5 109q124 0 212 -147v298h-174v163h174v150h269v-150h92v-163zM596 339v363q-34 128 -124 128q-59 0 -90 -63t-31 -221v-50q0 -159 31 -222t90 -63
q89 0 124 128z" />
    <glyph glyph-name="Emacron" unicode="&#x112;" 
d="M805 1665h-551v170h551v-170zM912 0h-761v1439h761v-230h-493v-339h354v-230h-354v-410h493v-230z" />
    <glyph glyph-name="emacron" unicode="&#x113;" 
d="M902 532h-514v-125q0 -98 30.5 -147t104.5 -49q107 0 171 106l201 -138q-130 -198 -383 -198q-174 0 -283 110t-109 369v213q0 259 109 369.5t283 110.5q173 0 281.5 -110t108.5 -370v-141zM636 704v42q0 96 -30 146.5t-94 50.5t-94.5 -50.5t-30.5 -146.5v-42h249z
M788 1356h-551v170h551v-170z" />
    <glyph glyph-name="Ebreve" unicode="&#x114;" 
d="M800 1644q-107 -152 -288 -152q-182 0 -288 152v240h29q95 -209 259 -209q163 0 259 209h29v-240zM931 0h-771v1401h762v-230h-493v-296h353v-230h-353v-415h502v-230z" />
    <glyph glyph-name="ebreve" unicode="&#x115;" 
d="M902 532h-514v-125q0 -98 30.5 -147t104.5 -49q107 0 171 106l201 -138q-130 -198 -383 -198q-174 0 -283 110t-109 369v213q0 259 109 369.5t283 110.5q173 0 281.5 -110t108.5 -370v-141zM636 704v42q0 96 -30 146.5t-94 50.5t-94.5 -50.5t-30.5 -146.5v-42h249z
M800 1422q-107 -152 -288 -152q-182 0 -288 152v240h29q95 -209 259 -209q163 0 259 209h29v-240z" />
    <glyph glyph-name="Edotaccent" unicode="&#x116;" 
d="M671 1743q0 -59 -38.5 -99.5t-121.5 -40.5t-121 40.5t-38 99.5q0 60 38 100t121 40t121.5 -40t38.5 -100zM912 0h-761v1439h761v-230h-493v-339h354v-230h-354v-410h493v-230z" />
    <glyph glyph-name="edotaccent" unicode="&#x117;" 
d="M902 532h-514v-125q0 -98 30.5 -147t104.5 -49q107 0 171 106l201 -138q-130 -198 -383 -198q-174 0 -283 110t-109 369v213q0 259 109 369.5t283 110.5q173 0 281.5 -110t108.5 -370v-141zM636 704v42q0 96 -30 146.5t-94 50.5t-94.5 -50.5t-30.5 -146.5v-42h249z
M661 1386q0 -59 -38.5 -99.5t-121.5 -40.5t-121 40.5t-38 99.5q0 60 38 100t121 40t121.5 -40t38.5 -100z" />
    <glyph glyph-name="Eogonek" unicode="&#x118;" 
d="M921 0h-771v1526h762v-230h-493v-382h353v-230h-353v-454h502v-230zM934 -356q-219 -6 -291.5 48.5t-72.5 141.5q0 102 124 166h190q-117 -53 -117 -125q0 -50 50 -67.5t117 -10.5v-153z" />
    <glyph glyph-name="eogonek" unicode="&#x119;" 
d="M902 532h-514v-125q0 -98 30.5 -147t104.5 -49q107 0 171 106l201 -138q-130 -198 -383 -198q-174 0 -283 110t-109 369v213q0 259 109 369.5t283 110.5q173 0 281.5 -110t108.5 -370v-141zM636 704v42q0 96 -30 146.5t-94 50.5t-94.5 -50.5t-30.5 -146.5v-42h249z
M703 -356q-219 -6 -291.5 48.5t-72.5 141.5q0 102 124 166h190q-117 -53 -117 -125q0 -50 50 -67.5t117 -10.5v-153z" />
    <glyph glyph-name="Ecaron" unicode="&#x11a;" 
d="M686 1647h-347l-177 236h218l133 -147l132 147h218zM912 0h-761v1439h761v-230h-493v-339h354v-230h-354v-410h493v-230z" />
    <glyph glyph-name="ecaron" unicode="&#x11b;" 
d="M902 532h-514v-125q0 -98 30.5 -147t104.5 -49q107 0 171 106l201 -138q-130 -198 -383 -198q-174 0 -283 110t-109 369v213q0 259 109 369.5t283 110.5q173 0 281.5 -110t108.5 -370v-141zM636 704v42q0 96 -30 146.5t-94 50.5t-94.5 -50.5t-30.5 -146.5v-42h249z
M686 1290h-347l-177 236h218l133 -147l132 147h218z" />
    <glyph glyph-name="Gcircumflex" unicode="&#x11c;" 
d="M849 1647h-218l-132 146l-133 -146h-218l138 236h425zM903 490q0 -289 -109 -399t-282 -110t-282 110t-109 399v459q0 288 109 399t282 111q240 0 372 -209l-202 -138q-62 108 -162 108q-65 0 -98.5 -55t-33.5 -188v-522q0 -127 26 -182t99 -55t97.5 54.5t24.5 182.5v137
h-92v229h360v-331z" />
    <glyph glyph-name="gcircumflex" unicode="&#x11d;" 
d="M908 939h-59l-45 10q29 -55 29 -132q0 -131 -95.5 -218t-269.5 -87q-37 0 -76 1q-54 -54 -54 -103q0 -36 32 -53t92 -17h74q192 0 287 -95t95 -242q0 -164 -125.5 -264.5t-341.5 -100.5q-207 0 -304 98t-97 225q0 155 163 248q-117 64 -117 175q0 102 136 183
q-139 82 -139 258q0 149 99 236t277 87q42 0 99 -9q75 -7 340 -7v-193zM575 836q0 71 -29.5 104t-80.5 33q-52 0 -82.5 -33t-30.5 -107q0 -82 30.5 -114t81.5 -32q53 0 82 32t29 117zM649 -7q0 65 -35 100.5t-101 35.5h-45q-70 0 -110 -39t-40 -106q0 -59 35 -98t116 -39
q180 0 180 146zM862 1290h-218l-132 146l-133 -146h-218l138 236h425z" />
    <glyph glyph-name="Gbreve" unicode="&#x11e;" 
d="M800 1644q-107 -152 -288 -152q-182 0 -288 152v240h29q95 -209 259 -209q163 0 259 209h29v-240zM903 490q0 -289 -109 -399t-282 -110t-282 110t-109 399v419q0 289 109 399.5t282 110.5q240 0 372 -209l-202 -138q-62 108 -162 108q-65 0 -98.5 -55t-33.5 -188v-482
q0 -127 26 -182t99 -55t97.5 54.5t24.5 182.5v142h-92v229h360v-336z" />
    <glyph glyph-name="gbreve" unicode="&#x11f;" 
d="M908 939h-59l-45 10q29 -55 29 -132q0 -131 -95.5 -218t-269.5 -87q-37 0 -76 1q-54 -54 -54 -103q0 -36 32 -53t92 -17h74q192 0 287 -95t95 -242q0 -164 -125.5 -264.5t-341.5 -100.5q-207 0 -304 98t-97 225q0 155 163 248q-117 64 -117 175q0 102 136 183
q-139 82 -139 258q0 149 99 236t277 87q42 0 99 -9q75 -7 340 -7v-193zM575 836q0 71 -29.5 104t-80.5 33q-52 0 -82.5 -33t-30.5 -107q0 -82 30.5 -114t81.5 -32q53 0 82 32t29 117zM649 -7q0 65 -35 100.5t-101 35.5h-45q-70 0 -110 -39t-40 -106q0 -59 35 -98t116 -39
q180 0 180 146zM800 1422q-107 -152 -288 -152q-182 0 -288 152v240h29q95 -209 259 -209q163 0 259 209h29v-240z" />
    <glyph glyph-name="Gdotaccent" unicode="&#x120;" 
d="M670 1743q0 -59 -38.5 -99.5t-121.5 -40.5t-121 40.5t-38 99.5q0 60 38 100t121 40t121.5 -40t38.5 -100zM903 490q0 -289 -109 -399t-282 -110t-282 110t-109 399v459q0 288 109 399t282 111q240 0 372 -209l-202 -138q-62 108 -162 108q-65 0 -98.5 -55t-33.5 -188
v-522q0 -127 26 -182t99 -55t97.5 54.5t24.5 182.5v137h-92v229h360v-331z" />
    <glyph glyph-name="gdotaccent" unicode="&#x121;" 
d="M908 939h-59l-45 10q29 -55 29 -132q0 -131 -95.5 -218t-269.5 -87q-37 0 -76 1q-54 -54 -54 -103q0 -36 32 -53t92 -17h74q192 0 287 -95t95 -242q0 -164 -125.5 -264.5t-341.5 -100.5q-207 0 -304 98t-97 225q0 155 163 248q-117 64 -117 175q0 102 136 183
q-139 82 -139 258q0 149 99 236t277 87q42 0 99 -9q75 -7 340 -7v-193zM575 836q0 71 -29.5 104t-80.5 33q-52 0 -82.5 -33t-30.5 -107q0 -82 30.5 -114t81.5 -32q53 0 82 32t29 117zM649 -7q0 65 -35 100.5t-101 35.5h-45q-70 0 -110 -39t-40 -106q0 -59 35 -98t116 -39
q180 0 180 146zM658 1386q0 -59 -38.5 -99.5t-121.5 -40.5t-121 40.5t-38 99.5q0 60 38 100t121 40t121.5 -40t38.5 -100z" />
    <glyph glyph-name="Gcommaaccent" unicode="&#x122;" 
d="M903 490q0 -289 -109 -399t-282 -110t-282 110t-109 399v547q0 289 109 400t282 111q240 0 372 -209l-202 -138q-62 108 -162 108q-65 0 -98.5 -55t-33.5 -189v-610q0 -127 26 -182t99 -55t97.5 54.5t24.5 182.5v181h-92v229h360v-375zM608 -154q0 -79 -75 -199h-110
q47 67 65 136q-32 1 -55 26t-23 59q0 33 23 58.5t72 25.5q45 0 74 -30.5t29 -75.5z" />
    <glyph glyph-name="gcommaaccent" unicode="&#x123;" 
d="M908 939h-59l-45 10q29 -55 29 -132q0 -131 -95.5 -218t-269.5 -87q-37 0 -76 1q-54 -54 -54 -103q0 -36 32 -53t92 -17h74q192 0 287 -95t95 -242q0 -164 -125.5 -264.5t-341.5 -100.5q-207 0 -304 98t-97 225q0 155 163 248q-117 64 -117 175q0 102 136 183
q-139 82 -139 258q0 149 99 236t277 87q42 0 99 -9q75 -7 340 -7v-193zM575 836q0 71 -29.5 104t-80.5 33q-52 0 -82.5 -33t-30.5 -107q0 -82 30.5 -114t81.5 -32q53 0 82 32t29 117zM649 -7q0 65 -35 100.5t-101 35.5h-45q-70 0 -110 -39t-40 -106q0 -59 35 -98t116 -39
q180 0 180 146zM309 1270l266 256h264l-211 -256h-319z" />
    <glyph glyph-name="Hcircumflex" unicode="&#x124;" 
d="M862 1647h-218l-132 146l-133 -146h-218l138 236h425zM902 0h-268v662h-245v-662h-268v1439h268v-547h245v547h268v-1439z" />
    <glyph glyph-name="hcircumflex" unicode="&#x125;" 
d="M908 0h-268v713q0 127 -31.5 165.5t-90.5 38.5q-100 0 -124 -137v-780h-268v1526h268v-524q88 147 232 147q126 0 204 -94t78 -332v-723zM843 1647h-218l-132 146l-133 -146h-218l138 236h425z" />
    <glyph glyph-name="Hbar" unicode="&#x126;" 
d="M902 0h-268v667h-245v-667h-268v1145h-78v148h78v233h268v-233h245v233h268v-233h78v-148h-78v-1145zM634 896v249h-245v-249h245z" />
    <glyph glyph-name="hbar" unicode="&#x127;" 
d="M584 1232h-185v-298q88 147 232 147q125 0 203.5 -93.5t78.5 -332.5v-655h-269v645q0 128 -31 166t-90 38q-100 0 -124 -137v-712h-269v1232h-97v148h97v146h269v-146h185v-148z" />
    <glyph glyph-name="Itilde" unicode="&#x128;" 
d="M875 1795q-111 -207 -235 -207q-48 0 -129.5 56.5t-118.5 56.5q-62 0 -122 -113l-122 89q111 207 235 207q48 0 129.5 -56.5t118.5 -56.5q62 0 122 113zM846 0h-668v220h200v999h-159v220h586v-220h-159v-999h200v-220z" />
    <glyph glyph-name="itilde" unicode="&#x129;" 
d="M849 0h-675v220h204v692h-175v220h443v-912h203v-220zM827 1457q-111 -207 -235 -207q-48 0 -129.5 56.5t-118.5 56.5q-62 0 -122 -113l-122 89q111 207 235 207q48 0 129.5 -56.5t118.5 -56.5q62 0 122 113z" />
    <glyph glyph-name="Imacron" unicode="&#x12a;" 
d="M788 1713h-551v170h551v-170zM846 0h-668v220h200v999h-159v220h586v-220h-159v-999h200v-220z" />
    <glyph glyph-name="imacron" unicode="&#x12b;" 
d="M849 0h-675v220h204v692h-175v220h443v-912h203v-220zM720 1356h-551v170h551v-170z" />
    <glyph glyph-name="Ibreve" unicode="&#x12c;" 
d="M801 1644q-107 -152 -288 -152q-182 0 -288 152v240h29q95 -209 259 -209q163 0 259 209h29v-240zM846 0h-668v220h200v960h-159v221h586v-221h-159v-960h200v-220z" />
    <glyph glyph-name="ibreve" unicode="&#x12d;" 
d="M849 0h-675v220h204v692h-175v220h443v-912h203v-220zM762 1422q-107 -152 -288 -152q-182 0 -288 152v240h29q95 -209 259 -209q163 0 259 209h29v-240z" />
    <glyph glyph-name="Iogonek" unicode="&#x12e;" 
d="M846 0h-668v220h200v1086h-159v220h586v-220h-159v-1086h200v-220zM648 -356q-219 -6 -291.5 48.5t-72.5 141.5q0 102 124 166h190q-117 -53 -117 -125q0 -50 50 -67.5t117 -10.5v-153z" />
    <glyph glyph-name="iogonek" unicode="&#x12f;" 
d="M650 1496q0 -73 -49 -122t-131 -49t-130.5 49t-48.5 122q0 74 48.5 123t130.5 49t131 -49t49 -123zM839 0h-675v220h204v692h-175v220h443v-912h203v-220zM648 -356q-219 -6 -291.5 48.5t-72.5 141.5q0 102 124 166h190q-117 -53 -117 -125q0 -50 50 -67.5t117 -10.5
v-153z" />
    <glyph glyph-name="Idotaccent" unicode="&#x130;" 
d="M671 1743q0 -59 -38.5 -99.5t-121.5 -40.5t-121 40.5t-38 99.5q0 60 38 100t121 40t121.5 -40t38.5 -100zM846 0h-668v220h200v999h-159v220h586v-220h-159v-999h200v-220z" />
    <glyph glyph-name="IJ" unicode="&#x132;" 
d="M903 448q0 -247 -109 -357t-282 -110t-282 110t-109 357v126h268v-158q0 -105 28.5 -155t93.5 -50q64 0 94 50t30 155v1110h268v-1078zM389 738h-268v788h268v-788z" />
    <glyph glyph-name="ij" unicode="&#x133;" 
d="M427 1496q0 -64 -42.5 -106.5t-114.5 -42.5q-73 0 -115.5 42.5t-42.5 106.5q0 65 42.5 108t115.5 43q72 0 114.5 -43t42.5 -108zM414 0h-267v1132h267v-1132zM611 25v1107h267v-1101q0 -203 -90 -298t-268 -95q-220 0 -338 178l202 116q38 -64 124 -64q46 0 74.5 34
t28.5 123zM891 1496q0 -64 -42.5 -106.5t-115.5 -42.5q-72 0 -114.5 42.5t-42.5 106.5q0 65 42.5 108t114.5 43q73 0 115.5 -43t42.5 -108z" />
    <glyph glyph-name="Jcircumflex" unicode="&#x134;" 
d="M930 1647h-218l-132 146l-133 -146h-218l138 236h425zM853 469q0 -268 -109 -378t-282 -110t-282 110t-109 378v213h268v-218q0 -137 29 -196t93 -59t93.5 59.5t29.5 195.5v975h269v-970z" />
    <glyph glyph-name="jcircumflex" unicode="&#x135;" 
d="M862 1290h-218l-132 146l-133 -146h-218l138 236h425zM479 25v887h-256v220h524v-1101q0 -203 -90 -298t-269 -95q-219 0 -338 178l203 116q38 -64 124 -64q47 0 74.5 34t27.5 123z" />
    <glyph glyph-name="Kcommaaccent" unicode="&#x136;" 
d="M443 1526v-636l136 200q100 147 125 367l7 69h267l-18 -154q-22 -193 -154 -390l-71 -103l94 -159q138 -235 168 -491l27 -229h-276l-20 170q-33 281 -132 447l-47 79l-106 -157v-539h-269v1526h269zM714 -154q0 -79 -75 -199h-110q47 67 65 136q-32 1 -55 26t-23 59
q0 33 23 58.5t72 25.5q45 0 74 -30.5t29 -75.5z" />
    <glyph glyph-name="kcommaaccent" unicode="&#x137;" 
d="M992 0h-267q-7 125 -185 408l-26 37l-79 -96v-349h-267v1526h267v-841l99 125q154 189 161 322h267l-2 -37q-9 -151 -224 -414l-52 -64l52 -78q246 -353 253 -499zM677 -154q0 -79 -75 -199h-110q47 67 65 136q-32 1 -55 26t-23 59q0 33 23 58.5t72 25.5q45 0 74 -30.5
t29 -75.5z" />
    <glyph glyph-name="kgreenlandic" unicode="&#x138;" 
d="M966 0h-267q-7 125 -185 408l-26 37l-79 -96v-349h-267v1132h267v-447l99 125q154 189 161 322h267l-2 -37q-9 -151 -224 -414l-52 -64l52 -78q246 -353 253 -499z" />
    <glyph glyph-name="Lacute" unicode="&#x139;" 
d="M406 1883h270l-228 -236h-216zM953 0h-761v1439h269v-1209h492v-230z" />
    <glyph glyph-name="lacute" unicode="&#x13a;" 
d="M598 1883h270l-228 -236h-216zM860 0h-676v220h204v999h-166v220h435v-1219h203v-220z" />
    <glyph glyph-name="Lcommaaccent" unicode="&#x13b;" 
d="M921 0h-761v1526h269v-1296h492v-230zM618 -154q0 -79 -75 -199h-110q47 67 65 136q-32 1 -55 26t-23 59q0 33 23 58.5t72 25.5q45 0 74 -30.5t29 -75.5z" />
    <glyph glyph-name="lcommaaccent" unicode="&#x13c;" 
d="M870 0h-676v220h204v1086h-166v220h435v-1306h203v-220zM589 -154q0 -79 -75 -199h-110q47 67 65 136q-32 1 -55 26t-23 59q0 33 23 58.5t72 25.5q45 0 74 -30.5t29 -75.5z" />
    <glyph glyph-name="Lcaron" unicode="&#x13d;" 
d="M921 0h-761v1526h269v-1296h492v-230zM874 1526l-67 -352h-178l42 352h203z" />
    <glyph glyph-name="lcaron" unicode="&#x13e;" 
d="M950 1526l-67 -352h-178l42 352h203zM763 0h-676v220h204v1086h-166v220h435v-1306h203v-220z" />
    <glyph glyph-name="Ldot" unicode="&#x13f;" 
d="M911 0h-761v1526h269v-1296h492v-230zM896 634q0 -59 -38.5 -99.5t-121.5 -40.5t-121 40.5t-38 99.5q0 60 38 100t121 40t121.5 -40t38.5 -100z" />
    <glyph glyph-name="ldot" unicode="&#x140;" 
d="M763 0h-676v220h204v1086h-166v220h435v-1306h203v-220zM973 634q0 -59 -38.5 -99.5t-121.5 -40.5t-121 40.5t-38 99.5q0 60 38 100t121 40t121.5 -40t38.5 -100z" />
    <glyph glyph-name="Nacute" unicode="&#x143;" 
d="M608 1883h270l-228 -236h-216zM883 0h-255l-301 947q31 -319 31 -679v-268h-218v1439h257l299 -946q-31 318 -31 679v267h218v-1439z" />
    <glyph glyph-name="nacute" unicode="&#x144;" 
d="M908 0h-268v724q0 116 -31.5 154.5t-90.5 38.5q-100 0 -124 -137v-780h-268v1132h268v-130q88 147 232 147q126 0 204 -94t78 -331v-724zM656 1526h270l-228 -236h-216z" />
    <glyph glyph-name="Ncommaaccent" unicode="&#x145;" 
d="M887 0h-257l-299 966q31 -338 31 -698v-268h-218v1526h257l299 -966q-31 338 -31 699v267h218v-1526zM608 -154q0 -79 -75 -199h-110q47 67 65 136q-32 1 -55 26t-23 59q0 33 23 58.5t72 25.5q45 0 74 -30.5t29 -75.5z" />
    <glyph glyph-name="ncommaaccent" unicode="&#x146;" 
d="M908 0h-268v724q0 116 -31.5 154.5t-90.5 38.5q-100 0 -124 -137v-780h-268v1132h268v-130q88 147 232 147q126 0 204 -94t78 -331v-724zM608 -154q0 -79 -75 -199h-110q47 67 65 136q-32 1 -55 26t-23 59q0 33 23 58.5t72 25.5q45 0 74 -30.5t29 -75.5z" />
    <glyph glyph-name="Ncaron" unicode="&#x147;" 
d="M685 1647h-347l-177 236h218l133 -147l132 147h218zM883 0h-255l-301 947q31 -319 31 -679v-268h-218v1439h257l299 -946q-31 318 -31 679v267h218v-1439z" />
    <glyph glyph-name="ncaron" unicode="&#x148;" 
d="M908 0h-268v724q0 116 -31.5 154.5t-90.5 38.5q-100 0 -124 -137v-780h-268v1132h268v-130q88 147 232 147q126 0 204 -94t78 -331v-724zM676 1290h-347l-177 236h218l133 -147l132 147h218z" />
    <glyph glyph-name="napostrophe" unicode="&#x149;" 
d="M913 0h-269v724q0 116 -26.5 154.5t-75.5 38.5q-80 0 -104 -137v-780h-269v1132h269v-130q78 147 212 147q116 0 189.5 -94t73.5 -331v-724zM306 1526l-65 -248h-176l41 248h200z" />
    <glyph glyph-name="Eng" unicode="&#x14a;" 
d="M902 31q0 -200 -87 -291t-250 -91h-109v228h50q65 0 96.5 36t31.5 118v431l-269 587l24 -707v-342h-268v1526h225l311 -679l-23 462v217h268v-1495z" />
    <glyph glyph-name="eng" unicode="&#x14b;" 
d="M635 724q0 116 -31.5 154.5t-90.5 38.5q-100 0 -124 -137v-780h-268v1132h268v-130q88 147 233 147q125 0 203 -94t78 -331v-674q0 -229 -90 -315t-254 -86h-90v211h29q74 0 105 35.5t31 120.5z" />
    <glyph glyph-name="Omacron" unicode="&#x14c;" 
d="M788 1713h-551v170h551v-170zM906 490q0 -289 -109 -399t-285 -110t-285 110t-109 399v459q0 288 109 399t285 111t285 -111t109 -399v-459zM638 457v524q0 128 -25.5 183t-101.5 55t-100.5 -54.5t-24.5 -183.5v-524q0 -127 25.5 -182t101.5 -55t100.5 54.5t24.5 182.5z
" />
    <glyph glyph-name="omacron" unicode="&#x14d;" 
d="M903 459q0 -259 -108.5 -368.5t-281.5 -109.5t-282 109.5t-109 368.5v214q0 260 109 370t282 110t281.5 -110t108.5 -370v-214zM635 456v214q0 154 -29 203.5t-93 49.5t-93.5 -49.5t-29.5 -203.5v-214q0 -146 29.5 -195.5t93.5 -49.5t93 49.5t29 195.5zM788 1356h-551
v170h551v-170z" />
    <glyph glyph-name="Obreve" unicode="&#x14e;" 
d="M800 1644q-107 -152 -288 -152q-182 0 -288 152v240h29q95 -209 259 -209q163 0 259 209h29v-240zM906 490q0 -289 -109 -399t-285 -110t-285 110t-109 399v420q0 289 109 399.5t285 110.5t285 -110.5t109 -399.5v-420zM638 457v486q0 127 -25.5 182t-101.5 55
t-100.5 -54.5t-24.5 -182.5v-486q0 -127 25.5 -182t101.5 -55t100.5 54.5t24.5 182.5z" />
    <glyph glyph-name="obreve" unicode="&#x14f;" 
d="M902 459q0 -259 -108.5 -368.5t-281.5 -109.5t-282 109.5t-109 368.5v214q0 260 109 370t282 110t281.5 -110t108.5 -370v-214zM634 456v214q0 154 -29 203.5t-93 49.5t-93.5 -49.5t-29.5 -203.5v-214q0 -146 29.5 -195.5t93.5 -49.5t93 49.5t29 195.5zM800 1422
q-107 -152 -288 -152q-182 0 -288 152v240h29q95 -209 259 -209q163 0 259 209h29v-240z" />
    <glyph glyph-name="Ohungarumlaut" unicode="&#x150;" 
d="M1049 1883l-267 -294h-178l212 294h233zM689 1883l-266 -294h-179l213 294h232zM906 490q0 -289 -109 -399t-285 -110t-285 110t-109 399v459q0 288 109 399t285 111t285 -111t109 -399v-459zM638 457v524q0 128 -25.5 183t-101.5 55t-100.5 -54.5t-24.5 -183.5v-524
q0 -127 25.5 -182t101.5 -55t100.5 54.5t24.5 182.5z" />
    <glyph glyph-name="ohungarumlaut" unicode="&#x151;" 
d="M902 459q0 -259 -108.5 -368.5t-281.5 -109.5t-282 109.5t-109 368.5v214q0 260 109 370t282 110t281.5 -110t108.5 -370v-214zM634 456v214q0 154 -29 203.5t-93 49.5t-93.5 -49.5t-29.5 -203.5v-214q0 -146 29.5 -195.5t93.5 -49.5t93 49.5t29 195.5zM1040 1526
l-267 -294h-178l212 294h233zM680 1526l-266 -294h-179l213 294h232z" />
    <glyph glyph-name="Racute" unicode="&#x154;" 
d="M569 1883h270l-228 -236h-216zM957 0h-265l-4 55q-28 384 -161 564h-107v-619h-268v1439h391q183 0 282 -105t99 -305q0 -263 -171 -361q174 -236 200 -600zM655 1029q0 82 -29.5 132t-113.5 50h-92v-364h92q84 0 113.5 50.5t29.5 131.5z" />
    <glyph glyph-name="racute" unicode="&#x155;" 
d="M1004 941l-255 -116q-37 92 -104 92q-143 0 -143 -238v-679h-269v1132h269v-130q91 151 241 151q160 0 261 -212zM648 1526h270l-228 -236h-216z" />
    <glyph glyph-name="Rcommaaccent" unicode="&#x156;" 
d="M944 0h-272l-9 132q-22 341 -160 531h-96v-663h-268v1526h391q183 0 282 -105t99 -331q0 -271 -174 -373q177 -242 198 -550zM642 1090q0 108 -29.5 158t-113.5 50h-92v-407h92q84 0 113.5 50t29.5 149zM637 -154q0 -79 -75 -199h-110q47 67 65 136q-32 1 -55 26t-23 59
q0 33 23 58.5t72 25.5q45 0 74 -30.5t29 -75.5z" />
    <glyph glyph-name="rcommaaccent" unicode="&#x157;" 
d="M1004 941l-255 -116q-37 92 -104 92q-143 0 -143 -238v-679h-269v1132h269v-130q91 151 241 151q160 0 261 -212zM421 -154q0 -79 -75 -199h-110q47 67 65 136q-32 1 -55 26t-23 59q0 33 23 58.5t72 25.5q45 0 74 -30.5t29 -75.5z" />
    <glyph glyph-name="Rcaron" unicode="&#x158;" 
d="M656 1647h-347l-177 236h218l133 -147l132 147h218zM957 0h-265l-4 55q-28 384 -161 564h-107v-619h-268v1439h391q183 0 282 -105t99 -305q0 -263 -171 -361q174 -236 200 -600zM655 1029q0 82 -29.5 132t-113.5 50h-92v-364h92q84 0 113.5 50.5t29.5 131.5z" />
    <glyph glyph-name="rcaron" unicode="&#x159;" 
d="M1004 941l-255 -116q-37 92 -104 92q-143 0 -143 -238v-679h-269v1132h269v-130q91 151 241 151q160 0 261 -212zM725 1290h-347l-177 236h218l133 -147l132 147h218z" />
    <glyph glyph-name="Sacute" unicode="&#x15a;" 
d="M627 1883h270l-228 -236h-216zM947 385q0 -174 -108.5 -289t-322.5 -115q-258 0 -410 241l202 138q91 -142 217 -142q73 0 113.5 38.5t40.5 108.5q0 79 -87 151l-281 228q-156 127 -156 309q0 184 105.5 295t284.5 111q232 0 374 -199l-202 -138q-80 98 -162 98
q-62 0 -97.5 -34.5t-35.5 -100.5q0 -69 87 -139l264 -215q174 -141 174 -346z" />
    <glyph glyph-name="sacute" unicode="&#x15b;" 
d="M935 315q0 -145 -99.5 -239.5t-301.5 -94.5q-255 0 -406 231l184 126q78 -138 214 -138q141 0 141 117q0 64 -79 102l-171 83q-222 111 -222 310q0 159 99.5 250t271.5 91q223 0 364 -209l-187 -128q-62 117 -167 117q-51 0 -82.5 -27.5t-31.5 -75.5q0 -74 87 -116
l144 -71q242 -118 242 -328zM647 1526h270l-228 -236h-216z" />
    <glyph glyph-name="Scircumflex" unicode="&#x15c;" 
d="M891 1647h-218l-132 146l-133 -146h-218l138 236h425zM947 385q0 -174 -108.5 -289t-322.5 -115q-258 0 -410 241l202 138q91 -142 217 -142q73 0 113.5 38.5t40.5 108.5q0 79 -87 151l-281 228q-156 127 -156 309q0 184 105.5 295t284.5 111q232 0 374 -199l-202 -138
q-80 98 -162 98q-62 0 -97.5 -34.5t-35.5 -100.5q0 -69 87 -139l264 -215q174 -141 174 -346z" />
    <glyph glyph-name="scircumflex" unicode="&#x15d;" 
d="M935 315q0 -145 -99.5 -239.5t-301.5 -94.5q-255 0 -406 231l184 126q78 -138 214 -138q141 0 141 117q0 64 -79 102l-171 83q-222 111 -222 310q0 159 99.5 250t271.5 91q223 0 364 -209l-187 -128q-62 117 -167 117q-51 0 -82.5 -27.5t-31.5 -75.5q0 -74 87 -116
l144 -71q242 -118 242 -328zM904 1290h-218l-132 146l-133 -146h-218l138 236h425z" />
    <glyph glyph-name="Scedilla" unicode="&#x15e;" 
d="M945 385q0 -174 -108.5 -289t-322.5 -115q-258 0 -410 241l202 138q91 -142 217 -142q73 0 113.5 38.5t40.5 108.5q0 75 -70 146l-313 313q-141 139 -141 318q0 184 105.5 295t284.5 111q232 0 374 -199l-202 -139q-80 99 -162 99q-62 0 -97.5 -35t-35.5 -110
q0 -71 73 -142l290 -290q162 -150 162 -347zM327 -233q142 -9 142 45q0 51 -79 44l48 96q237 -8 237 -139q0 -80 -64.5 -127.5t-283.5 -47.5v129z" />
    <glyph glyph-name="scedilla" unicode="&#x15f;" 
d="M935 315q0 -145 -99.5 -239.5t-301.5 -94.5q-255 0 -406 231l184 126q78 -138 214 -138q141 0 141 117q0 64 -79 102l-171 83q-222 111 -222 310q0 159 99.5 250t271.5 91q223 0 364 -209l-187 -128q-62 117 -167 117q-51 0 -82.5 -27.5t-31.5 -75.5q0 -74 87 -116
l144 -71q242 -118 242 -328zM337 -233q142 -9 142 45q0 51 -79 44l48 96q237 -8 237 -139q0 -80 -64.5 -127.5t-283.5 -47.5v129z" />
    <glyph glyph-name="Tcedilla" unicode="&#x162;" 
d="M931 1296h-285v-1296h-268v1296h-285v230h838v-230zM608 -154q0 -79 -75 -199h-110q47 67 65 136q-32 1 -55 26t-23 59q0 33 23 58.5t72 25.5q45 0 74 -30.5t29 -75.5z" />
    <glyph glyph-name="tcedilla" unicode="&#x163;" 
d="M947 149q-129 -168 -318 -168q-191 0 -280.5 94.5t-89.5 288.5v548h-151v220h151v394h268v-394h343v-220h-343v-567q0 -73 25 -103.5t77 -30.5q61 0 116 76zM714 -154q0 -79 -75 -199h-110q47 67 65 136q-32 1 -55 26t-23 59q0 33 23 58.5t72 25.5q45 0 74 -30.5
t29 -75.5z" />
    <glyph glyph-name="Tcaron" unicode="&#x164;" 
d="M685 1647h-347l-177 236h218l133 -147l132 147h218zM931 1209h-285v-1209h-268v1209h-285v230h838v-230z" />
    <glyph glyph-name="tcaron" unicode="&#x165;" 
d="M894 149q-129 -168 -318 -168q-191 0 -280.5 94.5t-89.5 288.5v547h-132v221h132v394h268v-394h256v-221h-256v-566q0 -73 25.5 -103.5t76.5 -30.5q61 0 116 76zM961 1526l-66 -352h-179l42 352h203z" />
    <glyph glyph-name="Tbar" unicode="&#x166;" 
d="M931 1296h-285v-392h257v-171h-257v-733h-268v733h-257v171h257v392h-285v230h838v-230z" />
    <glyph glyph-name="tbar" unicode="&#x167;" 
d="M952 149q-129 -168 -318 -168q-191 0 -280.5 94.5t-89.5 288.5v211h-151v171h151v165h-151v221h151v394h268v-394h343v-221h-343v-165h343v-171h-343v-230q0 -73 25 -103.5t77 -30.5q61 0 116 76z" />
    <glyph glyph-name="Utilde" unicode="&#x168;" 
d="M875 1795q-111 -207 -235 -207q-48 0 -129.5 56.5t-118.5 56.5q-62 0 -122 -113l-122 89q111 207 235 207q48 0 129.5 -56.5t118.5 -56.5q62 0 122 113zM903 448q0 -247 -109 -357t-282 -110t-282 110t-109 357v991h268v-1023q0 -105 28.5 -155t93.5 -50q64 0 94 50
t30 155v1023h268v-991z" />
    <glyph glyph-name="utilde" unicode="&#x169;" 
d="M903 0h-268v130q-88 -146 -232 -146q-126 0 -204 93.5t-78 330.5v724h268v-724q0 -116 31.5 -154.5t90.5 -38.5q100 0 124 138v779h268v-1132zM875 1457q-111 -207 -235 -207q-48 0 -129.5 56.5t-118.5 56.5q-62 0 -122 -113l-122 89q111 207 235 207q48 0 129.5 -56.5
t118.5 -56.5q62 0 122 113z" />
    <glyph glyph-name="Umacron" unicode="&#x16a;" 
d="M788 1665h-551v170h551v-170zM903 448q0 -247 -109 -357t-282 -110t-282 110t-109 357v991h268v-1023q0 -105 28.5 -155t93.5 -50q64 0 94 50t30 155v1023h268v-991z" />
    <glyph glyph-name="umacron" unicode="&#x16b;" 
d="M903 0h-268v130q-88 -146 -232 -146q-126 0 -204 93.5t-78 330.5v724h268v-724q0 -116 31.5 -154.5t90.5 -38.5q100 0 124 138v779h268v-1132zM788 1356h-551v170h551v-170z" />
    <glyph glyph-name="Ubreve" unicode="&#x16c;" 
d="M800 1644q-107 -152 -288 -152q-182 0 -288 152v240h29q95 -209 259 -209q163 0 259 209h29v-240zM903 448q0 -247 -109 -357t-282 -110t-282 110t-109 357v953h268v-985q0 -105 28.5 -155t93.5 -50q64 0 94 50t30 155v985h268v-953z" />
    <glyph glyph-name="ubreve" unicode="&#x16d;" 
d="M903 0h-268v130q-88 -146 -232 -146q-126 0 -204 93.5t-78 330.5v724h268v-724q0 -116 31.5 -154.5t90.5 -38.5q100 0 124 138v779h268v-1132zM800 1422q-107 -152 -288 -152q-182 0 -288 152v240h29q95 -209 259 -209q163 0 259 209h29v-240z" />
    <glyph glyph-name="Uring" unicode="&#x16e;" 
d="M767 1648q0 -98 -69 -167.5t-187 -69.5t-186.5 69.5t-68.5 167.5q0 99 68.5 167.5t186.5 68.5t187 -68.5t69 -167.5zM609 1648q0 45 -26.5 71t-71.5 26q-44 0 -70.5 -26t-26.5 -71q0 -44 26.5 -70.5t70.5 -26.5t71 27t27 70zM903 448q0 -247 -109 -357t-282 -110
t-282 110t-109 357v837h268v-869q0 -105 28.5 -155t93.5 -50q64 0 94 50t30 155v869h268v-837z" />
    <glyph glyph-name="uring" unicode="&#x16f;" 
d="M903 0h-268v130q-88 -146 -232 -146q-126 0 -204 93.5t-78 330.5v724h268v-724q0 -116 31.5 -154.5t90.5 -38.5q100 0 124 138v779h268v-1132zM767 1447q0 -98 -69 -167.5t-187 -69.5t-186.5 69.5t-68.5 167.5q0 99 68.5 167.5t186.5 68.5t187 -68.5t69 -167.5zM609 1447
q0 45 -26.5 71t-71.5 26q-44 0 -70.5 -26t-26.5 -71q0 -44 26.5 -70.5t70.5 -26.5t71 27t27 70z" />
    <glyph glyph-name="Uhungarumlaut" unicode="&#x170;" 
d="M1030 1883l-267 -294h-178l212 294h233zM670 1883l-266 -294h-179l213 294h232zM903 448q0 -247 -109 -357t-282 -110t-282 110t-109 357v991h268v-1023q0 -105 28.5 -155t93.5 -50q64 0 94 50t30 155v1023h268v-991z" />
    <glyph glyph-name="uhungarumlaut" unicode="&#x171;" 
d="M903 0h-268v130q-88 -146 -232 -146q-126 0 -204 93.5t-78 330.5v724h268v-724q0 -116 31.5 -154.5t90.5 -38.5q100 0 124 138v779h268v-1132zM1030 1526l-267 -294h-178l212 294h233zM670 1526l-266 -294h-179l213 294h232z" />
    <glyph glyph-name="Uogonek" unicode="&#x172;" 
d="M903 448q0 -245 -107.5 -356t-283.5 -111t-283.5 111t-107.5 356v1078h268v-1100q0 -120 30 -163t92 -43q61 0 92.5 43t31.5 163v1100h268v-1078zM667 -356q-219 -6 -291.5 48.5t-72.5 141.5q0 102 124 166h190q-117 -53 -117 -125q0 -50 50 -67.5t117 -10.5v-153z" />
    <glyph glyph-name="uogonek" unicode="&#x173;" 
d="M903 0h-268v130q-88 -146 -232 -146q-126 0 -204 93.5t-78 330.5v724h268v-724q0 -116 31.5 -154.5t90.5 -38.5q100 0 124 138v779h268v-1132zM931 -356q-219 -6 -291.5 48.5t-72.5 141.5q0 102 124 166h190q-117 -53 -117 -125q0 -50 50 -67.5t117 -10.5v-153z" />
    <glyph glyph-name="Wcircumflex" unicode="&#x174;" 
d="M862 1647h-218l-132 146l-133 -146h-218l138 236h425zM566 883l127 -614v1170h249v-281q0 -366 -48 -706l-64 -452h-210l-108 514l-108 -514h-210l-64 452q-48 340 -48 706v281h249v-1170l127 614h108z" />
    <glyph glyph-name="wcircumflex" unicode="&#x175;" 
d="M700 192v940h261v-150q0 -213 -64 -521l-95 -461h-187l-103 575l-103 -575h-187l-95 461q-64 308 -64 521v150h261v-940l93 520h190zM862 1290h-218l-132 146l-133 -146h-218l138 236h425z" />
    <glyph glyph-name="Ycircumflex" unicode="&#x176;" 
d="M862 1647h-218l-132 146l-133 -146h-218l138 236h425zM512 814l71 141q74 144 87 414l2 70h267l-2 -70q-14 -277 -142 -529l-149 -290v-550h-268v550l-149 290q-129 252 -142 529l-2 70h267l2 -70q13 -270 86 -414z" />
    <glyph glyph-name="ycircumflex" unicode="&#x177;" 
d="M222 -353l2 37q8 124 67 275l97 254l-207 519q-76 190 -83 313l-5 87h266l5 -81q11 -179 49 -279l99 -255l91 255q48 123 57 279l5 81h266l-6 -87q-6 -123 -80 -313l-299 -777q-46 -118 -55 -271l-2 -37h-267zM862 1290h-218l-132 146l-133 -146h-218l138 236h425z" />
    <glyph glyph-name="Zacute" unicode="&#x179;" 
d="M608 1883h270l-228 -236h-216zM885 1439v-145q0 -258 -118 -433l-268 -393q-65 -98 -65 -238h461v-230h-727v145q0 255 118 432l268 395q65 94 65 237h-441v230h707z" />
    <glyph glyph-name="zacute" unicode="&#x17a;" 
d="M865 0h-746v182q0 169 139 335l194 230q85 102 85 155h-408v230h707v-154q0 -144 -117 -295l-204 -263q-95 -122 -95 -190h445v-230zM569 1526h270l-228 -236h-216z" />
    <glyph glyph-name="Zdotaccent" unicode="&#x17b;" 
d="M690 1743q0 -59 -38.5 -99.5t-121.5 -40.5t-121 40.5t-38 99.5q0 60 38 100t121 40t121.5 -40t38.5 -100zM885 1439v-145q0 -258 -118 -433l-268 -393q-65 -98 -65 -238h461v-230h-727v145q0 255 118 432l268 395q65 94 65 237h-441v230h707z" />
    <glyph glyph-name="zdotaccent" unicode="&#x17c;" 
d="M865 0h-746v182q0 169 139 335l194 230q85 102 85 155h-408v230h707v-154q0 -144 -117 -295l-204 -263q-95 -122 -95 -190h445v-230zM667 1386q0 -59 -38.5 -99.5t-121.5 -40.5t-121 40.5t-38 99.5q0 60 38 100t121 40t121.5 -40t38.5 -100z" />
    <glyph glyph-name="longs" unicode="&#x17f;" 
d="M758 1271q-33 55 -90 55q-42 0 -67.5 -31.5t-25.5 -106.5v-1188h-270v849h-171v220h171v123q0 174 95 264.5t244 90.5q200 0 316 -138z" />
    <glyph glyph-name="grave.alt01" unicode="&#xf500;" 
d="M733 1290h-216l-228 236h270z" />
    <glyph glyph-name="acute.alt01" unicode="&#xf501;" 
d="M463 1526h270l-228 -236h-216z" />
    <glyph glyph-name="undercommaaccent" unicode="&#xf502;" 
d="M608 -154q0 -79 -75 -199h-110q47 67 65 136q-32 1 -55 26t-23 59q0 33 23 58.5t72 25.5q45 0 74 -30.5t29 -75.5z" />
    <glyph glyph-name="ringacute" unicode="&#xf503;" 
d="M865 1768l-252 -164h-163l174 164h241zM614 1396q0 33 -23 54t-79 21q-52 0 -77 -21t-25 -54t25 -54t77 -21q56 0 79 21t23 54zM738 1396q0 -75 -62 -122.5t-164 -47.5t-164 47.5t-62 122.5t62 122.5t164 47.5t164 -47.5t62 -122.5z" />
    <glyph glyph-name="cyrillicbreve" unicode="&#xf504;" 
d="M512 1275q-345 0 -355 251h207q3 -95 148 -95t148 95h207q-10 -251 -355 -251z" />
    <glyph glyph-name="B.alt01" unicode="&#xff22;" 
d="M923 444q0 -233 -109 -338.5t-284 -105.5h-392v1439h352q195 0 293.5 -95.5t98.5 -252.5q0 -117 -56 -197.5t-132 -102.5q123 -43 176 -128.5t53 -218.5zM613 1071q0 69 -34.5 104.5t-109.5 35.5h-62v-316h71q65 0 100 45t35 131zM655 444q0 122 -39.5 172.5t-114.5 50.5
h-94v-438h103q65 0 105 40t40 175z" />
    <glyph glyph-name="C.alt01" unicode="&#xff23;" 
d="M967 212q-142 -231 -384 -231q-195 0 -303.5 110t-108.5 419v427q0 288 111 405t301 117q242 0 384 -231l-202 -138q-71 130 -182 130q-74 0 -108.5 -54.5t-34.5 -193.5v-505q0 -139 34.5 -194t108.5 -55q111 0 182 132z" />
    <glyph glyph-name="D.alt01" unicode="&#xff24;" 
d="M897 510q0 -289 -108.5 -399.5t-313.5 -110.5h-348v1439h348q205 0 313.5 -110.5t108.5 -398.5v-420zM629 486v468q0 147 -44 196.5t-130 49.5h-61v-960h61q86 0 130 49.5t44 196.5z" />
    <glyph glyph-name="F.alt01" unicode="&#xff26;" 
d="M931 1209h-502v-339h394v-230h-394v-640h-269v1439h771v-230z" />
    <glyph glyph-name="G.alt01" unicode="&#xff27;" 
d="M903 490q0 -289 -109 -399t-282 -110t-282 110t-109 399v459q0 288 109 399t282 111q240 0 372 -209l-202 -138q-62 108 -162 108q-65 0 -98.5 -55t-33.5 -188v-522q0 -127 26 -182t99 -55t97.5 54.5t24.5 182.5v137h-92v229h360v-331z" />
    <glyph glyph-name="H.alt01" unicode="&#xff28;" 
d="M902 0h-268v662h-245v-662h-268v1439h268v-547h245v547h268v-1439z" />
    <glyph glyph-name="J.alt01" unicode="&#xff2a;" 
d="M853 469q0 -268 -109 -378t-282 -110t-282 110t-109 378v213h268v-218q0 -137 29 -196t93 -59t93.5 59.5t29.5 195.5v975h269v-970z" />
    <glyph glyph-name="K.alt01" unicode="&#xff2b;" 
d="M404 1439v-593l55 81q165 243 208 478l5 34h267l-8 -51q-50 -277 -235 -551q212 -363 280 -769l9 -68h-276l-8 53q-62 368 -194 594l-103 -151v-496h-269v1439h269z" />
    <glyph glyph-name="L.alt01" unicode="&#xff2c;" 
d="M953 0h-761v1439h269v-1209h492v-230z" />
    <glyph glyph-name="M.alt01" unicode="&#xff2d;" 
d="M512 930l154 509h246v-1439h-246v239q0 313 77 974l-178 -585h-106l-178 585q77 -661 77 -974v-239h-246v1439h246z" />
    <glyph glyph-name="P.alt01" unicode="&#xff30;" 
d="M964 983q0 -166 -109 -276.5t-283 -110.5h-122v-596h-268v1439h390q194 0 293 -110.5t99 -275.5v-70zM696 992v52q0 67 -30.5 117t-114.5 50h-101v-386h101q74 0 109.5 45.5t35.5 121.5z" />
    <glyph glyph-name="R.alt01" unicode="&#xff32;" 
d="M957 0h-265l-4 55q-28 384 -161 564h-107v-619h-268v1439h391q183 0 282 -105t99 -305q0 -263 -171 -361q174 -236 200 -600zM655 1029q0 82 -29.5 132t-113.5 50h-92v-364h92q84 0 113.5 50.5t29.5 131.5z" />
    <glyph glyph-name="T.alt01" unicode="&#xff34;" 
d="M931 1209h-285v-1209h-268v1209h-285v230h838v-230z" />
    <glyph glyph-name="W.alt01" unicode="&#xff37;" 
d="M566 883l127 -614v1170h249v-281q0 -366 -48 -706l-64 -452h-210l-108 514l-108 -514h-210l-64 452q-48 340 -48 706v281h249v-1170l127 614h108z" />
    <glyph glyph-name="t.alt01" unicode="&#xff54;" 
d="M952 149q-129 -168 -318 -168q-191 0 -280.5 94.5t-89.5 288.5v548h-151v220h151v307h268v-307h343v-220h-343v-567q0 -73 25 -103.5t77 -30.5q61 0 116 76z" />
    <glyph glyph-name="l.alt01" unicode="&#xff4c;" 
d="M860 0h-676v220h204v999h-166v220h435v-1219h203v-220z" />
    <glyph glyph-name="f.alt01" unicode="&#xff46;" 
d="M758 1183q-33 55 -90 55q-42 0 -67.5 -31.5t-25.5 -106.5v-79h340v-220h-340v-801h-270v801h-171v220h171v83q0 174 95 264.5t244 90.5q200 0 316 -138z" />
    <glyph glyph-name="smileface.2" unicode="&#xf401;" 
d="M512 258q-210 0 -359.5 150t-149.5 359t149.5 359t359.5 150t359.5 -150t149.5 -359t-149.5 -359t-359.5 -150zM512 1153q-169 0 -277 -115t-108 -271q0 -157 108 -272.5t277 -115.5t277 115.5t108 272.5q0 156 -108 271t-277 115zM824 741q-85 -244 -312 -244t-312 244
q139 -128 312 -128t312 128zM554 899q0 57 21 97.5t50 40.5q30 0 50.5 -40t20.5 -98q0 -59 -21 -99t-50 -40t-50 40t-21 99zM470 899q0 -59 -21 -99t-50 -40t-50 40t-21 99q0 58 20.5 98t50.5 40q29 0 50 -40.5t21 -97.5z" />
    <glyph glyph-name="heart.alt01" unicode="&#xf402;" 
d="M512 241q-476 352 -476 712q0 305 248 305q182 0 228 -249q46 249 228 249q248 0 248 -305q0 -360 -476 -712z" />
    <glyph glyph-name="power" unicode="&#xf403;" 
d="M451 938h122v-454h-122v454zM954 711q0 -182 -129.5 -311.5t-312.5 -129.5q-182 0 -311.5 129.5t-129.5 311.5t129.5 312t311.5 130q183 0 312.5 -130t129.5 -312zM832 711q0 131 -94.5 225.5t-225.5 94.5t-225.5 -94.5t-94.5 -225.5t94.5 -225.5t225.5 -94.5t225.5 94.5
t94.5 225.5z" />
    <glyph glyph-name="clear.2" unicode="&#xf404;" 
d="M991 328h-958v871h958v-871zM895 1102h-766v-677h766v677zM512 692l-171 -172l-72 71l171 171l-171 172l72 72l171 -172l171 172l72 -72l-172 -172l172 -171l-72 -71z" />
    <glyph glyph-name="O.alt02" unicode="&#xf42e;" 
d="M906 490q0 -289 -109 -399t-285 -110t-285 110t-109 399v420q0 289 109 399.5t285 110.5t285 -110.5t109 -399.5v-420zM638 457v486q0 127 -25.5 182t-101.5 55t-100.5 -54.5t-24.5 -182.5v-486q0 -127 25.5 -182t101.5 -55t100.5 54.5t24.5 182.5z" />
    <glyph glyph-name="U.alt02" unicode="&#xf434;" 
d="M903 448q0 -247 -109 -357t-282 -110t-282 110t-109 357v953h268v-985q0 -105 28.5 -155t93.5 -50q64 0 94 50t30 155v985h268v-953z" />
    <glyph glyph-name="ampersand.alt02" unicode="&#xf441;" 
d="M769 0q-6 101 -60 193l-9 -23q-77 -189 -289 -189q-160 0 -250 117t-90 298q0 247 235 459q-129 220 -129 361q0 148 92 240t222 92q141 0 228.5 -87t87.5 -216q0 -190 -233 -393l113 -187l64 156h231l-156 -388l50 -82q89 -146 100 -325l2 -26h-209zM430 217q56 0 91 86
l49 118l-144 237q-104 -92 -104 -252q0 -91 28.5 -140t79.5 -49zM568 1216q0 48 -18.5 75.5t-56.5 27.5q-35 0 -57 -29t-22 -83q0 -90 49 -173q105 96 105 182z" />
    <glyph glyph-name="ampersand.alt03" unicode="&#xf442;" 
d="M808 408l191 -345v-63h-220l-88 158q-80 -177 -271 -177q-150 0 -248.5 122t-98.5 323q0 283 204 481l-36 66q-65 118 -65 224q0 149 100 250t264 101q213 0 335 -199l-202 -139q-51 109 -132 109q-58 0 -87.5 -38.5t-29.5 -102.5q0 -77 56 -178l182 -327l61 198h206v-62
zM427 217q78 0 115 120l17 59l-161 292q-76 -93 -76 -263q0 -101 30.5 -154.5t74.5 -53.5z" />
    <glyph glyph-name="chi.alt01" unicode="&#xf460;" 
d="M48 980v152h31q167 0 248 -152l204 -389l91 165q108 196 115 335l3 41h170l-4 -56q-6 -136 -154 -403l-135 -244l182 -344q130 -246 136 -370l4 -68h-170l-3 54q-7 128 -98 301l-140 265l-145 -265q-111 -197 -115 -301l-3 -54h-170l4 68q4 102 153 370l190 345l-261 496
q-29 54 -102 54h-31z" />
    <glyph glyph-name="lambda.alt01" unicode="&#xf461;" 
d="M329 1192q-59 152 -66 275l-3 59h266l3 -59q10 -152 55 -270l300 -778q73 -189 80 -313l7 -106h-267l-6 100q-8 156 -57 280l-102 287l-115 -287q-40 -101 -50 -280l-6 -100h-267l6 106q8 124 83 313l222 557z" />
    <glyph glyph-name="Iicyrillic.alt01" unicode="&#xf480;" 
d="M357 512l269 927h276v-1439h-268v268q0 321 32 659l-269 -927h-276v1439h268v-267q0 -322 -32 -660z" />
    <glyph glyph-name="Ucyrillic.alt01" unicode="&#xf481;" 
d="M249 246l130 308l-210 485q-84 201 -91 313l-5 87h267l5 -81q4 -68 78 -268l91 -239l88 235q72 192 77 272l5 81h267l-6 -87q-5 -116 -90 -316l-345 -803q-33 -77 -41 -184l-2 -49h-267l3 49q6 105 46 197z" />
    <glyph glyph-name="shin.alt01" unicode="&#xf4a0;" 
d="M926 1132v-622q0 -419 -384 -493l-99 -17h-213l-162 1133h156l126 -1019l176 34q252 47 252 362v622h148zM418 374l49 758h148l-48 -739z" />
    <glyph glyph-name="ltshade.alt01" unicode="&#xf4c0;" 
d="M0 1590v294h128v-294h-128zM514 1590v294h128v-294h-128zM257 1200v293h128v-293h-128zM771 1200v293h128v-293h-128zM0 810v293h128v-293h-128zM514 810v293h128v-293h-128zM257 418v294h128v-294h-128zM771 418v294h128v-294h-128zM0 28v294h128v-294h-128zM514 28v294
h128v-294h-128zM257 -362v293h128v-293h-128zM771 -362v293h128v-293h-128z" />
    <glyph glyph-name="dkshade.alt01" unicode="&#xf4c1;" 
d="M0 28h128v294h-128v488h128v293h-128v487h128v294h386v-294h128v294h382v-2246h-125v293h-128v-293h-386v293h-128v-293h-257v390zM642 28v294h-128v-294h128zM899 418v294h-128v-294h128zM385 418v294h-128v-294h128zM642 810v293h-128v-293h128zM899 1200v293h-128
v-293h128zM385 1200v293h-128v-293h128z" />
    <glyph glyph-name="dotmacron" unicode="&#xf505;" 
d="M623 1337q0 -44 -31.5 -77.5t-80.5 -33.5q-48 0 -79.5 33.5t-31.5 77.5q0 45 31.5 78t79.5 33q49 0 80.5 -33t31.5 -78zM856 1526h-689v120h689v-120z" />
    <glyph glyph-name="dieresismacron" unicode="&#xf506;" 
d="M837 1526h-651v120h651v-120zM837 1337q0 -44 -31.5 -77.5t-81.5 -33.5q-48 0 -79.5 33.5t-31.5 77.5q0 45 31.5 78t79.5 33q50 0 81.5 -33t31.5 -78zM410 1337q0 -44 -31.5 -77.5t-80.5 -33.5t-80.5 33.5t-31.5 77.5q0 45 31.5 78t80.5 33t80.5 -33t31.5 -78z" />
    <glyph glyph-name="dieresiscaron" unicode="&#xf507;" 
d="M395 1662l116 -123l117 123h211l-251 -214h-153l-251 214h211zM390 1337q0 -44 -31.5 -77.5t-80.5 -33.5q-48 0 -79.5 33.5t-31.5 77.5q0 45 31.5 78t79.5 33q49 0 80.5 -33t31.5 -78zM856 1337q0 -44 -31.5 -77.5t-80.5 -33.5q-48 0 -79.5 33.5t-31.5 77.5q0 45 31.5 78
t79.5 33q49 0 80.5 -33t31.5 -78z" />
    <glyph glyph-name="tildemacron" unicode="&#xf508;" 
d="M856 1526h-689v120h689v-120zM866 1406q-78 -180 -230 -180q-68 0 -142.5 56.5t-110.5 56.5q-62 0 -142 -107l-84 61q102 180 235 180q58 0 130.5 -57.5t122.5 -57.5q62 0 121 106z" />
    <glyph glyph-name="apldieresis" unicode="&#xf509;" 
d="M857 1436q0 -44 -31.5 -77.5t-80.5 -33.5t-80 33.5t-31 77.5q0 46 31 79t80 33t80.5 -33t31.5 -79zM390 1436q0 -44 -31.5 -77.5t-80.5 -33.5q-48 0 -79.5 33.5t-31.5 77.5q0 46 31.5 79t79.5 33q49 0 80.5 -33t31.5 -79z" />
    <glyph glyph-name="apltilde" unicode="&#xf50a;" 
d="M912 822q-87 -189 -260 -189q-76 0 -160 56.5t-126 56.5q-69 0 -159 -107l-95 70q115 181 265 181q65 0 147.5 -57.5t138.5 -57.5q70 0 137 106z" />
    <glyph glyph-name="slashlatinb" unicode="&#xf520;" 
d="M855 1717l-579 -1910h-107l579 1910h107z" />
    <glyph glyph-name="slashlowlatinb" unicode="&#xf521;" 
d="M855 1325l-579 -1518h-107l579 1518h107z" />
    <glyph glyph-name="commaaccent" unicode="&#xf6c3;" 
d="M256 1270l266 256h264l-211 -256h-319z" />
    <glyph glyph-name="commaaboverightcomb" unicode="&#x315;" 
d="M1048 1526l-67 -352h-178l42 352h203z" />
    <glyph glyph-name="jdotless" unicode="&#x237;" 
d="M479 25v887h-256v220h524v-1101q0 -203 -90 -298t-269 -95q-219 0 -338 178l203 116q38 -64 124 -64q47 0 74.5 34t27.5 123z" />
    <glyph glyph-name="Branch" unicode="&#xe0a0;" 
d="M412 -353h-267v466q0 173 76 282q52 76 163 149l147 95q87 57 124.5 134t37.5 203v317h-202l282 331l282 -331h-202v-371q0 -186 -51.5 -285t-155.5 -167l-72 -48q-90 -59 -124 -120q-38 -68 -38 -189v-466zM412 792l-267 -172v1264h267v-1092z" />
    <glyph glyph-name="LN" unicode="&#xe0a1;" 
d="M676 930v-127h-489v869h150v-742h339zM682 724h154v-869h-162l-236 565l18 -377v-188h-152v869h160l238 -567l-20 415v152z" />
    <glyph glyph-name="padlock_closed" unicode="&#xe0a2;" 
d="M256 0q-136 0 -136 136v666q0 146 117 146v295q0 133 81 220q78 85 194 85t194 -85q81 -87 81 -220v-295q117 0 117 -146v-666q0 -136 -136 -136h-512zM512 1422q-65 0 -104 -48.5t-39 -130.5v-295h286v295q0 82 -39 130.5t-104 48.5zM566 228v312q66 34 66 107
q0 49 -35.5 84.5t-84.5 35.5t-84.5 -35.5t-35.5 -84.5q0 -73 66 -107v-312h108z" />
    <glyph glyph-name="SoftLeftArrow" unicode="&#xe0b3;" 
d="M179 761l900 -989l-93 -92l-986 1081l986 1081l93 -92z" />
    <glyph glyph-name="Iegrave-cy" unicode="&#x400;" 
d="M656 1647h-216l-228 236h270zM912 0h-761v1439h761v-230h-493v-339h354v-230h-354v-410h493v-230z" />
    <glyph glyph-name="Io-cy" unicode="&#x401;" 
d="M329 1642q-54 0 -89.5 35.5t-35.5 85.5t35.5 85t89.5 35q55 0 90.5 -35t35.5 -85t-35.5 -85.5t-90.5 -35.5zM694 1642q-55 0 -90.5 35.5t-35.5 85.5t35.5 85t90.5 35q54 0 89.5 -35t35.5 -85t-35.5 -85.5t-89.5 -35.5zM912 0h-761v1439h761v-230h-493v-339h354v-230h-354
v-410h493v-230z" />
    <glyph glyph-name="Dje-cy" unicode="&#x402;" 
d="M913 50q0 -403 -313 -403h-103v221h44q103 0 103 149v715q0 108 -26.5 146.5t-75.5 38.5q-100 0 -114 -137v-780h-269v1296h-154v230h595v-230h-172v-294q78 147 222 147q126 0 194.5 -94t68.5 -313v-692z" />
    <glyph glyph-name="Gje-cy" unicode="&#x403;" 
d="M618 1883h270l-228 -236h-216zM921 1209h-443v-1209h-269v1439h712v-230z" />
    <glyph glyph-name="E-cy" unicode="&#x404;" 
d="M938 212q-142 -231 -384 -231q-195 0 -303.5 110t-108.5 419v516q0 288 111 405t301 117q242 0 384 -231l-202 -138q-71 130 -182 130q-74 0 -108.5 -54.5t-34.5 -193.5v-136h304v-230h-304v-228q0 -139 34.5 -194t108.5 -55q111 0 182 132z" />
    <glyph glyph-name="Dze-cy" unicode="&#x405;" 
d="M945 385q0 -174 -108.5 -289t-322.5 -115q-258 0 -410 241l202 138q91 -142 217 -142q73 0 113.5 38.5t40.5 108.5q0 75 -70 146l-313 313q-141 139 -141 318q0 184 105.5 295t284.5 111q232 0 374 -199l-202 -139q-80 99 -162 99q-62 0 -97.5 -35t-35.5 -110
q0 -71 73 -142l290 -290q162 -150 162 -347z" />
    <glyph glyph-name="I-cy" unicode="&#x406;" 
d="M846 0h-668v220h200v1086h-159v220h586v-220h-159v-1086h200v-220z" />
    <glyph glyph-name="Yi-cy" unicode="&#x407;" 
d="M329 1642q-54 0 -89.5 35.5t-35.5 85.5t35.5 85t89.5 35q55 0 90.5 -35t35.5 -85t-35.5 -85.5t-90.5 -35.5zM694 1642q-55 0 -90.5 35.5t-35.5 85.5t35.5 85t90.5 35q54 0 89.5 -35t35.5 -85t-35.5 -85.5t-89.5 -35.5zM846 0h-668v220h200v999h-159v220h586v-220h-159
v-999h200v-220z" />
    <glyph glyph-name="Je-cy" unicode="&#x408;" 
d="M843 469q0 -268 -109 -378t-282 -110t-282 110t-109 378v213h268v-218q0 -137 29 -196t93 -59t93.5 59.5t29.5 195.5v1062h269v-1057z" />
    <glyph glyph-name="Lje-cy" unicode="&#x409;" 
d="M-2 0v230h24q89 0 98 212l32 1084h476v-543h46q145 0 225.5 -101t80.5 -335v-141q0 -195 -80.5 -300.5t-225.5 -105.5h-235v1296h-68l-26 -878q-9 -418 -254 -418h-93zM751 386v170q0 116 -21 156.5t-66 40.5h-36v-523h36q45 0 66 35t21 121z" />
    <glyph glyph-name="Nje-cy" unicode="&#x40a;" 
d="M107 1526h219v-543h113v543h189v-543h46q145 0 225.5 -101t80.5 -335v-141q0 -195 -80.5 -300.5t-225.5 -105.5h-235v753h-113v-753h-219v1526zM751 386v170q0 116 -20.5 156.5t-65.5 40.5h-37v-523h36q45 0 66 35t21 121z" />
    <glyph glyph-name="Tshe-cy" unicode="&#x40b;" 
d="M913 0h-269v732q0 108 -26.5 146.5t-75.5 38.5q-100 0 -114 -137v-780h-269v1296h-154v230h595v-230h-172v-294q78 147 222 147q126 0 194.5 -94t68.5 -313v-742z" />
    <glyph glyph-name="Kje-cy" unicode="&#x40c;" 
d="M643 1883h270l-228 -236h-216zM404 1439v-593l55 81q165 243 208 478l5 34h267l-8 -51q-50 -277 -235 -551q212 -363 280 -769l9 -68h-276l-8 53q-62 368 -194 594l-103 -151v-496h-269v1439h269z" />
    <glyph glyph-name="Iigrave-cy" unicode="&#x40d;" 
d="M598 1647h-216l-228 236h270zM357 512l269 927h276v-1439h-268v268q0 321 32 659l-269 -927h-276v1439h268v-267q0 -322 -32 -660z" />
    <glyph glyph-name="Ushort-cy" unicode="&#x40e;" 
d="M512 1632q-345 0 -355 251h207q3 -95 148 -95t148 95h207q-10 -251 -355 -251zM249 246l130 308l-210 485q-84 201 -91 313l-5 87h267l5 -81q4 -68 78 -268l91 -239l88 235q72 192 77 272l5 81h267l-6 -87q-5 -116 -90 -316l-345 -803q-33 -77 -41 -184l-2 -49h-267l3 49
q6 105 46 197z" />
    <glyph glyph-name="Dzhe-cy" unicode="&#x40f;" 
d="M122 1526h267v-1298h246v1298h267v-1526h-257v-269h-266v269h-257v1526z" />
    <glyph glyph-name="A-cy" unicode="&#x410;" 
d="M347 85v-85h-267v85q0 220 76 554l202 887h308l201 -887q77 -334 77 -554v-85h-267v85q0 118 -16 251h-298q-16 -133 -16 -251zM512 1126l-110 -561h220z" />
    <glyph glyph-name="Be-cy" unicode="&#x411;" 
d="M861 1298h-454v-355h85q193 0 312 -106t119 -319v-83q0 -224 -109 -329.5t-284 -105.5h-392v1526h723v-228zM655 435v44q0 135 -39.5 185.5t-114.5 50.5h-94v-486h103q65 0 105 40t40 166z" />
    <glyph glyph-name="Ve-cy" unicode="&#x412;" 
d="M924 464q0 -253 -109.5 -358.5t-283.5 -105.5h-393v1526h352q195 0 293.5 -105t98.5 -282q0 -127 -56 -207t-132 -102q124 -44 177 -124.5t53 -241.5zM614 1139q0 88 -35 123.5t-110 35.5h-62v-365h71q65 0 100.5 45.5t35.5 160.5zM655 464q0 150 -39.5 195.5
t-113.5 45.5h-95v-476h103q65 0 105 40t40 195z" />
    <glyph glyph-name="Ge-cy" unicode="&#x413;" 
d="M921 1296h-443v-1296h-269v1526h712v-230z" />
    <glyph glyph-name="De-cy" unicode="&#x414;" 
d="M943 -269h-259v269h-382v-269h-259v499h71q79 209 111 678l37 618h595v-1296h86v-499zM595 230v1065h-89l-24 -406q-27 -460 -116 -659h229z" />
    <glyph glyph-name="Ie-cy" unicode="&#x415;" 
d="M921 0h-771v1526h762v-230h-493v-382h353v-230h-353v-454h502v-230z" />
    <glyph glyph-name="Zhe-cy" unicode="&#x416;" 
d="M589 551l22 -243v-308h-189v308l22 243l-61 -102q-56 -90 -66 -313l-7 -136h-247l6 119q7 202 147 417l166 254l-165 252q-139 215 -147 417l-4 67h237l4 -84q11 -222 69 -317l68 -111l-22 247v265h189v-265l-22 -247l69 110q58 96 68 318l4 84h238l-3 -66
q-10 -203 -149 -418l-164 -251l165 -255q140 -215 148 -417l6 -119h-247l-7 136q-11 223 -66 313z" />
    <glyph glyph-name="Ze-cy" unicode="&#x417;" 
d="M919 450q0 -230 -119 -349.5t-324 -119.5q-262 0 -413 251l202 138q86 -159 210 -159q76 0 125.5 50t49.5 189q0 147 -54 196t-159 49h-75v229h75q94 0 138 54.5t44 154.5q0 86 -40 135.5t-113 49.5q-114 0 -181 -161l-202 138q141 253 403 253q185 0 293.5 -111
t108.5 -304q0 -229 -184 -324q215 -85 215 -359z" />
    <glyph glyph-name="Ii-cy" unicode="&#x418;" 
d="M348 541l295 985h259v-1526h-259v268q0 360 32 717l-295 -985h-259v1526h259v-267q0 -361 -32 -718z" />
    <glyph glyph-name="Iishort-cy" unicode="&#x419;" 
d="M513 1632q-345 0 -355 251h207q3 -95 148 -95t148 95h207q-10 -251 -355 -251zM357 512l269 927h276v-1439h-268v268q0 321 32 659l-269 -927h-276v1439h268v-267q0 -322 -32 -660z" />
    <glyph glyph-name="Ka-cy" unicode="&#x41a;" 
d="M443 1526v-636l136 200q100 147 125 367l7 69h267l-18 -154q-22 -193 -154 -390l-71 -103l94 -159q138 -235 168 -491l27 -229h-276l-20 170q-33 281 -132 447l-47 79l-106 -157v-539h-269v1526h269z" />
    <glyph glyph-name="El-cy" unicode="&#x41b;" 
d="M37 0v230h34q111 0 123 295l41 1001h667v-1526h-268v1296h-147l-30 -752q-20 -544 -318 -544h-102z" />
    <glyph glyph-name="Em-cy" unicode="&#x41c;" 
d="M512 1017l154 509h246v-1526h-246v239q0 400 77 1061l-178 -585h-106l-178 585q77 -661 77 -1061v-239h-246v1526h246z" />
    <glyph glyph-name="En-cy" unicode="&#x41d;" 
d="M902 0h-268v705h-245v-705h-268v1526h268v-591h245v591h268v-1526z" />
    <glyph glyph-name="O-cy" unicode="&#x41e;" 
d="M906 490q0 -287 -106.5 -398t-287.5 -111t-287.5 111t-106.5 398v548q0 288 106.5 399t287.5 111t287.5 -111t106.5 -399v-548zM638 457v613q0 152 -31.5 195t-95.5 43q-62 0 -93.5 -43t-31.5 -195v-613q0 -151 31.5 -194t95.5 -43q62 0 93.5 43t31.5 194z" />
    <glyph glyph-name="Pe-cy" unicode="&#x41f;" 
d="M121 1526h781v-1526h-268v1296h-245v-1296h-268v1526z" />
    <glyph glyph-name="Er-cy" unicode="&#x420;" 
d="M972 1070q0 -166 -109 -276.5t-283 -110.5h-122v-683h-268v1526h390q194 0 293 -110.5t99 -275.5v-70zM704 1079v52q0 67 -30.5 117t-114.5 50h-101v-386h101q74 0 109.5 45.5t35.5 121.5z" />
    <glyph glyph-name="Es-cy" unicode="&#x421;" 
d="M978 212q-142 -231 -384 -231q-180 0 -296 116t-116 405v524q0 290 116 406t296 116q242 0 384 -231l-202 -138q-71 130 -182 130q-66 0 -104.5 -48.5t-38.5 -199.5v-594q0 -151 38.5 -200t104.5 -49q111 0 182 132z" />
    <glyph glyph-name="Te-cy" unicode="&#x422;" 
d="M931 1296h-285v-1296h-268v1296h-285v230h838v-230z" />
    <glyph glyph-name="U-cy" unicode="&#x423;" 
d="M249 246l134 355l-214 525q-84 208 -91 313l-5 87h267l5 -81q4 -68 78 -268l91 -247l88 243q72 200 77 272l5 81h267l-6 -87q-5 -93 -90 -313l-348 -902q-32 -82 -38 -175l-2 -49h-267l3 49q6 93 46 197z" />
    <glyph glyph-name="Ef-cy" unicode="&#x424;" 
d="M636 1405q289 -63 289 -505v-274q0 -441 -289 -504v-122h-248v122q-289 63 -289 504v274q0 442 289 505v121h248v-121zM432 1203q-114 -18 -114 -259v-362q0 -241 114 -258v879zM592 1203v-879q114 17 114 258v362q0 241 -114 259z" />
    <glyph glyph-name="Ha-cy" unicode="&#x425;" 
d="M425 332q-72 -144 -80 -279l-3 -53h-267l4 68q9 128 102 314l197 391l-164 327q-107 209 -115 359l-4 67h266l3 -53q10 -158 80 -299l68 -135l68 135q70 141 80 299l3 53h266l-4 -67q-8 -150 -115 -359l-165 -326l198 -392q93 -186 102 -314l4 -68h-267l-3 53
q-8 135 -80 279l-87 174z" />
    <glyph glyph-name="Tse-cy" unicode="&#x426;" 
d="M122 1526h267v-1297h210v1297h268v-1296h85v-499h-266v269h-564v1526z" />
    <glyph glyph-name="Che-cy" unicode="&#x427;" 
d="M404 1526v-456q0 -147 44 -196.5t130 -49.5h61v702h267v-1526h-267v584h-101q-185 0 -294 101t-109 390v451h269z" />
    <glyph glyph-name="Sha-cy" unicode="&#x428;" 
d="M93 1526h214v-1296h115v1296h181v-1296h115v1296h214v-1526h-839v1526z" />
    <glyph glyph-name="Shcha-cy" unicode="&#x429;" 
d="M93 1526h214v-1296h115v1296h181v-1296h115v1296h214v-1296h76v-499h-238v269h-677v1526z" />
    <glyph glyph-name="Hardsign-cy" unicode="&#x42a;" 
d="M523 943h46q193 0 312 -106t119 -319v-83q0 -224 -109 -329.5t-283 -105.5h-354v1298h-184v228h453v-583zM732 435v44q0 135 -39.5 185.5t-113.5 50.5h-56v-486h64q65 0 105 40t40 166z" />
    <glyph glyph-name="Yeru-cy" unicode="&#x42b;" 
d="M335 1526v-583h21q126 0 196.5 -106t70.5 -300v-151q0 -195 -70.5 -290.5t-196.5 -95.5h-258v1526h237zM434 396v151q0 87 -21.5 127.5t-56.5 40.5h-21v-486h20q36 0 57.5 40t21.5 127zM926 1526v-1526h-237v1526h237z" />
    <glyph glyph-name="Softsign-cy" unicode="&#x42c;" 
d="M407 1526v-583h85q193 0 312 -106t119 -319v-83q0 -224 -109 -329.5t-284 -105.5h-392v1526h269zM655 435v44q0 135 -39.5 185.5t-114.5 50.5h-94v-486h103q65 0 105 40t40 166z" />
    <glyph glyph-name="Ereversed-cy" unicode="&#x42d;" 
d="M288 350q71 -132 181 -132q75 0 109.5 55t34.5 194v228h-304v230h304v136q0 139 -34.5 193.5t-109.5 54.5q-110 0 -181 -130l-202 138q142 231 383 231q204 0 308.5 -117t104.5 -405v-516q0 -309 -108.5 -419t-304.5 -110q-241 0 -383 231z" />
    <glyph glyph-name="Iu-cy" unicode="&#x42e;" 
d="M312 1526v-590h79v227q0 173 70 279t203 106q130 0 200 -106t70 -279v-798q0 -173 -70 -278t-200 -106q-133 0 -203 105.5t-70 278.5v341h-79v-706h-218v1526h218zM715 352v826q0 143 -67 143q-66 0 -66 -143v-826q0 -144 67 -144q66 3 66 144z" />
    <glyph glyph-name="Ia-cy" unicode="&#x42f;" 
d="M486 647q-122 -165 -150 -592l-4 -55h-265l4 68q26 407 187 626l12 18q-175 98 -175 378q0 226 99 331t282 105h396v-1526h-268v663h-107zM604 1298h-92q-84 0 -113.5 -50t-29.5 -158q0 -99 29.5 -149t113.5 -50h92v407z" />
    <glyph glyph-name="a-cy" unicode="&#x430;" 
d="M922 0h-269v130q-77 -149 -223 -149q-119 0 -204.5 95t-85.5 239q0 170 107 270t313 100h93v122q0 116 -124 116q-120 0 -179 -127l-193 157q142 200 373 200q183 0 287.5 -93t104.5 -275v-785zM653 348v166h-93q-78 0 -115.5 -42.5t-37.5 -117.5q0 -135 114 -135
q119 0 132 129z" />
    <glyph glyph-name="be-cy" unicode="&#x431;" 
d="M121 1015q0 290 116 411.5t355 121.5h244v-229h-117q-193 0 -263 -62t-70 -221v-86q81 120 234 120q117 0 199 -109t82 -372v-131q0 -258 -118 -367.5t-272 -109.5q-174 0 -282 109.5t-108 304.5v620zM386 434q0 -106 25.5 -165t98.5 -59q64 0 94.5 59t30.5 188v156
q0 109 -28 167t-86 58q-100 0 -135 -129v-275z" />
    <glyph glyph-name="ve-cy" unicode="&#x432;" 
d="M923 339q0 -157 -109.5 -248t-283.5 -91h-392v1132h351q195 0 293.5 -78.5t98.5 -211.5q0 -189 -187 -244q229 -49 229 -259zM613 822q0 56 -35 83.5t-100 27.5h-71v-232h81q55 0 90 27t35 94zM659 351q0 63 -39 92.5t-104 29.5h-109v-244h109q65 0 104 26.5t39 95.5z
" />
    <glyph glyph-name="ge-cy" unicode="&#x433;" 
d="M921 902h-443v-902h-269v1132h712v-230z" />
    <glyph glyph-name="de-cy" unicode="&#x434;" 
d="M943 -269h-259v269h-382v-269h-259v499h71q106 211 127 565l21 337h595v-902h86v-499zM595 230v671h-89l-7 -106q-21 -366 -133 -565h229z" />
    <glyph glyph-name="ie-cy" unicode="&#x435;" 
d="M902 532h-514v-125q0 -98 30.5 -147t104.5 -49q107 0 171 106l201 -138q-130 -198 -383 -198q-174 0 -283 110t-109 369v213q0 259 109 369.5t283 110.5q173 0 281.5 -110t108.5 -370v-141zM636 704v42q0 96 -30 146.5t-94 50.5t-94.5 -50.5t-30.5 -146.5v-42h249z" />
    <glyph glyph-name="zhe-cy" unicode="&#x436;" 
d="M589 411l22 -181v-230h-189v230l22 181l-61 -76q-56 -67 -66 -234l-7 -101h-247l6 89q7 151 147 311l166 189l-178 204q-126 144 -135 297l-2 42h237l3 -56q11 -166 69 -237l68 -83l-22 184v192h189v-192l-22 -184l69 82q58 72 68 238l3 56h239l-3 -43
q-10 -152 -148 -311l-163 -189l163 -189q140 -160 148 -311l6 -89h-247l-7 101q-11 167 -66 234z" />
    <glyph glyph-name="ze-cy" unicode="&#x437;" 
d="M75 232l202 138q86 -159 227 -159q78 0 118.5 37.5t40.5 87.5q0 66 -54.5 104.5t-159.5 38.5h-74v230h84q77 0 125 23.5t48 83.5q0 47 -41 77t-104 30q-104 0 -181 -111l-202 139q141 202 383 202q199 0 305.5 -91t106.5 -220q0 -192 -193 -263q224 -66 224 -262
q0 -145 -117 -240.5t-309 -95.5q-278 0 -429 251z" />
    <glyph glyph-name="ii-cy" unicode="&#x438;" 
d="M347 408l297 725h258v-1133h-258v199q0 269 32 530l-297 -729h-258v1133h258v-196q0 -269 -32 -529z" />
    <glyph glyph-name="iishort-cy" unicode="&#x439;" 
d="M347 408l297 725h258v-1133h-258v199q0 269 32 530l-297 -729h-258v1133h258v-196q0 -269 -32 -529zM512 1275q-345 0 -355 251h207q3 -95 148 -95t148 95h207q-10 -251 -355 -251z" />
    <glyph glyph-name="ka-cy" unicode="&#x43a;" 
d="M966 0h-267q-7 125 -185 408l-26 37l-79 -96v-349h-267v1132h267v-447l99 125q154 189 161 322h267l-2 -37q-9 -151 -224 -414l-52 -64l52 -78q246 -353 256 -499v-40z" />
    <glyph glyph-name="el-cy" unicode="&#x43b;" 
d="M37 0v230h34q111 0 123 295l28 607h680v-1132h-268v902h-164l-13 -358q-20 -544 -318 -544h-102z" />
    <glyph glyph-name="em-cy" unicode="&#x43c;" 
d="M912 0h-242v152l73 754l-178 -585h-106l-178 585l73 -754v-152h-242v1132h246l154 -509l154 509h246v-1132z" />
    <glyph glyph-name="en-cy" unicode="&#x43d;" 
d="M903 0h-268v486h-246v-486h-268v1132h268v-416h246v416h268v-1132z" />
    <glyph glyph-name="o-cy" unicode="&#x43e;" 
d="M902 459q0 -259 -108.5 -368.5t-281.5 -109.5t-282 109.5t-109 368.5v214q0 260 109 370t282 110t281.5 -110t108.5 -370v-214zM634 456v214q0 154 -29 203.5t-93 49.5t-93.5 -49.5t-29.5 -203.5v-214q0 -146 29.5 -195.5t93.5 -49.5t93 49.5t29 195.5z" />
    <glyph glyph-name="pe-cy" unicode="&#x43f;" 
d="M121 1132h782v-1132h-268v902h-246v-902h-268v1132z" />
    <glyph glyph-name="er-cy" unicode="&#x440;" 
d="M144 1132h269v-126q88 145 231 145q126 0 204.5 -108.5t78.5 -368.5v-212q0 -261 -78.5 -369.5t-204.5 -108.5q-143 0 -231 146v-483h-269v1485zM413 343q33 -128 123 -128q59 0 90.5 63t31.5 221v138q0 158 -31.5 221.5t-90.5 63.5q-89 0 -123 -129v-450z" />
    <glyph glyph-name="es-cy" unicode="&#x441;" 
d="M900 188q-130 -207 -372 -207q-183 0 -292.5 119.5t-109.5 359.5v213q0 240 109.5 360t292.5 120q242 0 372 -209l-202 -138q-68 117 -170 117q-74 0 -103.5 -55t-29.5 -190v-233q0 -117 29.5 -176t103.5 -59q92 0 151 126z" />
    <glyph glyph-name="te-cy" unicode="&#x442;" 
d="M931 902h-285v-902h-268v902h-285v230h838v-230z" />
    <glyph glyph-name="u-cy" unicode="&#x443;" 
d="M222 -353l2 37q8 124 67 275l97 254l-207 519q-76 190 -83 313l-5 87h266l5 -81q11 -179 49 -279l99 -255l91 255q48 123 57 279l5 81h266l-6 -87q-6 -123 -80 -313l-299 -777q-46 -118 -55 -271l-2 -37h-267z" />
    <glyph glyph-name="ef-cy" unicode="&#x444;" 
d="M432 932q-114 -17 -114 -259v-212q0 -242 114 -259v730zM592 202q114 17 114 259v212q0 242 -114 259v-730zM925 630v-126q0 -441 -289 -504v-353h-248v353q-289 63 -289 504v126q0 441 289 504v392h248v-392q289 -63 289 -504z" />
    <glyph glyph-name="ha-cy" unicode="&#x445;" 
d="M99 0l2 39q8 118 116 288l170 263l-153 238q-93 143 -100 266l-2 38h265q11 -155 62 -236l63 -97l63 97q51 81 62 236h265l-2 -38q-7 -123 -100 -266l-154 -238l171 -263q108 -170 116 -288l2 -39h-267q-8 153 -66 242l-90 140l-90 -140q-58 -89 -67 -242h-266z" />
    <glyph glyph-name="tse-cy" unicode="&#x446;" 
d="M122 1132h267v-903h210v903h268v-902h85v-499h-266v269h-564v1132z" />
    <glyph glyph-name="che-cy" unicode="&#x447;" 
d="M404 1132v-263q0 -146 44 -196t130 -50h61v509h267v-1132h-267v384h-101q-185 0 -294 100.5t-109 389.5v258h269z" />
    <glyph glyph-name="sha-cy" unicode="&#x448;" 
d="M93 1132h214v-902h115v902h181v-902h115v902h214v-1132h-839v1132z" />
    <glyph glyph-name="shcha-cy" unicode="&#x449;" 
d="M93 1132h214v-902h115v902h181v-902h115v902h214v-902h76v-499h-238v269h-677v1132z" />
    <glyph glyph-name="hardsign-cy" unicode="&#x44a;" 
d="M523 730h85q174 0 283 -96t109 -269q0 -174 -109 -269.5t-283 -95.5h-354v904h-184v228h453v-402zM732 365q0 73 -38 105t-99 32h-72v-273h72q61 0 99 30.5t38 105.5z" />
    <glyph glyph-name="yeru-cy" unicode="&#x44b;" 
d="M98 0v1132h237v-402h21q127 0 197 -96.5t70 -247.5q0 -195 -70 -290.5t-197 -95.5h-258zM433 365q0 73 -21 105t-57 32h-20v-273h20q36 0 57 30.5t21 105.5zM926 1132v-1132h-237v1132h237z" />
    <glyph glyph-name="softsign-cy" unicode="&#x44c;" 
d="M138 0v1132h269v-402h122q175 0 283 -95.5t110 -269.5q0 -174 -109 -269.5t-284 -95.5h-391zM654 365q0 73 -38 105t-99 32h-110v-273h110q61 0 99 30.5t38 105.5z" />
    <glyph glyph-name="ereversed-cy" unicode="&#x44d;" 
d="M613 687v28q0 100 -34.5 154.5t-109.5 54.5q-110 0 -181 -118l-202 138q142 209 390 209q197 0 301.5 -116.5t104.5 -363.5v-213q0 -259 -108.5 -369t-304.5 -110q-241 0 -383 217l202 138q71 -127 181 -127q75 0 109.5 55t34.5 179v23h-304v221h304z" />
    <glyph glyph-name="iu-cy" unicode="&#x44e;" 
d="M312 1132v-452h79v89q0 173 70 278.5t203 105.5q130 0 200 -105.5t70 -278.5v-404q0 -173 -70 -278t-200 -106q-133 0 -203 105.5t-70 278.5v85h-79v-450h-218v1132h218zM715 352v431q0 143 -67 143q-66 0 -66 -143v-431q0 -144 67 -144q66 3 66 144z" />
    <glyph glyph-name="ia-cy" unicode="&#x44f;" 
d="M66 0l3 40q10 146 148 372l68 103q-90 39 -140.5 111t-50.5 177q0 148 99.5 238.5t282.5 90.5h396v-1132h-268v444h-84l-95 -160q-85 -159 -93 -284h-266zM369 793q-2 -60 33.5 -90.5t90.5 -30.5h111v232h-102q-64 0 -98.5 -27.5t-34.5 -83.5z" />
    <glyph glyph-name="iegrave-cy" unicode="&#x450;" 
d="M902 532h-514v-125q0 -98 30.5 -147t104.5 -49q107 0 171 106l201 -138q-130 -198 -383 -198q-174 0 -283 110t-109 369v213q0 259 109 369.5t283 110.5q173 0 281.5 -110t108.5 -370v-141zM636 704v42q0 96 -30 146.5t-94 50.5t-94.5 -50.5t-30.5 -146.5v-42h249z
M628 1290h-216l-228 236h270z" />
    <glyph glyph-name="io-cy" unicode="&#x451;" 
d="M902 532h-514v-125q0 -98 30.5 -147t104.5 -49q107 0 171 106l201 -138q-130 -198 -383 -198q-174 0 -283 110t-109 369v213q0 259 109 369.5t283 110.5q173 0 281.5 -110t108.5 -370v-141zM636 704v42q0 96 -30 146.5t-94 50.5t-94.5 -50.5t-30.5 -146.5v-42h249z
M329 1285q-54 0 -89.5 35.5t-35.5 85.5t35.5 85t89.5 35q55 0 90.5 -35t35.5 -85t-35.5 -85.5t-90.5 -35.5zM694 1285q-55 0 -90.5 35.5t-35.5 85.5t35.5 85t90.5 35q54 0 89.5 -35t35.5 -85t-35.5 -85.5t-89.5 -35.5z" />
    <glyph glyph-name="dje-cy" unicode="&#x452;" 
d="M619 1140h-191v-319q78 147 222 147q126 0 194.5 -93.5t68.5 -313.5v-511q0 -403 -313 -403h-103v221h44q103 0 103 149v535q0 108 -26.5 146t-75.5 38q-100 0 -114 -137v-599h-269v1140h-104v210h104v176h269v-176h191v-210z" />
    <glyph glyph-name="gje-cy" unicode="&#x453;" 
d="M921 902h-443v-902h-269v1132h712v-230zM618 1526h270l-228 -236h-216z" />
    <glyph glyph-name="e-cy" unicode="&#x454;" 
d="M714 696v-229h-290v-13q0 -126 29.5 -185t103.5 -59q111 0 192 126l202 -138q-142 -217 -384 -217q-193 0 -302.5 110t-109.5 369v213q0 247 104 363.5t298 116.5q252 0 394 -209l-202 -138q-72 118 -182 118q-84 -1 -113.5 -56t-29.5 -167v-5h290z" />
    <glyph glyph-name="dze-cy" unicode="&#x455;" 
d="M935 315q0 -145 -99.5 -239.5t-301.5 -94.5q-255 0 -406 231l184 126q78 -138 214 -138q141 0 141 117q0 64 -79 102l-171 83q-222 111 -222 310q0 159 99.5 250t271.5 91q223 0 364 -209l-187 -128q-62 117 -167 117q-51 0 -82.5 -27.5t-31.5 -75.5q0 -74 87 -116
l144 -71q242 -118 242 -328z" />
    <glyph glyph-name="i-cy" unicode="&#x456;" 
d="M650 1496q0 -73 -49 -122t-131 -49t-130.5 49t-48.5 122q0 74 48.5 123t130.5 49t131 -49t49 -123zM839 0h-675v220h204v692h-175v220h443v-912h203v-220z" />
    <glyph glyph-name="yi-cy" unicode="&#x457;" 
d="M281 1285q-54 0 -89.5 35.5t-35.5 85.5t35.5 85t89.5 35q55 0 90.5 -35t35.5 -85t-35.5 -85.5t-90.5 -35.5zM646 1285q-55 0 -90.5 35.5t-35.5 85.5t35.5 85t90.5 35q54 0 89.5 -35t35.5 -85t-35.5 -85.5t-89.5 -35.5zM849 0h-675v220h204v692h-175v220h443v-912h203
v-220z" />
    <glyph glyph-name="je-cy" unicode="&#x458;" 
d="M745 1496q0 -73 -48.5 -122t-131.5 -49q-82 0 -130 49t-48 122q0 74 48 123t130 49q83 0 131.5 -49t48.5 -123zM462 25v887h-256v220h524v-1101q0 -203 -90 -298t-269 -95q-219 0 -338 178l203 116q38 -64 124 -64q47 0 74.5 34t27.5 123z" />
    <glyph glyph-name="lje-cy" unicode="&#x459;" 
d="M140 1132h488v-382h46q145 0 225.5 -101t80.5 -274q0 -164 -80.5 -269.5t-225.5 -105.5h-235v912h-80l-14 -494q-9 -418 -254 -418h-99l6 220h24q89 0 98 222zM751 375q0 94 -21 124t-65 30h-37v-309h36q45 0 66 30t21 125z" />
    <glyph glyph-name="nje-cy" unicode="&#x45a;" 
d="M326 529v-529h-219v1132h219v-382h113l1 382h188v-382h46q145 0 225.5 -101t80.5 -274q0 -164 -80.5 -269.5t-225.5 -105.5h-234l-1 529h-113zM751 375q0 94 -21 124t-66 30h-36v-309h36q45 0 66 30t21 125z" />
    <glyph glyph-name="tshe-cy" unicode="&#x45b;" 
d="M913 0h-269v552q0 108 -26.5 146t-75.5 38q-100 0 -114 -137v-599h-269v1132h-104v211h104v183h269v-183h191v-211h-191v-311q78 147 222 147q126 0 194.5 -93.5t68.5 -313.5v-561z" />
    <glyph glyph-name="kje-cy" unicode="&#x45c;" 
d="M966 0h-267q-7 125 -185 408l-26 37l-79 -96v-349h-267v1132h267v-447l99 125q154 189 161 322h267l-2 -37q-9 -151 -224 -414l-52 -64l52 -78q246 -353 256 -499v-40zM647 1526h270l-228 -236h-216z" />
    <glyph glyph-name="iigrave-cy" unicode="&#x45d;" 
d="M347 408l297 725h258v-1133h-258v199q0 269 32 530l-297 -729h-258v1133h258v-196q0 -269 -32 -529zM611 1290h-216l-228 236h270z" />
    <glyph glyph-name="ushort-cy" unicode="&#x45e;" 
d="M222 -353l2 37q8 124 67 275l97 254l-207 519q-76 190 -83 313l-5 87h266l5 -81q11 -179 49 -279l99 -255l91 255q48 123 57 279l5 81h266l-6 -87q-6 -123 -80 -313l-299 -777q-46 -118 -55 -271l-2 -37h-267zM512 1275q-345 0 -355 251h207q3 -95 148 -95t148 95h207
q-10 -251 -355 -251z" />
    <glyph glyph-name="dzhe-cy" unicode="&#x45f;" 
d="M122 1132h267v-904h246v904h267v-1132h-257v-269h-266v269h-257v1132z" />
    <glyph glyph-name="Gheupturn-cy" unicode="&#x490;" 
d="M934 1298h-457v-1298h-268v1526h457v163h268v-391z" />
    <glyph glyph-name="gheupturn-cy" unicode="&#x491;" 
d="M934 904h-457v-904h-268v1132h457v557h268v-785z" />
    <glyph glyph-name="FT1" unicode="&#x2bfe;" 
d="M372 1215h652v-170h-656v-929h180v417h367v164h-367v184h476v-480q-19 -17 -51 -27.5t-58 -10.5h-197v-243q0 -72 -51.5 -123t-122.5 -51h-172q-75 0 -124.5 51t-49.5 123v921q0 72 51 123t123 51z" />
    <glyph glyph-name="FT2" unicode="&#x2bff;" 
d="M0 1215h651q72 0 123.5 -49.5t51.5 -124.5v-160q0 -71 -51.5 -122.5t-123.5 -51.5h-129v-587q0 -72 -51.5 -123t-122.5 -51h-172q-72 0 -123 51t-51 123v280h-2v481h172v-765h180v765h304v164h-656v170z" />
    <glyph glyph-name="dieresisacute" unicode="&#xf6d7;" 
d="M856 1337q0 -44 -31.5 -77.5t-80.5 -33.5q-48 0 -79.5 33.5t-31.5 77.5q0 45 31.5 78t79.5 33q49 0 80.5 -33t31.5 -78zM390 1337q0 -44 -31.5 -77.5t-80.5 -33.5q-48 0 -79.5 33.5t-31.5 77.5q0 45 31.5 78t79.5 33q49 0 80.5 -33t31.5 -78zM816 1625l-232 -177h-192
l174 177h250z" />
    <glyph glyph-name="dieresisgrave" unicode="&#xf6d8;" 
d="M856 1337q0 -44 -31.5 -77.5t-80.5 -33.5q-48 0 -79.5 33.5t-31.5 77.5q0 45 31.5 78t79.5 33q49 0 80.5 -33t31.5 -78zM390 1337q0 -44 -31.5 -77.5t-80.5 -33.5q-48 0 -79.5 33.5t-31.5 77.5q0 45 31.5 78t79.5 33q49 0 80.5 -33t31.5 -78zM457 1625l174 -177h-192
l-232 177h250z" />
    <glyph glyph-name="Gecyrillic.alt01" unicode="&#xf482;" 
d="M921 1209h-443v-1209h-269v1439h712v-230z" />
    <glyph glyph-name="at.alt01" unicode="&#xf4e1;" 
d="M541 1132q-138 0 -196.5 -102t-58.5 -323v-456q0 -203 82.5 -305t255.5 -102q195 0 343 152v-238q-142 -120 -346 -120q-235 0 -390 145.5t-155 467.5v456q0 341 131 486.5t334 145.5q182 0 304 -123.5t122 -379.5v-483q0 -205 -83.5 -288.5t-201.5 -83.5
q-117 0 -200 83.5t-83 288.5v150q0 363 244 363q65 0 114 -39v31q0 136 -54 205t-162 69zM757 524q0 143 -75 143q-73 0 -73 -143v-221q0 -123 73 -123q75 0 75 123v221z" />
    <glyph glyph-name="numbersign.alt01" unicode="&#xf4e2;" 
d="M935 562h-183l-58 -272h-239l58 272h-154l-58 -272h-238l58 272h-111v219h156l56 255h-137v218h183l58 272h238l-58 -272h154l58 272h238l-58 -272h112v-218h-157l-56 -255h138v-219zM558 781l56 255h-153l-56 -255h153z" />
    <glyph glyph-name="checkmark" unicode="&#x2713;" 
d="M260 577q52 0 85 -58l-1 2l30.5 -48t19.5 -28q92 326 178 519q43 94 82 168.5t67 115.5q76 108 157 108q28 0 47.5 -15.5t19.5 -46.5q0 -27 -30 -75l1 1q-198 -342 -363 -1000q-10 -28 -30.5 -48.5t-53.5 -34.5q-57 -23 -92 -23q-74 0 -168 135q-89 130 -89 170
q0 56 49 106q52 52 91 52z" />
    <glyph glyph-name="heavyCheckMark" unicode="&#x2714;" 
d="M208 739q52 0 82.5 -28.5t40.5 -85.5l9 -43q3 -16 3 -20q58 84 129 171.5t154 178.5q169 188 248 188q19 0 35 -7t29 -19.5t20.5 -29.5t7.5 -36q0 -42 -35 -81v1q-109 -129 -227.5 -289t-246.5 -355v1q-73 -112 -170 -112q-120 0 -152 130q-52 241 -52 295q0 35 10 61.5
t27.5 44t40 26.5t47.5 9z" />
    <glyph glyph-name="whiteCircle" unicode="&#x25cb;" 
d="M603 1171q0 -41 -25.5 -67t-65.5 -26q-39 0 -64.5 26t-25.5 67q0 36 25.5 63t64.5 27q40 0 65.5 -27t25.5 -63zM364 1094q0 -40 -25.5 -66t-65.5 -26q-38 0 -63.5 26t-25.5 66q0 37 25.5 63.5t63.5 26.5q40 0 65.5 -26.5t25.5 -63.5zM215 891q0 -41 -25.5 -67t-64.5 -26
t-64.5 26t-25.5 67q0 36 25.5 62.5t64.5 26.5t64.5 -26.5t25.5 -62.5zM215 638q0 -41 -25.5 -67t-64.5 -26t-64.5 26t-25.5 67q0 36 25.5 62.5t64.5 26.5t64.5 -26.5t25.5 -62.5zM364 434q0 -41 -25.5 -67t-65.5 -26q-38 0 -63.5 26t-25.5 67q0 36 25.5 63t63.5 27
q40 0 65.5 -27t25.5 -63zM603 356q0 -40 -25.5 -66t-65.5 -26q-39 0 -64.5 26t-25.5 66q0 37 25.5 63.5t64.5 26.5q40 0 65.5 -26.5t25.5 -63.5zM660 1094q0 37 25.5 63.5t65.5 26.5q38 0 63.5 -26.5t25.5 -63.5q0 -40 -25.5 -66t-63.5 -26q-40 0 -65.5 26t-25.5 66z
M809 891q0 36 25.5 62.5t64.5 26.5t64.5 -26.5t25.5 -62.5q0 -41 -25.5 -67t-64.5 -26t-64.5 26t-25.5 67zM809 638q0 36 25.5 62.5t64.5 26.5t64.5 -26.5t25.5 -62.5q0 -41 -25.5 -67t-64.5 -26t-64.5 26t-25.5 67zM660 434q0 36 25.5 63t65.5 27q38 0 63.5 -27t25.5 -63
q0 -41 -25.5 -67t-63.5 -26q-40 0 -65.5 26t-25.5 67z" />
    <glyph glyph-name="dottedCircle" unicode="&#x25cc;" 
d="M512 1148q-169 0 -277 -115.5t-108 -271.5q0 -157 108 -272.5t277 -115.5q171 0 279.5 115.5t108.5 272.5q0 156 -108.5 271.5t-279.5 115.5zM1021 761q0 -208 -149.5 -358.5t-359.5 -150.5t-359.5 150.5t-149.5 358.5q0 209 149.5 359t359.5 150t359.5 -150t149.5 -359z
" />
    <glyph glyph-name="verticalFillCircle" unicode="&#x25cd;" 
d="M2 761q0 106 40 199t109.5 162.5t162.5 109.5t199 40q105 0 198.5 -40t163 -109.5t109.5 -162.5t40 -199t-40 -199t-109.5 -162.5t-163 -109.5t-198.5 -40q-106 0 -199 40t-162.5 109.5t-109.5 162.5t-40 199zM513 343q23 0 46 2v832q-23 2 -46 2q-24 0 -46 -2v-832
q22 -2 46 -2zM350 376q12 -6 24 -10v790q-12 -5 -24 -9q-37 -17 -69 -38v-697q32 -21 69 -36zM675 376q37 15 70 36v697q-33 21 -70 38l-23 8v-789zM95 761q0 -87 33 -163q23 -55 59 -100v525q-36 -44 -59 -100q-33 -75 -33 -162zM898 598q33 76 33 163t-33 162
q-24 56 -60 100v-525q36 46 60 100z" />
    <glyph glyph-name="bullseye" unicode="&#x25ce;" 
d="M512 1148q-169 0 -277 -115.5t-108 -271.5q0 -157 108 -272.5t277 -115.5q171 0 279.5 115.5t108.5 272.5q0 156 -108.5 271.5t-279.5 115.5zM1021 761q0 -208 -149.5 -358.5t-359.5 -150.5t-359.5 150.5t-149.5 358.5q0 209 149.5 359t359.5 150t359.5 -150t149.5 -359z
M248 761q0 108 78 186t186 78t186 -78t78 -186t-78 -186t-186 -78t-186 78t-78 186zM652 761q0 57 -41.5 98.5t-98.5 41.5t-98.5 -41.5t-41.5 -98.5t41.5 -98.5t98.5 -41.5t98.5 41.5t41.5 98.5z" />
    <glyph glyph-name="blackCircle" unicode="&#x25cf;" 
d="M1021 761q0 -208 -149.5 -358.5t-359.5 -150.5t-359.5 150.5t-149.5 358.5q0 209 149.5 359t359.5 150t359.5 -150t149.5 -359z" />
    <glyph glyph-name="leftHalfBlackWhiteCircle" unicode="&#x25d0;" 
d="M512 1148v-775q171 0 279.5 115.5t108.5 272.5q0 156 -108.5 271.5t-279.5 115.5zM1021 761q0 -208 -149.5 -358.5t-359.5 -150.5t-359.5 150.5t-149.5 358.5q0 209 149.5 359t359.5 150t359.5 -150t149.5 -359z" />
    <glyph glyph-name="rightHalfBlackWhiteCircle" unicode="&#x25d1;" 
d="M512 1148q-169 0 -277 -115.5t-108 -271.5q0 -157 108 -272.5t277 -115.5v775zM1021 761q0 -208 -149.5 -358.5t-359.5 -150.5t-359.5 150.5t-149.5 358.5q0 209 149.5 359t359.5 150t359.5 -150t149.5 -359z" />
    <glyph glyph-name="lowerHalfBlackWhiteCircle" unicode="&#x25d2;" 
d="M900 761q0 158 -108.5 273.5t-279.5 115.5q-169 0 -277 -115.5t-108 -273.5h773zM1021 761q0 -208 -149.5 -358.5t-359.5 -150.5t-359.5 150.5t-149.5 358.5q0 209 149.5 359t359.5 150t359.5 -150t149.5 -359z" />
    <glyph glyph-name="upperHalfBlackWhiteCircle" unicode="&#x25d3;" 
d="M127 761q0 -157 108 -272.5t277 -115.5q171 0 279.5 115.5t108.5 272.5h-773zM1021 761q0 -208 -149.5 -358.5t-359.5 -150.5t-359.5 150.5t-149.5 358.5q0 209 149.5 359t359.5 150t359.5 -150t149.5 -359z" />
    <glyph glyph-name="upperRightBlackCircle" unicode="&#x25d4;" 
d="M512 761v387q-169 0 -277 -115.5t-108 -271.5q0 -157 108 -272.5t277 -115.5q171 0 279.5 115.5t108.5 272.5h-388zM1021 761q0 -208 -149.5 -358.5t-359.5 -150.5t-359.5 150.5t-149.5 358.5q0 209 149.5 359t359.5 150t359.5 -150t149.5 -359z" />
    <glyph glyph-name="upperLeftWhiteCircle" unicode="&#x25d5;" 
d="M512 1148q-169 0 -277 -115.5t-108 -271.5h385v387zM1021 761q0 -208 -149.5 -358.5t-359.5 -150.5t-359.5 150.5t-149.5 358.5q0 209 149.5 359t359.5 150t359.5 -150t149.5 -359z" />
    <glyph glyph-name="leftHalfBlackCircle" unicode="&#x25d6;" 
d="M744 252q-210 0 -359.5 150.5t-149.5 358.5q0 209 149.5 359t359.5 150v-1018z" />
    <glyph glyph-name="rightHalfBlackCircle" unicode="&#x25d7;" 
d="M280 1270q210 0 359.5 -150t149.5 -359q0 -208 -149.5 -358.5t-359.5 -150.5v1018z" />
    <glyph glyph-name="inverseBullet" unicode="&#x25d8;" 
d="M985 289h-946v947h946v-947zM316 761q0 -80 58 -138t138 -58t138 58t58 138t-58 138t-138 58t-138 -58t-58 -138z" />
    <glyph glyph-name="inverseWhiteCircle" unicode="&#x25d9;" 
d="M985 289h-946v947h946v-947zM99 761q0 -171 121 -291.5t292 -120.5t291.5 120.5t120.5 291.5t-120.5 292t-291.5 121t-292 -121t-121 -292zM801 761q0 -121 -85.5 -205.5t-203.5 -84.5t-203.5 84.5t-85.5 205.5t85.5 205.5t203.5 84.5t203.5 -84.5t85.5 -205.5z" />
    <glyph glyph-name="upperHalfInverseWhiteCircle" unicode="&#x25da;" 
d="M223 761q0 121 85.5 205.5t203.5 84.5t203.5 -84.5t85.5 -205.5h-578zM985 761h-61q0 171 -120.5 292t-291.5 121t-292 -121t-121 -292h-60v475h946v-475z" />
    <glyph glyph-name="lowerHalfInverseWhiteCircle" unicode="&#x25db;" 
d="M801 761q0 -121 -85.5 -205.5t-203.5 -84.5t-203.5 84.5t-85.5 205.5h578zM985 287h-946v474h60q0 -171 121 -291.5t292 -120.5t291.5 120.5t120.5 291.5h61v-474z" />
    <glyph glyph-name="upperLeftArc" unicode="&#x25dc;" 
d="M257 761q0 211 149.5 361t359.5 150v-122q-159 0 -272 -115.5t-113 -273.5h-124v0z" />
    <glyph glyph-name="upperRightArc" unicode="&#x25dd;" 
d="M766 761h-124q0 158 -113 273.5t-272 115.5v122q210 0 359.5 -150t149.5 -361z" />
    <glyph glyph-name="lowerRightArc" unicode="&#x25de;" 
d="M766 761q0 -210 -149.5 -360.5t-359.5 -150.5v123q159 0 272 115.5t113 272.5h124v0z" />
    <glyph glyph-name="lowerLeftArc" unicode="&#x25df;" 
d="M257 761h124q0 -157 113 -272.5t272 -115.5v-123q-210 0 -359.5 150.5t-149.5 360.5z" />
    <glyph glyph-name="upperHalfArc" unicode="&#x25e0;" 
d="M897 761q0 158 -113 273.5t-272 115.5t-272 -115.5t-113 -273.5h-124q0 211 149.5 361t359.5 150t359.5 -150t149.5 -361h-124z" />
    <glyph glyph-name="lowerHalfArc" unicode="&#x25e1;" 
d="M1021 761q0 -210 -149.5 -360.5t-359.5 -150.5t-359.5 150.5t-149.5 360.5h124q0 -157 113 -272.5t272 -115.5t272 115.5t113 272.5h124z" />
    <glyph glyph-name="lowerRightBlackTriangle" unicode="&#x25e2;" 
d="M985 1256v-947h-946z" />
    <glyph glyph-name="lowerLeftBlackTriangle" unicode="&#x25e3;" 
d="M985 309h-946v947z" />
    <glyph glyph-name="upperLeftBlackTriangle" unicode="&#x25e4;" 
d="M39 309v947h946z" />
    <glyph glyph-name="upperRightBlackTriangle" unicode="&#x25e5;" 
d="M39 1256h946v-947z" />
    <glyph glyph-name="whiteBullet" unicode="&#x25e6;" 
d="M248 761q0 108 78 186t186 78t186 -78t78 -186t-78 -186t-186 -78t-186 78t-78 186zM652 761q0 57 -41.5 98.5t-98.5 41.5t-98.5 -41.5t-41.5 -98.5t41.5 -98.5t98.5 -41.5t98.5 41.5t41.5 98.5z" />
    <glyph glyph-name="leftHalfBlackSquare" unicode="&#x25e7;" 
d="M985 289h-946v947h946v-947zM862 412v700h-350v-700h350z" />
    <glyph glyph-name="rightHalfBlackSquare" unicode="&#x25e8;" 
d="M39 1236h946v-947h-946v947zM512 412v700h-350v-700h350z" />
    <glyph glyph-name="upperLeftDiagonalHalfBlackSquare" unicode="&#x25e9;" 
d="M985 289h-946v947h946v-947zM862 412v700l-700 -700h700z" />
    <glyph glyph-name="lowerRightDiagonalHalfBlackSquare" unicode="&#x25ea;" 
d="M985 289h-946v947h946v-947zM862 1112h-700v-700z" />
    <glyph glyph-name="verticalBisectingLineWhiteSquare" unicode="&#x25eb;" 
d="M985 289h-946v947h946v-947zM162 412h288v700h-288v-700zM862 412v700h-288v-700h288z" />
    <glyph glyph-name="upWhiteTriangleWithDot" unicode="&#x25ec;" 
d="M512 1226l531 -920h-1062zM192 428h640l-320 555zM596 626q0 -34 -25 -59t-59 -25t-59 25t-25 59t25 59t59 25t59 -25t25 -59z" />
    <glyph glyph-name="upLeftHalfBlackTriangle" unicode="&#x25ed;" 
d="M512 1226l531 -920h-1062zM512 428h320l-320 555v-555z" />
    <glyph glyph-name="upRightHalfBlackTriangle" unicode="&#x25ee;" 
d="M1043 306h-1062l531 920zM512 983l-320 -555h320v555z" />
    <glyph glyph-name="largeCircle" unicode="&#x25ef;" 
d="M512 1148q-169 0 -277 -115.5t-108 -271.5q0 -157 108 -272.5t277 -115.5q171 0 279.5 115.5t108.5 272.5q0 156 -108.5 271.5t-279.5 115.5zM1021 761q0 -208 -149.5 -358.5t-359.5 -150.5t-359.5 150.5t-149.5 358.5q0 209 149.5 359t359.5 150t359.5 -150t149.5 -359z
" />
    <glyph glyph-name="whiteUpperLeftQuadrantSquare" unicode="&#x25f0;" 
d="M985 289h-946v947h946v-947zM862 412v700h-288v-412h-412v-288h700zM162 824h288v288h-288v-288z" />
    <glyph glyph-name="whiteLowerLeftQuadrantSquare" unicode="&#x25f1;" 
d="M985 289h-946v947h946v-947zM162 1112v-288h412v-412h288v700h-700zM162 412h288v288h-288v-288z" />
    <glyph glyph-name="whiteLowerRightQuadrantSquare" unicode="&#x25f2;" 
d="M39 1236h946v-947h-946v947zM162 1112v-700h288v412h412v288h-700zM862 700h-288v-288h288v288z" />
    <glyph glyph-name="whiteUpperRightQuadrantSquare" unicode="&#x25f3;" 
d="M39 1236h946v-947h-946v947zM862 412v288h-412v412h-288v-700h700zM862 1112h-288v-288h288v288z" />
    <glyph glyph-name="upperLeftQuadrantWhiteCircle" unicode="&#x25f4;" 
d="M1021 761q0 -208 -149.5 -358.5t-359.5 -150.5t-359.5 150.5t-149.5 358.5q0 209 149.5 359t359.5 150t359.5 -150t149.5 -359zM574 1144v-445h-444q14 -118 113.5 -222t268.5 -104q171 0 279.5 115.5t108.5 272.5q0 156 -98.5 260t-227.5 123zM130 823h320v321
q-127 -19 -214 -106.5t-106 -214.5z" />
    <glyph glyph-name="lowerLeftQuadrantWhiteCircle" unicode="&#x25f5;" 
d="M1021 761q0 -208 -149.5 -358.5t-359.5 -150.5t-359.5 150.5t-149.5 358.5q0 209 149.5 359t359.5 150t359.5 -150t149.5 -359zM574 379q129 18 227.5 122.5t98.5 259.5q0 158 -108.5 273.5t-279.5 115.5q-169 0 -268.5 -104t-113.5 -223h444v-444zM130 699
q19 -126 106 -214t214 -106v320h-320z" />
    <glyph glyph-name="lowerRightQuadrantWhiteCircle" unicode="&#x25f6;" 
d="M3 761q0 209 149.5 359t359.5 150t359.5 -150t149.5 -359q0 -208 -149.5 -358.5t-359.5 -150.5t-359.5 150.5t-149.5 358.5zM450 379v444h444q-14 119 -113.5 223t-268.5 104q-171 0 -279.5 -115.5t-108.5 -273.5q0 -155 98.5 -259.5t227.5 -122.5zM894 699h-320v-320
q127 18 214 106t106 214z" />
    <glyph glyph-name="upperRightQuadrantWhiteCircle" unicode="&#x25f7;" 
d="M3 761q0 209 149.5 359t359.5 150t359.5 -150t149.5 -359q0 -208 -149.5 -358.5t-359.5 -150.5t-359.5 150.5t-149.5 358.5zM450 1144q-129 -19 -227.5 -123t-98.5 -260q0 -157 108.5 -272.5t279.5 -115.5q169 0 268.5 104t113.5 222h-444v445zM894 823
q-19 127 -106 214.5t-214 106.5v-321h320z" />
    <glyph glyph-name="upperLeftTriangle" unicode="&#x25f8;" 
d="M39 289v947h946zM687 1112h-525v-525z" />
    <glyph glyph-name="upperRightTriangle" unicode="&#x25f9;" 
d="M39 1236h946v-947zM862 587v525h-525z" />
    <glyph glyph-name="lowerLeftTriangle" unicode="&#x25fa;" 
d="M985 289h-946v947zM162 937v-525h525z" />
    <glyph glyph-name="mediumWhiteSquare" unicode="&#x25fb;" 
d="M889 385h-754v754h754v-754zM765 509v506h-506v-506h506z" />
    <glyph glyph-name="mediumBlackSquare" unicode="&#x25fc;" 
d="M889 385h-754v754h754v-754z" />
    <glyph glyph-name="mediumWhiteSmallSquare" unicode="&#x25fd;" 
d="M821 453h-618v618h618v-618zM697 577v371h-370v-371h370z" />
    <glyph glyph-name="mediumBlackSmallSquare" unicode="&#x25fe;" 
d="M821 453h-618v618h618v-618z" />
    <glyph glyph-name="lowerRightTriangle" unicode="&#x25ff;" 
d="M985 1236v-947h-946zM337 412h525v525z" />
    <glyph glyph-name="blackSquare" unicode="&#x25a0;" 
d="M985 289h-946v947h946v-947z" />
    <glyph glyph-name="whiteSquare" unicode="&#x25a1;" 
d="M985 289h-946v947h946v-947zM862 412v700h-700v-700h700z" />
    <glyph glyph-name="whiteRoundedCornersSquare" unicode="&#x25a2;" 
d="M39 996q0 240 239 240h468q239 0 239 -240v-468q0 -239 -239 -239h-468q-239 0 -239 239v468zM162 509q0 -96 97 -97h506q97 1 97 97v506q0 96 -97 97h-506q-97 -1 -97 -97v-506z" />
    <glyph glyph-name="whiteInBlackSquare" unicode="&#x25a3;" 
d="M985 289h-946v947h946v-947zM862 412v700h-700v-700h700zM286 536v452h452v-452h-452z" />
    <glyph glyph-name="horizontalFillSquare" unicode="&#x25a4;" 
d="M984 289h-945v946h945v-946zM144 1024h735v105h-735v-105zM144 394h735v105h-735v-105zM144 604h735v105h-735v-105zM144 814h735v106h-735v-106z" />
    <glyph glyph-name="verticalFillSquare" unicode="&#x25a5;" 
d="M984 289h-945v946h945v-946zM774 394h105v735h-105v-735zM144 394h105v735h-105v-735zM354 394h105v735h-105v-735zM564 394h105v735h-105v-735z" />
    <glyph glyph-name="crosshatchFillSquare" unicode="&#x25a6;" 
d="M984 1235v-946h-945v946h945zM774 814h105v106h-105v-106zM774 604h105v105h-105v-105zM774 394h105v105h-105v-105zM564 1024h105v105h-105v-105zM564 394h105v105h-105v-105zM564 604h105v105h-105v-105zM144 394h105v105h-105v-105zM564 814h105v106h-105v-106z
M144 604h105v105h-105v-105zM144 814h105v106h-105v-106zM354 814h105v106h-105v-106zM144 1024h105v105h-105v-105zM774 1024h105v105h-105v-105zM354 394h105v105h-105v-105zM354 604h105v105h-105v-105zM354 1024h105v105h-105v-105z" />
    <glyph glyph-name="upperlefttolowerrightFillSquare" unicode="&#x25a7;" 
d="M984 289h-945v946h945v-946zM827 384l-693 693v-135l559 -558h134zM890 589l-550 551h-135l685 -685v134zM561 384l-427 426v-136l292 -290h135zM890 856l-283 284h-136l419 -419v135zM292 384l-158 157v-157h158zM890 1140h-149l149 -150v150z" />
    <glyph glyph-name="upperrighttolowerleftFillSquare" unicode="&#x25a8;" 
d="M39 1235h945v-946h-945v946zM330 384l559 558v135l-693 -693h134zM133 455l685 685h-135l-550 -551v-134zM597 384l292 290v136l-427 -426h135zM133 721l419 419h-136l-283 -284v-135zM889 384v157l-158 -157h158zM133 990l149 150h-149v-150z" />
    <glyph glyph-name="diagonalcrosshatchFillSquare" unicode="&#x25a9;" 
d="M984 289h-945v946h945v-946zM177 899l67 -67l68 67l-68 68zM644 966l68 68l-68 67l-67 -67zM577 498l67 -67l68 67l-68 68zM379 966l66 68l-67 67l-67 -67zM243 565l68 68l-67 67l-68 -68zM780 565l66 67l-67 68l-68 -67zM711 899l68 -67l67 67l-67 68zM310 497l68 -66
l67 67l-66 68zM377 698l67 68l-66 68l-68 -68zM444 632l67 -68l68 68l-67 67zM444 900l67 -67l68 67l-68 68zM579 766l66 -68l68 68l-68 67zM561 384l-50 49l-49 -49h99zM827 384l-48 47l-48 -47h96zM292 384l-49 47l-47 -47h96zM134 722l45 44l-45 44v-88zM889 810l-45 -44
l45 -44v88zM134 991l43 43l-43 43v-86zM889 1077l-43 -43l43 -43v86zM889 541l-43 -43l43 -42v85zM134 456l43 42l-43 43v-85zM552 1140h-81l40 -41zM818 1140h-77l39 -39zM282 1140h-77l38 -39z" />
    <glyph glyph-name="blackSmallSquare" unicode="&#x25aa;" 
d="M753 521h-483v483h483v-483z" />
    <glyph glyph-name="whiteSmallSquare" unicode="&#x25ab;" 
d="M753 521h-483v483h483v-483zM630 644v236h-236v-236h236z" />
    <glyph glyph-name="filledRect" unicode="&#x25ac;" 
d="M985 530h-946v464h946v-464z" />
    <glyph glyph-name="whiteRect" unicode="&#x25ad;" 
d="M985 530h-946v464h946v-464zM862 870h-700v-216h700v216z" />
    <glyph glyph-name="blackVerticalRect" unicode="&#x25ae;" 
d="M773 1333v-1140h-522v1140h522z" />
    <glyph glyph-name="whiteVerticalRect" unicode="&#x25af;" 
d="M773 1333v-1140h-522v1140h522zM375 1209v-892h274v892h-274z" />
    <glyph glyph-name="blackParallelogram" unicode="&#x25b0;" 
d="M850 530h-811l135 464h811z" />
    <glyph glyph-name="whiteParallelogram" unicode="&#x25b1;" 
d="M850 530h-811l135 464h811zM788 870h-490l-63 -216h491z" />
    </font>
</defs>
</svg>
